<svg version="1.1" viewBox="0.0 0.0 600.0 371.0" fill="none" stroke="none" stroke-linecap="square" stroke-miterlimit="10" width="600" height="371" xmlns:xlink="http://www.w3.org/1999/xlink" xmlns="http://www.w3.org/2000/svg"><path fill="#ffffff" d="M0 0L600.0 0L600.0 371.0L0 371.0L0 0Z" fill-rule="nonzero"/><path stroke="#333333" stroke-width="1.0" stroke-linecap="butt" d="M96.5 18.5L96.5 334.5" fill-rule="nonzero"/><path stroke="#cccccc" stroke-width="1.0" stroke-linecap="butt" d="M193.5 18.5L193.5 334.5" fill-rule="nonzero"/><path stroke="#cccccc" stroke-width="1.0" stroke-linecap="butt" d="M290.5 18.5L290.5 334.5" fill-rule="nonzero"/><path stroke="#cccccc" stroke-width="1.0" stroke-linecap="butt" d="M387.5 18.5L387.5 334.5" fill-rule="nonzero"/><path stroke="#cccccc" stroke-width="1.0" stroke-linecap="butt" d="M484.5 18.5L484.5 334.5" fill-rule="nonzero"/><path stroke="#cccccc" stroke-width="1.0" stroke-linecap="butt" d="M581.5 18.5L581.5 334.5" fill-rule="nonzero"/><clipPath id="id_0"><path d="M96.55 18.55L581.45 18.55L581.45 334.45L96.55 334.45L96.55 18.55Z" clip-rule="nonzero"/></clipPath><path stroke="#000000" stroke-width="2.0" stroke-linecap="butt" stroke-opacity="0.0" clip-path="url(#id_0)" d="M97.0 77.0L97.0 39.0L453.0 39.0C454.10458 39.0 455.0 39.89543 455.0 41.0L455.0 75.0C455.0 76.10457 454.10458 77.0 453.0 77.0Z" fill-rule="nonzero"/><path fill="#4472c4" clip-path="url(#id_0)" d="M97.0 77.0L97.0 39.0L453.0 39.0C454.10458 39.0 455.0 39.89543 455.0 41.0L455.0 75.0C455.0 76.10457 454.10458 77.0 453.0 77.0Z" fill-rule="nonzero"/><path stroke="#000000" stroke-width="2.0" stroke-linecap="butt" stroke-opacity="0.0" clip-path="url(#id_0)" d="M97.0 136.0L97.0 98.0L550.0 98.0C551.10455 98.0 552.0 98.89543 552.0 100.0L552.0 134.0C552.0 135.10457 551.10455 136.0 550.0 136.0Z" fill-rule="nonzero"/><path fill="#4472c4" clip-path="url(#id_0)" d="M97.0 136.0L97.0 98.0L550.0 98.0C551.10455 98.0 552.0 98.89543 552.0 100.0L552.0 134.0C552.0 135.10457 551.10455 136.0 550.0 136.0Z" fill-rule="nonzero"/><path stroke="#000000" stroke-width="2.0" stroke-linecap="butt" stroke-opacity="0.0" clip-path="url(#id_0)" d="M97.0 196.0L97.0 158.0L512.0 158.0C513.10455 158.0 514.0 158.89543 514.0 160.0L514.0 194.0C514.0 195.10457 513.10455 196.0 512.0 196.0Z" fill-rule="nonzero"/><path fill="#4472c4" clip-path="url(#id_0)" d="M97.0 196.0L97.0 158.0L512.0 158.0C513.10455 158.0 514.0 158.89543 514.0 160.0L514.0 194.0C514.0 195.10457 513.10455 196.0 512.0 196.0Z" fill-rule="nonzero"/><path stroke="#000000" stroke-width="2.0" stroke-linecap="butt" stroke-opacity="0.0" clip-path="url(#id_0)" d="M97.0 255.0L97.0 217.0L133.0 217.0C134.10457 217.0 135.0 217.89543 135.0 219.0L135.0 253.0C135.0 254.10457 134.10457 255.0 133.0 255.0Z" fill-rule="nonzero"/><path fill="#4472c4" clip-path="url(#id_0)" d="M97.0 255.0L97.0 217.0L133.0 217.0C134.10457 217.0 135.0 217.89543 135.0 219.0L135.0 253.0C135.0 254.10457 134.10457 255.0 133.0 255.0Z" fill-rule="nonzero"/><path stroke="#000000" stroke-width="2.0" stroke-linecap="butt" stroke-opacity="0.0" clip-path="url(#id_0)" d="M97.0 314.0L97.0 276.0L230.0 276.0C231.10457 276.0 232.0 276.89542 232.0 278.0L232.0 312.0C232.0 313.10458 231.10457 314.0 230.0 314.0Z" fill-rule="nonzero"/><path fill="#4472c4" clip-path="url(#id_0)" d="M97.0 314.0L97.0 276.0L230.0 276.0C231.10457 276.0 232.0 276.89542 232.0 278.0L232.0 312.0C232.0 313.10458 231.10457 314.0 230.0 314.0Z" fill-rule="nonzero"/><path stroke="#4472c4" stroke-width="3.0" stroke-linejoin="round" stroke-linecap="round" d="M438.85724 57.703125L439.66974 57.703125Q440.451 57.6875 440.8885 57.296875Q441.326 56.90625 441.326 56.234375Q441.326 54.734375 439.826 54.734375Q439.12286 54.734375 438.701 55.140625Q438.29474 55.546875 438.29474 56.203125L437.201 56.203125Q437.201 55.1875 437.93536 54.515625Q438.68536 53.84375 439.826 53.84375Q441.0291 53.84375 441.7166 54.484375Q442.4041 55.125 442.4041 56.265625Q442.4041 56.828125 442.04474 57.34375Q441.68536 57.859375 441.06036 58.125Q441.7635 58.34375 442.1385 58.859375Q442.5291 59.375 442.5291 60.125Q442.5291 61.265625 441.7791 61.953125Q441.0291 62.625 439.826 62.625Q438.6385 62.625 437.87286 61.96875Q437.12286 61.3125 437.12286 60.25L438.2166 60.25Q438.2166 60.921875 438.6541 61.328125Q439.0916 61.734375 439.8416 61.734375Q440.62286 61.734375 441.0291 61.328125Q441.451 60.90625 441.451 60.140625Q441.451 59.40625 440.99786 59.015625Q440.54474 58.609375 439.66974 58.59375L438.85724 58.59375L438.85724 57.703125ZM449.79474 54.578125L446.2635 62.5L445.12286 62.5L448.6385 54.859375L444.0291 54.859375L444.0291 53.96875L449.79474 53.96875L449.79474 54.578125Z" fill-rule="nonzero"/><path fill="#ffffff" d="M438.85724 57.703125L439.66974 57.703125Q440.451 57.6875 440.8885 57.296875Q441.326 56.90625 441.326 56.234375Q441.326 54.734375 439.826 54.734375Q439.12286 54.734375 438.701 55.140625Q438.29474 55.546875 438.29474 56.203125L437.201 56.203125Q437.201 55.1875 437.93536 54.515625Q438.68536 53.84375 439.826 53.84375Q441.0291 53.84375 441.7166 54.484375Q442.4041 55.125 442.4041 56.265625Q442.4041 56.828125 442.04474 57.34375Q441.68536 57.859375 441.06036 58.125Q441.7635 58.34375 442.1385 58.859375Q442.5291 59.375 442.5291 60.125Q442.5291 61.265625 441.7791 61.953125Q441.0291 62.625 439.826 62.625Q438.6385 62.625 437.87286 61.96875Q437.12286 61.3125 437.12286 60.25L438.2166 60.25Q438.2166 60.921875 438.6541 61.328125Q439.0916 61.734375 439.8416 61.734375Q440.62286 61.734375 441.0291 61.328125Q441.451 60.90625 441.451 60.140625Q441.451 59.40625 440.99786 59.015625Q440.54474 58.609375 439.66974 58.59375L438.85724 58.59375L438.85724 57.703125ZM449.79474 54.578125L446.2635 62.5L445.12286 62.5L448.6385 54.859375L444.0291 54.859375L444.0291 53.96875L449.79474 53.96875L449.79474 54.578125Z" fill-rule="nonzero"/><path stroke="#4472c4" stroke-width="3.0" stroke-linejoin="round" stroke-linecap="round" d="M538.8373 118.640625L540.0248 118.640625L540.0248 119.515625L538.8373 119.515625L538.8373 121.5L537.75916 121.5L537.75916 119.515625L533.8685 119.515625L533.8685 118.875L537.681 112.96875L538.8373 112.96875L538.8373 118.640625ZM535.1029 118.640625L537.75916 118.640625L537.75916 114.453125L537.6185 114.6875L535.1029 118.640625ZM546.7748 113.578125L543.2435 121.5L542.1029 121.5L545.6185 113.859375L541.00916 113.859375L541.00916 112.96875L546.7748 112.96875L546.7748 113.578125Z" fill-rule="nonzero"/><path fill="#ffffff" d="M538.8373 118.640625L540.0248 118.640625L540.0248 119.515625L538.8373 119.515625L538.8373 121.5L537.75916 121.5L537.75916 119.515625L533.8685 119.515625L533.8685 118.875L537.681 112.96875L538.8373 112.96875L538.8373 118.640625ZM535.1029 118.640625L537.75916 118.640625L537.75916 114.453125L537.6185 114.6875L535.1029 118.640625ZM546.7748 113.578125L543.2435 121.5L542.1029 121.5L545.6185 113.859375L541.00916 113.859375L541.00916 112.96875L546.7748 112.96875L546.7748 113.578125Z" fill-rule="nonzero"/><path stroke="#4472c4" stroke-width="3.0" stroke-linejoin="round" stroke-linecap="round" d="M500.04526 178.64062L501.23276 178.64062L501.23276 179.51562L500.04526 179.51562L500.04526 181.5L498.96713 181.5L498.96713 179.51562L495.0765 179.51562L495.0765 178.875L498.889 172.96875L500.04526 172.96875L500.04526 178.64062ZM496.31088 178.64062L498.96713 178.64062L498.96713 174.45312L498.8265 174.6875L496.31088 178.64062ZM504.04526 176.70312L504.85776 176.70312Q505.639 176.6875 506.0765 176.29688Q506.514 175.90625 506.514 175.23438Q506.514 173.73438 505.014 173.73438Q504.31088 173.73438 503.889 174.14062Q503.48276 174.54688 503.48276 175.20312L502.389 175.20312Q502.389 174.1875 503.12338 173.51562Q503.87338 172.84375 505.014 172.84375Q506.21713 172.84375 506.90463 173.48438Q507.59213 174.125 507.59213 175.26562Q507.59213 175.82812 507.23276 176.34375Q506.87338 176.85938 506.24838 177.125Q506.9515 177.34375 507.3265 177.85938Q507.71713 178.375 507.71713 179.125Q507.71713 180.26562 506.96713 180.95312Q506.21713 181.625 505.014 181.625Q503.8265 181.625 503.06088 180.96875Q502.31088 180.3125 502.31088 179.25L503.40463 179.25Q503.40463 179.92188 503.84213 180.32812Q504.27963 180.73438 505.02963 180.73438Q505.81088 180.73438 506.21713 180.32812Q506.639 179.90625 506.639 179.14062Q506.639 178.40625 506.18588 178.01562Q505.73276 177.60938 504.85776 177.59375L504.04526 177.59375L504.04526 176.70312Z" fill-rule="nonzero"/><path fill="#ffffff" d="M500.04526 178.64062L501.23276 178.64062L501.23276 179.51562L500.04526 179.51562L500.04526 181.5L498.96713 181.5L498.96713 179.51562L495.0765 179.51562L495.0765 178.875L498.889 172.96875L500.04526 172.96875L500.04526 178.64062ZM496.31088 178.64062L498.96713 178.64062L498.96713 174.45312L498.8265 174.6875L496.31088 178.64062ZM504.04526 176.70312L504.85776 176.70312Q505.639 176.6875 506.0765 176.29688Q506.514 175.90625 506.514 175.23438Q506.514 173.73438 505.014 173.73438Q504.31088 173.73438 503.889 174.14062Q503.48276 174.54688 503.48276 175.20312L502.389 175.20312Q502.389 174.1875 503.12338 173.51562Q503.87338 172.84375 505.014 172.84375Q506.21713 172.84375 506.90463 173.48438Q507.59213 174.125 507.59213 175.26562Q507.59213 175.82812 507.23276 176.34375Q506.87338 176.85938 506.24838 177.125Q506.9515 177.34375 507.3265 177.85938Q507.71713 178.375 507.71713 179.125Q507.71713 180.26562 506.96713 180.95312Q506.21713 181.625 505.014 181.625Q503.8265 181.625 503.06088 180.96875Q502.31088 180.3125 502.31088 179.25L503.40463 179.25Q503.40463 179.92188 503.84213 180.32812Q504.27963 180.73438 505.02963 180.73438Q505.81088 180.73438 506.21713 180.32812Q506.639 179.90625 506.639 179.14062Q506.639 178.40625 506.18588 178.01562Q505.73276 177.60938 504.85776 177.59375L504.04526 177.59375L504.04526 176.70312Z" fill-rule="nonzero"/><path stroke="#4472c4" stroke-width="3.0" stroke-linejoin="round" stroke-linecap="round" d="M128.82326 237.64062L130.01076 237.64062L130.01076 238.51562L128.82326 238.51562L128.82326 240.5L127.745125 240.5L127.745125 238.51562L123.8545 238.51562L123.8545 237.875L127.667 231.96875L128.82326 231.96875L128.82326 237.64062ZM125.088875 237.64062L127.745125 237.64062L127.745125 233.45312L127.6045 233.6875L125.088875 237.64062Z" fill-rule="nonzero"/><path fill="#ffffff" d="M128.82324 237.64062L130.01074 237.64062L130.01074 238.51562L128.82324 238.51562L128.82324 240.5L127.745125 240.5L127.745125 238.51562L123.8545 238.51562L123.8545 237.875L127.667 231.96875L128.82324 231.96875L128.82324 237.64062ZM125.088875 237.64062L127.745125 237.64062L127.745125 233.45312L127.6045 233.6875L125.088875 237.64062Z" fill-rule="nonzero"/><path stroke="#4472c4" stroke-width="3.0" stroke-linejoin="round" stroke-linecap="round" d="M217.78763 299.5L216.7095 299.5L216.7095 292.28125L214.522 293.07812L214.522 292.09375L217.63138 290.92188L217.78763 290.92188L217.78763 299.5ZM225.80325 296.64062L226.99075 296.64062L226.99075 297.51562L225.80325 297.51562L225.80325 299.5L224.72513 299.5L224.72513 297.51562L220.8345 297.51562L220.8345 296.875L224.647 290.96875L225.80325 290.96875L225.80325 296.64062ZM222.06888 296.64062L224.72513 296.64062L224.72513 292.45312L224.5845 292.6875L222.06888 296.64062Z" fill-rule="nonzero"/><path fill="#ffffff" d="M217.78763 299.5L216.7095 299.5L216.7095 292.28125L214.522 293.07812L214.522 292.09375L217.63138 290.92188L217.78763 290.92188L217.78763 299.5ZM225.80325 296.64062L226.99075 296.64062L226.99075 297.51562L225.80325 297.51562L225.80325 299.5L224.72513 299.5L224.72513 297.51562L220.8345 297.51562L220.8345 296.875L224.647 290.96875L225.80325 290.96875L225.80325 296.64062ZM222.06888 296.64062L224.72513 296.64062L224.72513 292.45312L224.5845 292.6875L222.06888 296.64062Z" fill-rule="nonzero"/><path fill="#000000" d="M25.284374 60.98467Q25.284374 61.10967 25.2375 61.187794Q25.20625 61.26592 25.14375 61.32842Q25.096874 61.375294 25.01875 61.406544Q24.940624 61.42217 24.8625 61.42217L24.534374 61.42217Q24.39375 61.42217 24.26875 61.39092Q24.159374 61.35967 24.05 61.281544Q23.95625 61.187794 23.846874 61.04717Q23.753124 60.89092 23.628124 60.67217L21.2375 56.35967Q21.05 56.01592 20.846874 55.656544Q20.659374 55.281544 20.503124 54.937794L20.4875 54.937794Q20.503124 55.35967 20.503124 55.812794Q20.51875 56.250294 20.51875 56.67217L20.51875 61.250294Q20.51875 61.29717 20.4875 61.344044Q20.471874 61.375294 20.409374 61.39092Q20.3625 61.406544 20.26875 61.42217Q20.175 61.437794 20.034374 61.437794Q19.89375 61.437794 19.8 61.42217Q19.70625 61.406544 19.659374 61.39092Q19.6125 61.375294 19.58125 61.344044Q19.565624 61.29717 19.565624 61.250294L19.565624 54.250294Q19.565624 54.01592 19.690624 53.92217Q19.815624 53.82842 19.971874 53.82842L20.45625 53.82842Q20.6125 53.82842 20.721874 53.85967Q20.846874 53.875294 20.940624 53.95342Q21.034374 54.01592 21.1125 54.14092Q21.20625 54.250294 21.3 54.437794L23.14375 57.76592Q23.315624 58.07842 23.471874 58.375294Q23.628124 58.656544 23.76875 58.937794Q23.925 59.219044 24.065624 59.500294Q24.20625 59.76592 24.346874 60.031544L24.346874 60.031544Q24.346874 59.57842 24.33125 59.07842Q24.33125 58.562794 24.33125 58.10967L24.33125 54.000294Q24.33125 53.95342 24.346874 53.92217Q24.378124 53.875294 24.425 53.85967Q24.4875 53.82842 24.58125 53.82842Q24.675 53.812794 24.815624 53.812794Q24.95625 53.812794 25.05 53.82842Q25.14375 53.82842 25.190624 53.85967Q25.2375 53.875294 25.253124 53.92217Q25.284374 53.95342 25.284374 54.000294L25.284374 60.98467ZM32.346874 58.562794Q32.346874 59.20342 32.175 59.750294Q32.01875 60.29717 31.675 60.687794Q31.33125 61.07842 30.83125 61.29717Q30.33125 61.51592 29.659374 61.51592Q29.003124 61.51592 28.51875 61.32842Q28.034374 61.125294 27.70625 60.76592Q27.39375 60.39092 27.2375 59.875294Q27.08125 59.344044 27.08125 58.67217Q27.08125 58.031544 27.2375 57.48467Q27.409374 56.937794 27.7375 56.54717Q28.08125 56.156544 28.58125 55.937794Q29.096874 55.719044 29.76875 55.719044Q30.425 55.719044 30.89375 55.92217Q31.378124 56.10967 31.70625 56.48467Q32.034374 56.844044 32.190624 57.375294Q32.346874 57.906544 32.346874 58.562794ZM31.33125 58.625294Q31.33125 58.20342 31.253124 57.82842Q31.175 57.437794 30.9875 57.156544Q30.815624 56.85967 30.503124 56.70342Q30.190624 56.531544 29.721874 56.531544Q29.3 56.531544 28.9875 56.687794Q28.690624 56.82842 28.4875 57.10967Q28.284374 57.39092 28.190624 57.781544Q28.096874 58.156544 28.096874 58.60967Q28.096874 59.031544 28.175 59.42217Q28.253124 59.79717 28.425 60.094044Q28.6125 60.375294 28.925 60.54717Q29.2375 60.70342 29.70625 60.70342Q30.128124 60.70342 30.440624 60.54717Q30.753124 60.39092 30.940624 60.125294Q31.14375 59.844044 31.2375 59.469044Q31.33125 59.07842 31.33125 58.625294ZM36.534374 56.32842Q36.534374 56.45342 36.51875 56.54717Q36.51875 56.64092 36.503124 56.687794Q36.4875 56.73467 36.45625 56.76592Q36.425 56.781544 36.378124 56.781544Q36.33125 56.781544 36.26875 56.76592Q36.20625 56.73467 36.1125 56.719044Q36.034374 56.687794 35.925 56.67217Q35.815624 56.64092 35.690624 56.64092Q35.55 56.64092 35.409374 56.70342Q35.26875 56.750294 35.1125 56.89092Q34.95625 57.01592 34.784374 57.250294Q34.6125 57.469044 34.409374 57.79717L34.409374 61.26592Q34.409374 61.312794 34.378124 61.344044Q34.3625 61.375294 34.315624 61.406544Q34.26875 61.42217 34.175 61.42217Q34.08125 61.437794 33.925 61.437794Q33.784374 61.437794 33.690624 61.42217Q33.596874 61.42217 33.534374 61.406544Q33.4875 61.375294 33.45625 61.344044Q33.440624 61.312794 33.440624 61.26592L33.440624 55.98467Q33.440624 55.937794 33.45625 55.906544Q33.4875 55.875294 33.534374 55.85967Q33.58125 55.82842 33.659374 55.812794Q33.753124 55.79717 33.89375 55.79717Q34.01875 55.79717 34.096874 55.812794Q34.190624 55.82842 34.2375 55.85967Q34.284374 55.875294 34.3 55.906544Q34.315624 55.937794 34.315624 55.98467L34.315624 56.750294Q34.534374 56.437794 34.721874 56.23467Q34.925 56.031544 35.08125 55.92217Q35.253124 55.812794 35.425 55.76592Q35.596874 55.719044 35.76875 55.719044Q35.83125 55.719044 35.925 55.73467Q36.034374 55.73467 36.128124 55.76592Q36.2375 55.781544 36.315624 55.812794Q36.409374 55.844044 36.440624 55.875294Q36.4875 55.906544 36.4875 55.937794Q36.503124 55.95342 36.503124 56.000294Q36.51875 56.031544 36.51875 56.125294Q36.534374 56.20342 36.534374 56.32842ZM40.190624 60.875294Q40.190624 61.04717 40.159374 61.14092Q40.14375 61.23467 40.096874 61.281544Q40.05 61.32842 39.95625 61.375294Q39.8625 61.42217 39.7375 61.437794Q39.628124 61.469044 39.4875 61.48467Q39.346874 61.500294 39.221874 61.500294Q38.8 61.500294 38.503124 61.39092Q38.221874 61.281544 38.034374 61.062794Q37.846874 60.844044 37.753124 60.51592Q37.675 60.17217 37.675 59.719044L37.675 56.64092L36.940624 56.64092Q36.846874 56.64092 36.784374 56.54717Q36.7375 56.45342 36.7375 56.23467Q36.7375 56.125294 36.753124 56.04717Q36.76875 55.969044 36.784374 55.92217Q36.815624 55.875294 36.846874 55.85967Q36.89375 55.82842 36.940624 55.82842L37.675 55.82842L37.675 54.57842Q37.675 54.531544 37.690624 54.500294Q37.721874 54.469044 37.76875 54.45342Q37.83125 54.42217 37.925 54.406544Q38.01875 54.39092 38.159374 54.39092Q38.3 54.39092 38.39375 54.406544Q38.4875 54.42217 38.534374 54.45342Q38.596874 54.469044 38.6125 54.500294Q38.64375 54.531544 38.64375 54.57842L38.64375 55.82842L40.003124 55.82842Q40.05 55.82842 40.08125 55.85967Q40.1125 55.875294 40.128124 55.92217Q40.159374 55.969044 40.175 56.04717Q40.190624 56.125294 40.190624 56.23467Q40.190624 56.45342 40.128124 56.54717Q40.08125 56.64092 40.003124 56.64092L38.64375 56.64092L38.64375 59.57842Q38.64375 60.125294 38.8 60.406544Q38.971874 60.67217 39.378124 60.67217Q39.51875 60.67217 39.6125 60.656544Q39.721874 60.625294 39.8 60.594044Q39.89375 60.562794 39.940624 60.54717Q40.003124 60.51592 40.05 60.51592Q40.08125 60.51592 40.1125 60.531544Q40.14375 60.54717 40.14375 60.594044Q40.159374 60.625294 40.175 60.70342Q40.190624 60.76592 40.190624 60.875294ZM45.9875 61.26592Q45.9875 61.312794 45.95625 61.344044Q45.940624 61.375294 45.878124 61.406544Q45.83125 61.42217 45.7375 61.42217Q45.64375 61.437794 45.503124 61.437794Q45.3625 61.437794 45.26875 61.42217Q45.175 61.42217 45.1125 61.406544Q45.065624 61.375294 45.034374 61.344044Q45.01875 61.312794 45.01875 61.26592L45.01875 58.17217Q45.01875 57.719044 44.940624 57.45342Q44.878124 57.17217 44.7375 56.969044Q44.6125 56.76592 44.39375 56.67217Q44.190624 56.562794 43.909374 56.562794Q43.534374 56.562794 43.175 56.82842Q42.815624 57.07842 42.409374 57.57842L42.409374 61.26592Q42.409374 61.312794 42.378124 61.344044Q42.3625 61.375294 42.315624 61.406544Q42.26875 61.42217 42.175 61.42217Q42.08125 61.437794 41.925 61.437794Q41.784374 61.437794 41.690624 61.42217Q41.596874 61.42217 41.534374 61.406544Q41.4875 61.375294 41.45625 61.344044Q41.440624 61.312794 41.440624 61.26592L41.440624 53.437794Q41.440624 53.39092 41.45625 53.35967Q41.4875 53.312794 41.534374 53.29717Q41.596874 53.26592 41.690624 53.26592Q41.784374 53.250294 41.925 53.250294Q42.08125 53.250294 42.175 53.26592Q42.26875 53.26592 42.315624 53.29717Q42.3625 53.312794 42.378124 53.35967Q42.409374 53.39092 42.409374 53.437794L42.409374 56.594044Q42.83125 56.156544 43.253124 55.937794Q43.675 55.719044 44.096874 55.719044Q44.628124 55.719044 44.9875 55.906544Q45.346874 56.07842 45.565624 56.375294Q45.8 56.67217 45.89375 57.07842Q45.9875 57.48467 45.9875 58.04717L45.9875 61.26592ZM56.2375 61.04717Q56.284374 61.17217 56.284374 61.250294Q56.284374 61.32842 56.2375 61.375294Q56.190624 61.42217 56.08125 61.42217Q55.971874 61.437794 55.8 61.437794Q55.6125 61.437794 55.503124 61.42217Q55.39375 61.42217 55.33125 61.406544Q55.284374 61.375294 55.253124 61.344044Q55.2375 61.312794 55.20625 61.26592L54.565624 59.406544L51.409374 59.406544L50.784374 61.23467Q50.76875 61.281544 50.7375 61.32842Q50.70625 61.35967 50.64375 61.39092Q50.596874 61.42217 50.4875 61.42217Q50.39375 61.437794 50.2375 61.437794Q50.065624 61.437794 49.95625 61.42217Q49.846874 61.406544 49.8 61.375294Q49.753124 61.32842 49.753124 61.250294Q49.76875 61.17217 49.815624 61.04717L52.346874 54.000294Q52.378124 53.937794 52.409374 53.906544Q52.45625 53.85967 52.51875 53.844044Q52.596874 53.812794 52.70625 53.79717Q52.83125 53.781544 53.003124 53.781544Q53.190624 53.781544 53.315624 53.79717Q53.440624 53.812794 53.503124 53.844044Q53.58125 53.85967 53.628124 53.906544Q53.675 53.937794 53.690624 54.000294L56.2375 61.04717ZM52.971874 54.82842L52.971874 54.82842L51.659374 58.60967L54.3 58.60967L52.971874 54.82842ZM65.26875 61.26592Q65.26875 61.312794 65.2375 61.344044Q65.22188 61.375294 65.15938 61.406544Q65.1125 61.42217 65.01875 61.42217Q64.925 61.437794 64.78438 61.437794Q64.64375 61.437794 64.55 61.42217Q64.45625 61.42217 64.39375 61.406544Q64.34688 61.375294 64.31563 61.344044Q64.3 61.312794 64.3 61.26592L64.3 58.04717Q64.3 57.719044 64.2375 57.45342Q64.175 57.17217 64.05 56.969044Q63.925 56.76592 63.721874 56.67217Q63.51875 56.562794 63.253124 56.562794Q62.925 56.562794 62.58125 56.82842Q62.253124 57.07842 61.846874 57.57842L61.846874 61.26592Q61.846874 61.312794 61.815624 61.344044Q61.8 61.375294 61.7375 61.406544Q61.690624 61.42217 61.596874 61.42217Q61.503124 61.437794 61.3625 61.437794Q61.221874 61.437794 61.128124 61.42217Q61.034374 61.42217 60.971874 61.406544Q60.909374 61.375294 60.89375 61.344044Q60.878124 61.312794 60.878124 61.26592L60.878124 58.04717Q60.878124 57.719044 60.815624 57.45342Q60.753124 57.17217 60.6125 56.969044Q60.4875 56.76592 60.284374 56.67217Q60.096874 56.562794 59.83125 56.562794Q59.4875 56.562794 59.14375 56.82842Q58.815624 57.07842 58.409374 57.57842L58.409374 61.26592Q58.409374 61.312794 58.378124 61.344044Q58.3625 61.375294 58.315624 61.406544Q58.26875 61.42217 58.175 61.42217Q58.08125 61.437794 57.925 61.437794Q57.784374 61.437794 57.690624 61.42217Q57.596874 61.42217 57.534374 61.406544Q57.4875 61.375294 57.45625 61.344044Q57.440624 61.312794 57.440624 61.26592L57.440624 55.98467Q57.440624 55.937794 57.45625 55.906544Q57.4875 55.875294 57.534374 55.85967Q57.58125 55.82842 57.659374 55.812794Q57.753124 55.79717 57.89375 55.79717Q58.01875 55.79717 58.096874 55.812794Q58.190624 55.82842 58.2375 55.85967Q58.284374 55.875294 58.3 55.906544Q58.315624 55.937794 58.315624 55.98467L58.315624 56.687794Q58.76875 56.187794 59.175 55.95342Q59.596874 55.719044 60.034374 55.719044Q60.3625 55.719044 60.6125 55.79717Q60.878124 55.875294 61.08125 56.01592Q61.284374 56.156544 61.425 56.344044Q61.565624 56.531544 61.659374 56.76592Q61.925 56.48467 62.159374 56.281544Q62.39375 56.07842 62.6125 55.95342Q62.83125 55.82842 63.034374 55.781544Q63.253124 55.719044 63.45625 55.719044Q63.971874 55.719044 64.31563 55.906544Q64.65938 56.07842 64.8625 56.375294Q65.08125 56.67217 65.175 57.07842Q65.26875 57.48467 65.26875 57.92217L65.26875 61.26592ZM71.94063 58.39092Q71.94063 58.625294 71.83125 58.719044Q71.72188 58.812794 71.56563 58.812794L68.1125 58.812794Q68.1125 59.250294 68.19063 59.60967Q68.28438 59.95342 68.4875 60.219044Q68.70625 60.469044 69.03438 60.60967Q69.3625 60.73467 69.83125 60.73467Q70.20625 60.73467 70.50313 60.67217Q70.8 60.60967 71.00313 60.531544Q71.22188 60.45342 71.3625 60.39092Q71.50313 60.32842 71.56563 60.32842Q71.6125 60.32842 71.64375 60.35967Q71.675 60.375294 71.69063 60.42217Q71.70625 60.45342 71.70625 60.531544Q71.72188 60.60967 71.72188 60.70342Q71.72188 60.781544 71.70625 60.844044Q71.70625 60.89092 71.69063 60.937794Q71.69063 60.98467 71.675 61.01592Q71.65938 61.04717 71.62813 61.094044Q71.59688 61.125294 71.425 61.20342Q71.26875 61.26592 71.01875 61.344044Q70.76875 61.406544 70.44063 61.45342Q70.1125 61.51592 69.7375 61.51592Q69.08125 61.51592 68.58125 61.344044Q68.09688 61.156544 67.76875 60.79717Q67.44063 60.437794 67.26875 59.906544Q67.09688 59.35967 67.09688 58.64092Q67.09688 57.969044 67.26875 57.42217Q67.44063 56.875294 67.76875 56.500294Q68.1125 56.125294 68.58125 55.92217Q69.05 55.719044 69.62813 55.719044Q70.25313 55.719044 70.69063 55.92217Q71.12813 56.125294 71.40938 56.469044Q71.69063 56.79717 71.81563 57.250294Q71.94063 57.70342 71.94063 58.219044L71.94063 58.39092ZM70.97188 58.10967Q70.9875 57.344044 70.62813 56.92217Q70.28438 56.48467 69.58125 56.48467Q69.22188 56.48467 68.95625 56.625294Q68.69063 56.750294 68.50313 56.969044Q68.33125 57.187794 68.22188 57.48467Q68.12813 57.781544 68.1125 58.10967L70.97188 58.10967ZM76.53438 56.32842Q76.53438 56.45342 76.51875 56.54717Q76.51875 56.64092 76.50313 56.687794Q76.4875 56.73467 76.45625 56.76592Q76.425 56.781544 76.37813 56.781544Q76.33125 56.781544 76.26875 56.76592Q76.20625 56.73467 76.1125 56.719044Q76.03438 56.687794 75.925 56.67217Q75.81563 56.64092 75.69063 56.64092Q75.55 56.64092 75.40938 56.70342Q75.26875 56.750294 75.1125 56.89092Q74.95625 57.01592 74.78438 57.250294Q74.6125 57.469044 74.40938 57.79717L74.40938 61.26592Q74.40938 61.312794 74.37813 61.344044Q74.3625 61.375294 74.31563 61.406544Q74.26875 61.42217 74.175 61.42217Q74.08125 61.437794 73.925 61.437794Q73.78438 61.437794 73.69063 61.42217Q73.59688 61.42217 73.53438 61.406544Q73.4875 61.375294 73.45625 61.344044Q73.44063 61.312794 73.44063 61.26592L73.44063 55.98467Q73.44063 55.937794 73.45625 55.906544Q73.4875 55.875294 73.53438 55.85967Q73.58125 55.82842 73.65938 55.812794Q73.75313 55.79717 73.89375 55.79717Q74.01875 55.79717 74.09688 55.812794Q74.19063 55.82842 74.2375 55.85967Q74.28438 55.875294 74.3 55.906544Q74.31563 55.937794 74.31563 55.98467L74.31563 56.750294Q74.53438 56.437794 74.72188 56.23467Q74.925 56.031544 75.08125 55.92217Q75.25313 55.812794 75.425 55.76592Q75.59688 55.719044 75.76875 55.719044Q75.83125 55.719044 75.925 55.73467Q76.03438 55.73467 76.12813 55.76592Q76.2375 55.781544 76.31563 55.812794Q76.40938 55.844044 76.44063 55.875294Q76.4875 55.906544 76.4875 55.937794Q76.50313 55.95342 76.50313 56.000294Q76.51875 56.031544 76.51875 56.125294Q76.53438 56.20342 76.53438 56.32842ZM78.40938 61.26592Q78.40938 61.312794 78.37813 61.344044Q78.3625 61.375294 78.31563 61.406544Q78.26875 61.42217 78.175 61.42217Q78.08125 61.437794 77.925 61.437794Q77.78438 61.437794 77.69063 61.42217Q77.59688 61.42217 77.53438 61.406544Q77.4875 61.375294 77.45625 61.344044Q77.44063 61.312794 77.44063 61.26592L77.44063 55.98467Q77.44063 55.937794 77.45625 55.906544Q77.4875 55.875294 77.53438 55.85967Q77.59688 55.82842 77.69063 55.812794Q77.78438 55.79717 77.925 55.79717Q78.08125 55.79717 78.175 55.812794Q78.26875 55.82842 78.31563 55.85967Q78.3625 55.875294 78.37813 55.906544Q78.40938 55.937794 78.40938 55.98467L78.40938 61.26592ZM78.51875 54.20342Q78.51875 54.54717 78.39375 54.67217Q78.26875 54.79717 77.925 54.79717Q77.58125 54.79717 77.45625 54.67217Q77.33125 54.54717 77.33125 54.219044Q77.33125 53.875294 77.45625 53.750294Q77.58125 53.625294 77.94063 53.625294Q78.26875 53.625294 78.39375 53.750294Q78.51875 53.875294 78.51875 54.20342ZM84.2375 60.45342Q84.2375 60.562794 84.22188 60.64092Q84.22188 60.70342 84.20625 60.750294Q84.19063 60.79717 84.175 60.844044Q84.15938 60.875294 84.08125 60.95342Q84.00313 61.031544 83.83125 61.14092Q83.65938 61.23467 83.44063 61.32842Q83.22188 61.406544 82.95625 61.45342Q82.70625 61.51592 82.425 61.51592Q81.8625 61.51592 81.425 61.32842Q80.9875 61.14092 80.69063 60.781544Q80.39375 60.42217 80.2375 59.906544Q80.08125 59.375294 80.08125 58.687794Q80.08125 57.906544 80.26875 57.344044Q80.45625 56.781544 80.78438 56.437794Q81.12813 56.07842 81.56563 55.906544Q82.01875 55.73467 82.53438 55.73467Q82.78438 55.73467 83.01875 55.781544Q83.26875 55.82842 83.45625 55.906544Q83.65938 55.969044 83.81563 56.07842Q83.97188 56.17217 84.03438 56.250294Q84.1125 56.312794 84.14375 56.35967Q84.175 56.39092 84.19063 56.45342Q84.20625 56.500294 84.20625 56.57842Q84.22188 56.64092 84.22188 56.750294Q84.22188 56.98467 84.15938 57.07842Q84.1125 57.156544 84.03438 57.156544Q83.94063 57.156544 83.83125 57.062794Q83.72188 56.969044 83.53438 56.85967Q83.3625 56.73467 83.1125 56.64092Q82.8625 56.54717 82.53438 56.54717Q81.83125 56.54717 81.45625 57.07842Q81.08125 57.60967 81.08125 58.64092Q81.08125 59.14092 81.175 59.531544Q81.28438 59.906544 81.47188 60.17217Q81.65938 60.42217 81.925 60.54717Q82.20625 60.67217 82.55 60.67217Q82.87813 60.67217 83.12813 60.57842Q83.39375 60.469044 83.56563 60.344044Q83.75313 60.219044 83.87813 60.125294Q84.00313 60.01592 84.08125 60.01592Q84.12813 60.01592 84.14375 60.04717Q84.175 60.062794 84.19063 60.125294Q84.22188 60.17217 84.22188 60.26592Q84.2375 60.344044 84.2375 60.45342ZM89.425 61.26592Q89.425 61.32842 89.37813 61.375294Q89.33125 61.406544 89.2375 61.42217Q89.15938 61.437794 89.00313 61.437794Q88.84688 61.437794 88.75313 61.42217Q88.675 61.406544 88.62813 61.375294Q88.58125 61.32842 88.58125 61.26592L88.58125 60.73467Q88.2375 61.10967 87.81563 61.312794Q87.39375 61.51592 86.925 61.51592Q86.50313 61.51592 86.15938 61.406544Q85.83125 61.29717 85.58125 61.094044Q85.34688 60.89092 85.22188 60.594044Q85.09688 60.29717 85.09688 59.906544Q85.09688 59.469044 85.26875 59.14092Q85.45625 58.812794 85.78438 58.594044Q86.12813 58.375294 86.6125 58.26592Q87.1125 58.156544 87.7375 58.156544L88.45625 58.156544L88.45625 57.750294Q88.45625 57.437794 88.39375 57.20342Q88.33125 56.969044 88.19063 56.82842Q88.05 56.67217 87.81563 56.594044Q87.58125 56.500294 87.25313 56.500294Q86.89375 56.500294 86.6125 56.594044Q86.33125 56.67217 86.1125 56.781544Q85.89375 56.875294 85.75313 56.969044Q85.6125 57.04717 85.53438 57.04717Q85.4875 57.04717 85.45625 57.031544Q85.425 57.000294 85.39375 56.95342Q85.37813 56.906544 85.3625 56.844044Q85.34688 56.76592 85.34688 56.67217Q85.34688 56.531544 85.3625 56.45342Q85.39375 56.35967 85.47188 56.281544Q85.55 56.20342 85.7375 56.10967Q85.94063 56.000294 86.19063 55.92217Q86.44063 55.82842 86.7375 55.781544Q87.03438 55.719044 87.34688 55.719044Q87.90938 55.719044 88.3 55.85967Q88.70625 55.98467 88.94063 56.23467Q89.19063 56.48467 89.3 56.85967Q89.425 57.219044 89.425 57.70342L89.425 61.26592ZM88.45625 58.85967L87.62813 58.85967Q87.2375 58.85967 86.94063 58.92217Q86.64375 58.98467 86.45625 59.125294Q86.26875 59.250294 86.175 59.437794Q86.08125 59.625294 86.08125 59.85967Q86.08125 60.281544 86.33125 60.531544Q86.59688 60.76592 87.06563 60.76592Q87.45625 60.76592 87.76875 60.57842Q88.09688 60.375294 88.45625 59.969044L88.45625 58.85967Z" fill-rule="nonzero"/><path fill="#000000" d="M61.784374 120.031395Q61.784374 120.14077 61.76875 120.218895Q61.753124 120.29702 61.721874 120.35952Q61.690624 120.406395 61.64375 120.437645Q61.6125 120.45327 61.565624 120.45327L57.940624 120.45327Q57.8 120.45327 57.675 120.35952Q57.565624 120.26577 57.565624 120.04702L57.565624 113.281395Q57.565624 113.04702 57.675 112.968895Q57.8 112.875145 57.940624 112.875145L61.534374 112.875145Q61.58125 112.875145 61.6125 112.906395Q61.659374 112.92202 61.675 112.968895Q61.70625 113.01577 61.721874 113.10952Q61.7375 113.187645 61.7375 113.29702Q61.7375 113.406395 61.721874 113.48452Q61.70625 113.562645 61.675 113.60952Q61.659374 113.656395 61.6125 113.687645Q61.58125 113.70327 61.534374 113.70327L58.565624 113.70327L58.565624 116.093895L61.1125 116.093895Q61.159374 116.093895 61.190624 116.125145Q61.2375 116.14077 61.253124 116.187645Q61.284374 116.23452 61.3 116.312645Q61.315624 116.39077 61.315624 116.51577Q61.315624 116.60952 61.3 116.687645Q61.284374 116.76577 61.253124 116.812645Q61.2375 116.85952 61.190624 116.89077Q61.159374 116.906395 61.1125 116.906395L58.565624 116.906395L58.565624 119.60952L61.565624 119.60952Q61.6125 119.60952 61.64375 119.64077Q61.690624 119.656395 61.721874 119.718895Q61.753124 119.76577 61.76875 119.843895Q61.784374 119.92202 61.784374 120.031395ZM67.97188 120.312645Q67.97188 120.35952 67.94063 120.39077Q67.925 120.42202 67.8625 120.45327Q67.81563 120.468895 67.72188 120.468895Q67.64375 120.48452 67.51875 120.48452Q67.39375 120.48452 67.3 120.468895Q67.22188 120.468895 67.175 120.45327Q67.12813 120.42202 67.09688 120.39077Q67.08125 120.35952 67.08125 120.312645L67.08125 119.60952Q66.62813 120.10952 66.19063 120.343895Q65.75313 120.562645 65.3 120.562645Q64.78438 120.562645 64.40938 120.39077Q64.05 120.218895 63.83125 119.92202Q63.6125 119.60952 63.51875 119.218895Q63.425 118.812645 63.425 118.23452L63.425 115.031395Q63.425 114.98452 63.440624 114.95327Q63.45625 114.92202 63.51875 114.906395Q63.58125 114.875145 63.675 114.85952Q63.76875 114.843895 63.909374 114.843895Q64.05 114.843895 64.14375 114.85952Q64.2375 114.875145 64.28438 114.906395Q64.34688 114.92202 64.3625 114.95327Q64.39375 114.98452 64.39375 115.031395L64.39375 118.10952Q64.39375 118.562645 64.45625 118.843895Q64.51875 119.125145 64.65938 119.32827Q64.8 119.51577 65.00313 119.625145Q65.22188 119.73452 65.50313 119.73452Q65.8625 119.73452 66.22188 119.48452Q66.58125 119.218895 66.9875 118.718895L66.9875 115.031395Q66.9875 114.98452 67.00313 114.95327Q67.03438 114.92202 67.08125 114.906395Q67.14375 114.875145 67.2375 114.85952Q67.33125 114.843895 67.47188 114.843895Q67.6125 114.843895 67.70625 114.85952Q67.8 114.875145 67.84688 114.906395Q67.90938 114.92202 67.94063 114.95327Q67.97188 114.98452 67.97188 115.031395L67.97188 120.312645ZM72.53438 115.375145Q72.53438 115.500145 72.51875 115.593895Q72.51875 115.687645 72.50313 115.73452Q72.4875 115.781395 72.45625 115.812645Q72.425 115.82827 72.37813 115.82827Q72.33125 115.82827 72.26875 115.812645Q72.20625 115.781395 72.1125 115.76577Q72.03438 115.73452 71.925 115.718895Q71.81563 115.687645 71.69063 115.687645Q71.55 115.687645 71.40938 115.750145Q71.26875 115.79702 71.1125 115.937645Q70.95625 116.062645 70.78438 116.29702Q70.6125 116.51577 70.40938 116.843895L70.40938 120.312645Q70.40938 120.35952 70.37813 120.39077Q70.3625 120.42202 70.31563 120.45327Q70.26875 120.468895 70.175 120.468895Q70.08125 120.48452 69.925 120.48452Q69.78438 120.48452 69.69063 120.468895Q69.59688 120.468895 69.53438 120.45327Q69.4875 120.42202 69.45625 120.39077Q69.44063 120.35952 69.44063 120.312645L69.44063 115.031395Q69.44063 114.98452 69.45625 114.95327Q69.4875 114.92202 69.53438 114.906395Q69.58125 114.875145 69.65938 114.85952Q69.75313 114.843895 69.89375 114.843895Q70.01875 114.843895 70.09688 114.85952Q70.19063 114.875145 70.2375 114.906395Q70.28438 114.92202 70.3 114.95327Q70.31563 114.98452 70.31563 115.031395L70.31563 115.79702Q70.53438 115.48452 70.72188 115.281395Q70.925 115.07827 71.08125 114.968895Q71.25313 114.85952 71.425 114.812645Q71.59688 114.76577 71.76875 114.76577Q71.83125 114.76577 71.925 114.781395Q72.03438 114.781395 72.12813 114.812645Q72.2375 114.82827 72.31563 114.85952Q72.40938 114.89077 72.44063 114.92202Q72.4875 114.95327 72.4875 114.98452Q72.50313 115.000145 72.50313 115.04702Q72.51875 115.07827 72.51875 115.17202Q72.53438 115.250145 72.53438 115.375145ZM78.34688 117.60952Q78.34688 118.250145 78.175 118.79702Q78.01875 119.343895 77.675 119.73452Q77.33125 120.125145 76.83125 120.343895Q76.33125 120.562645 75.65938 120.562645Q75.00313 120.562645 74.51875 120.375145Q74.03438 120.17202 73.70625 119.812645Q73.39375 119.437645 73.2375 118.92202Q73.08125 118.39077 73.08125 117.718895Q73.08125 117.07827 73.2375 116.531395Q73.40938 115.98452 73.7375 115.593895Q74.08125 115.20327 74.58125 114.98452Q75.09688 114.76577 75.76875 114.76577Q76.425 114.76577 76.89375 114.968895Q77.37813 115.156395 77.70625 115.531395Q78.03438 115.89077 78.19063 116.42202Q78.34688 116.95327 78.34688 117.60952ZM77.33125 117.67202Q77.33125 117.250145 77.25313 116.875145Q77.175 116.48452 76.9875 116.20327Q76.81563 115.906395 76.50313 115.750145Q76.19063 115.57827 75.72188 115.57827Q75.3 115.57827 74.9875 115.73452Q74.69063 115.875145 74.4875 116.156395Q74.28438 116.437645 74.19063 116.82827Q74.09688 117.20327 74.09688 117.656395Q74.09688 118.07827 74.175 118.468895Q74.25313 118.843895 74.425 119.14077Q74.6125 119.42202 74.925 119.593895Q75.2375 119.750145 75.70625 119.750145Q76.12813 119.750145 76.44063 119.593895Q76.75313 119.437645 76.94063 119.17202Q77.14375 118.89077 77.2375 118.51577Q77.33125 118.125145 77.33125 117.67202ZM84.3 117.593895Q84.3 118.281395 84.14375 118.82827Q84.00313 119.375145 83.70625 119.76577Q83.425 120.14077 82.9875 120.35952Q82.56563 120.562645 82.01875 120.562645Q81.78438 120.562645 81.58125 120.51577Q81.37813 120.468895 81.19063 120.375145Q81.00313 120.26577 80.81563 120.125145Q80.62813 119.968895 80.40938 119.76577L80.40938 122.406395Q80.40938 122.45327 80.37813 122.48452Q80.3625 122.51577 80.31563 122.531395Q80.26875 122.562645 80.175 122.57827Q80.08125 122.593895 79.925 122.593895Q79.78438 122.593895 79.69063 122.57827Q79.59688 122.562645 79.53438 122.531395Q79.4875 122.51577 79.45625 122.48452Q79.44063 122.45327 79.44063 122.406395L79.44063 115.031395Q79.44063 114.98452 79.45625 114.95327Q79.4875 114.92202 79.53438 114.906395Q79.58125 114.875145 79.65938 114.85952Q79.75313 114.843895 79.8625 114.843895Q79.9875 114.843895 80.06563 114.85952Q80.14375 114.875145 80.19063 114.906395Q80.25313 114.92202 80.26875 114.95327Q80.3 114.98452 80.3 115.031395L80.3 115.73452Q80.53438 115.500145 80.75313 115.312645Q80.9875 115.125145 81.20625 115.01577Q81.44063 114.89077 81.675 114.82827Q81.90938 114.76577 82.175 114.76577Q82.75313 114.76577 83.14375 115.000145Q83.55 115.218895 83.8 115.60952Q84.06563 115.98452 84.175 116.500145Q84.3 117.01577 84.3 117.593895ZM83.28438 117.70327Q83.28438 117.29702 83.22188 116.92202Q83.15938 116.531395 83.00313 116.250145Q82.8625 115.95327 82.59688 115.781395Q82.34688 115.593895 81.97188 115.593895Q81.78438 115.593895 81.59688 115.656395Q81.425 115.718895 81.2375 115.843895Q81.05 115.95327 80.84688 116.156395Q80.64375 116.343895 80.40938 116.625145L80.40938 118.73452Q80.81563 119.218895 81.175 119.48452Q81.53438 119.73452 81.925 119.73452Q82.28438 119.73452 82.53438 119.562645Q82.8 119.375145 82.95625 119.093895Q83.12813 118.79702 83.20625 118.437645Q83.28438 118.062645 83.28438 117.70327ZM89.425 120.312645Q89.425 120.375145 89.37813 120.42202Q89.33125 120.45327 89.2375 120.468895Q89.15938 120.48452 89.00313 120.48452Q88.84688 120.48452 88.75313 120.468895Q88.675 120.45327 88.62813 120.42202Q88.58125 120.375145 88.58125 120.312645L88.58125 119.781395Q88.2375 120.156395 87.81563 120.35952Q87.39375 120.562645 86.925 120.562645Q86.50313 120.562645 86.15938 120.45327Q85.83125 120.343895 85.58125 120.14077Q85.34688 119.937645 85.22188 119.64077Q85.09688 119.343895 85.09688 118.95327Q85.09688 118.51577 85.26875 118.187645Q85.45625 117.85952 85.78438 117.64077Q86.12813 117.42202 86.6125 117.312645Q87.1125 117.20327 87.7375 117.20327L88.45625 117.20327L88.45625 116.79702Q88.45625 116.48452 88.39375 116.250145Q88.33125 116.01577 88.19063 115.875145Q88.05 115.718895 87.81563 115.64077Q87.58125 115.54702 87.25313 115.54702Q86.89375 115.54702 86.6125 115.64077Q86.33125 115.718895 86.1125 115.82827Q85.89375 115.92202 85.75313 116.01577Q85.6125 116.093895 85.53438 116.093895Q85.4875 116.093895 85.45625 116.07827Q85.425 116.04702 85.39375 116.000145Q85.37813 115.95327 85.3625 115.89077Q85.34688 115.812645 85.34688 115.718895Q85.34688 115.57827 85.3625 115.500145Q85.39375 115.406395 85.47188 115.32827Q85.55 115.250145 85.7375 115.156395Q85.94063 115.04702 86.19063 114.968895Q86.44063 114.875145 86.7375 114.82827Q87.03438 114.76577 87.34688 114.76577Q87.90938 114.76577 88.3 114.906395Q88.70625 115.031395 88.94063 115.281395Q89.19063 115.531395 89.3 115.906395Q89.425 116.26577 89.425 116.750145L89.425 120.312645ZM88.45625 117.906395L87.62813 117.906395Q87.2375 117.906395 86.94063 117.968895Q86.64375 118.031395 86.45625 118.17202Q86.26875 118.29702 86.175 118.48452Q86.08125 118.67202 86.08125 118.906395Q86.08125 119.32827 86.33125 119.57827Q86.59688 119.812645 87.06563 119.812645Q87.45625 119.812645 87.76875 119.625145Q88.09688 119.42202 88.45625 119.01577L88.45625 117.906395Z" fill-rule="nonzero"/><path fill="#000000" d="M76.2375 179.14062Q76.28438 179.26562 76.28438 179.34375Q76.28438 179.42188 76.2375 179.46875Q76.19063 179.51562 76.08125 179.51562Q75.97188 179.53125 75.8 179.53125Q75.6125 179.53125 75.50313 179.51562Q75.39375 179.51562 75.33125 179.5Q75.28438 179.46875 75.25313 179.4375Q75.2375 179.40625 75.20625 179.35938L74.56563 177.5L71.40938 177.5L70.78438 179.32812Q70.76875 179.375 70.7375 179.42188Q70.70625 179.45312 70.64375 179.48438Q70.59688 179.51562 70.4875 179.51562Q70.39375 179.53125 70.2375 179.53125Q70.06563 179.53125 69.95625 179.51562Q69.84688 179.5 69.8 179.46875Q69.75313 179.42188 69.75313 179.34375Q69.76875 179.26562 69.81563 179.14062L72.34688 172.09375Q72.37813 172.03125 72.40938 172.0Q72.45625 171.95312 72.51875 171.9375Q72.59688 171.90625 72.70625 171.89062Q72.83125 171.875 73.00313 171.875Q73.19063 171.875 73.31563 171.89062Q73.44063 171.90625 73.50313 171.9375Q73.58125 171.95312 73.62813 172.0Q73.675 172.03125 73.69063 172.09375L76.2375 179.14062ZM72.97188 172.92188L72.97188 172.92188L71.65938 176.70312L74.3 176.70312L72.97188 172.92188ZM80.75313 177.92188Q80.75313 178.32812 80.59688 178.64062Q80.45625 178.95312 80.175 179.17188Q79.90938 179.39062 79.51875 179.5Q79.14375 179.60938 78.69063 179.60938Q78.40938 179.60938 78.14375 179.5625Q77.89375 179.53125 77.69063 179.46875Q77.4875 179.39062 77.34688 179.3125Q77.20625 179.23438 77.14375 179.1875Q77.08125 179.125 77.05 179.01562Q77.01875 178.90625 77.01875 178.73438Q77.01875 178.625 77.03438 178.54688Q77.05 178.46875 77.06563 178.42188Q77.08125 178.375 77.1125 178.35938Q77.14375 178.32812 77.19063 178.32812Q77.25313 178.32812 77.37813 178.40625Q77.50313 178.48438 77.69063 178.57812Q77.87813 178.67188 78.12813 178.76562Q78.37813 178.84375 78.70625 178.84375Q78.95625 178.84375 79.14375 178.79688Q79.34688 178.73438 79.4875 178.64062Q79.64375 178.53125 79.72188 178.375Q79.8 178.20312 79.8 178.0Q79.8 177.76562 79.69063 177.625Q79.58125 177.46875 79.39375 177.35938Q79.20625 177.23438 78.97188 177.14062Q78.7375 177.04688 78.4875 176.95312Q78.2375 176.84375 77.9875 176.71875Q77.75313 176.59375 77.56563 176.42188Q77.37813 176.23438 77.26875 175.98438Q77.15938 175.73438 77.15938 175.375Q77.15938 175.0625 77.26875 174.78125Q77.39375 174.5 77.62813 174.29688Q77.87813 174.07812 78.2375 173.95312Q78.59688 173.8125 79.08125 173.8125Q79.28438 173.8125 79.4875 173.85938Q79.70625 173.89062 79.87813 173.9375Q80.05 173.98438 80.15938 174.04688Q80.28438 174.10938 80.34688 174.15625Q80.40938 174.20312 80.425 174.25Q80.45625 174.28125 80.45625 174.32812Q80.47188 174.35938 80.47188 174.4375Q80.4875 174.5 80.4875 174.59375Q80.4875 174.6875 80.47188 174.76562Q80.47188 174.82812 80.44063 174.875Q80.425 174.92188 80.39375 174.95312Q80.37813 174.96875 80.33125 174.96875Q80.28438 174.96875 80.175 174.90625Q80.08125 174.84375 79.925 174.76562Q79.76875 174.6875 79.55 174.625Q79.34688 174.5625 79.06563 174.5625Q78.81563 174.5625 78.62813 174.625Q78.44063 174.67188 78.31563 174.78125Q78.20625 174.875 78.14375 175.01562Q78.08125 175.15625 78.08125 175.32812Q78.08125 175.5625 78.19063 175.71875Q78.31563 175.85938 78.50313 175.98438Q78.69063 176.09375 78.925 176.1875Q79.175 176.28125 79.425 176.39062Q79.675 176.48438 79.90938 176.60938Q80.15938 176.73438 80.34688 176.90625Q80.53438 177.07812 80.64375 177.32812Q80.75313 177.57812 80.75313 177.92188ZM83.40938 179.35938Q83.40938 179.40625 83.37813 179.4375Q83.3625 179.46875 83.31563 179.5Q83.26875 179.51562 83.175 179.51562Q83.08125 179.53125 82.925 179.53125Q82.78438 179.53125 82.69063 179.51562Q82.59688 179.51562 82.53438 179.5Q82.4875 179.46875 82.45625 179.4375Q82.44063 179.40625 82.44063 179.35938L82.44063 174.07812Q82.44063 174.03125 82.45625 174.0Q82.4875 173.96875 82.53438 173.95312Q82.59688 173.92188 82.69063 173.90625Q82.78438 173.89062 82.925 173.89062Q83.08125 173.89062 83.175 173.90625Q83.26875 173.92188 83.31563 173.95312Q83.3625 173.96875 83.37813 174.0Q83.40938 174.03125 83.40938 174.07812L83.40938 179.35938ZM83.51875 172.29688Q83.51875 172.64062 83.39375 172.76562Q83.26875 172.89062 82.925 172.89062Q82.58125 172.89062 82.45625 172.76562Q82.33125 172.64062 82.33125 172.3125Q82.33125 171.96875 82.45625 171.84375Q82.58125 171.71875 82.94063 171.71875Q83.26875 171.71875 83.39375 171.84375Q83.51875 171.96875 83.51875 172.29688ZM89.425 179.35938Q89.425 179.42188 89.37813 179.46875Q89.33125 179.5 89.2375 179.51562Q89.15938 179.53125 89.00313 179.53125Q88.84688 179.53125 88.75313 179.51562Q88.675 179.5 88.62813 179.46875Q88.58125 179.42188 88.58125 179.35938L88.58125 178.82812Q88.2375 179.20312 87.81563 179.40625Q87.39375 179.60938 86.925 179.60938Q86.50313 179.60938 86.15938 179.5Q85.83125 179.39062 85.58125 179.1875Q85.34688 178.98438 85.22188 178.6875Q85.09688 178.39062 85.09688 178.0Q85.09688 177.5625 85.26875 177.23438Q85.45625 176.90625 85.78438 176.6875Q86.12813 176.46875 86.6125 176.35938Q87.1125 176.25 87.7375 176.25L88.45625 176.25L88.45625 175.84375Q88.45625 175.53125 88.39375 175.29688Q88.33125 175.0625 88.19063 174.92188Q88.05 174.76562 87.81563 174.6875Q87.58125 174.59375 87.25313 174.59375Q86.89375 174.59375 86.6125 174.6875Q86.33125 174.76562 86.1125 174.875Q85.89375 174.96875 85.75313 175.0625Q85.6125 175.14062 85.53438 175.14062Q85.4875 175.14062 85.45625 175.125Q85.425 175.09375 85.39375 175.04688Q85.37813 175.0 85.3625 174.9375Q85.34688 174.85938 85.34688 174.76562Q85.34688 174.625 85.3625 174.54688Q85.39375 174.45312 85.47188 174.375Q85.55 174.29688 85.7375 174.20312Q85.94063 174.09375 86.19063 174.01562Q86.44063 173.92188 86.7375 173.875Q87.03438 173.8125 87.34688 173.8125Q87.90938 173.8125 88.3 173.95312Q88.70625 174.07812 88.94063 174.32812Q89.19063 174.57812 89.3 174.95312Q89.425 175.3125 89.425 175.79688L89.425 179.35938ZM88.45625 176.95312L87.62813 176.95312Q87.2375 176.95312 86.94063 177.01562Q86.64375 177.07812 86.45625 177.21875Q86.26875 177.34375 86.175 177.53125Q86.08125 177.71875 86.08125 177.95312Q86.08125 178.375 86.33125 178.625Q86.59688 178.85938 87.06563 178.85938Q87.45625 178.85938 87.76875 178.67188Q88.09688 178.46875 88.45625 178.0625L88.45625 176.95312Z" fill-rule="nonzero"/><path fill="#000000" d="M23.628124 236.42172Q23.628124 236.95297 23.425 237.37485Q23.2375 237.7811 22.878124 238.07797Q22.534374 238.35922 22.065624 238.51547Q21.596874 238.6561 21.05 238.6561Q20.675 238.6561 20.346874 238.5936Q20.01875 238.5311 19.76875 238.43735Q19.51875 238.3436 19.33125 238.24985Q19.159374 238.14047 19.096874 238.07797Q19.034374 237.99985 19.003124 237.89047Q18.971874 237.7811 18.971874 237.60922Q18.971874 237.4686 18.971874 237.39047Q18.9875 237.29672 19.003124 237.24985Q19.034374 237.20297 19.065624 237.18735Q19.1125 237.1561 19.159374 237.1561Q19.2375 237.1561 19.378124 237.26547Q19.534374 237.35922 19.76875 237.48422Q20.003124 237.5936 20.33125 237.70297Q20.659374 237.79672 21.096874 237.79672Q21.425 237.79672 21.690624 237.7186Q21.971874 237.62485 22.159374 237.4686Q22.3625 237.29672 22.471874 237.06235Q22.58125 236.82797 22.58125 236.5311Q22.58125 236.20297 22.425 235.98422Q22.284374 235.74985 22.034374 235.57797Q21.8 235.4061 21.4875 235.26547Q21.190624 235.12485 20.8625 234.9686Q20.55 234.81235 20.2375 234.64047Q19.940624 234.45297 19.690624 234.2186Q19.45625 233.9686 19.3 233.64047Q19.159374 233.29672 19.159374 232.8436Q19.159374 232.35922 19.33125 231.99985Q19.503124 231.62485 19.8 231.37485Q20.1125 231.10922 20.534374 230.98422Q20.971874 230.85922 21.45625 230.85922Q21.70625 230.85922 21.95625 230.9061Q22.221874 230.93735 22.440624 231.01547Q22.675 231.0936 22.846874 231.18735Q23.01875 231.26547 23.065624 231.32797Q23.128124 231.37485 23.14375 231.4061Q23.175 231.43735 23.175 231.49985Q23.190624 231.54672 23.190624 231.62485Q23.20625 231.68735 23.20625 231.79672Q23.20625 231.9061 23.190624 231.98422Q23.190624 232.06235 23.159374 232.12485Q23.14375 232.17172 23.1125 232.20297Q23.08125 232.23422 23.05 232.23422Q22.9875 232.23422 22.846874 232.1561Q22.70625 232.06235 22.503124 231.9686Q22.3 231.85922 22.034374 231.7811Q21.76875 231.68735 21.425 231.68735Q21.1125 231.68735 20.878124 231.7811Q20.64375 231.85922 20.4875 231.99985Q20.33125 232.14047 20.253124 232.3436Q20.175 232.5311 20.175 232.74985Q20.175 233.06235 20.315624 233.29672Q20.471874 233.51547 20.70625 233.70297Q20.95625 233.87485 21.26875 234.01547Q21.58125 234.1561 21.89375 234.31235Q22.221874 234.4686 22.534374 234.64047Q22.846874 234.81235 23.08125 235.06235Q23.33125 235.31235 23.471874 235.64047Q23.628124 235.9686 23.628124 236.42172ZM30.346874 235.70297Q30.346874 236.3436 30.175 236.89047Q30.01875 237.43735 29.675 237.82797Q29.33125 238.2186 28.83125 238.43735Q28.33125 238.6561 27.659374 238.6561Q27.003124 238.6561 26.51875 238.4686Q26.034374 238.26547 25.70625 237.9061Q25.39375 237.5311 25.2375 237.01547Q25.08125 236.48422 25.08125 235.81235Q25.08125 235.17172 25.2375 234.62485Q25.409374 234.07797 25.7375 233.68735Q26.08125 233.29672 26.58125 233.07797Q27.096874 232.85922 27.76875 232.85922Q28.425 232.85922 28.89375 233.06235Q29.378124 233.24985 29.70625 233.62485Q30.034374 233.98422 30.190624 234.51547Q30.346874 235.04672 30.346874 235.70297ZM29.33125 235.76547Q29.33125 235.3436 29.253124 234.9686Q29.175 234.57797 28.9875 234.29672Q28.815624 233.99985 28.503124 233.8436Q28.190624 233.67172 27.721874 233.67172Q27.3 233.67172 26.9875 233.82797Q26.690624 233.9686 26.4875 234.24985Q26.284374 234.5311 26.190624 234.92172Q26.096874 235.29672 26.096874 235.74985Q26.096874 236.17172 26.175 236.56235Q26.253124 236.93735 26.425 237.23422Q26.6125 237.51547 26.925 237.68735Q27.2375 237.8436 27.70625 237.8436Q28.128124 237.8436 28.440624 237.68735Q28.753124 237.5311 28.940624 237.26547Q29.14375 236.98422 29.2375 236.60922Q29.33125 236.2186 29.33125 235.76547ZM35.971874 238.4061Q35.971874 238.45297 35.940624 238.48422Q35.925 238.51547 35.8625 238.54672Q35.815624 238.56235 35.721874 238.56235Q35.64375 238.57797 35.51875 238.57797Q35.39375 238.57797 35.3 238.56235Q35.221874 238.56235 35.175 238.54672Q35.128124 238.51547 35.096874 238.48422Q35.08125 238.45297 35.08125 238.4061L35.08125 237.70297Q34.628124 238.20297 34.190624 238.43735Q33.753124 238.6561 33.3 238.6561Q32.784374 238.6561 32.409374 238.48422Q32.05 238.31235 31.83125 238.01547Q31.6125 237.70297 31.51875 237.31235Q31.425 236.9061 31.425 236.32797L31.425 233.12485Q31.425 233.07797 31.440624 233.04672Q31.45625 233.01547 31.51875 232.99985Q31.58125 232.9686 31.675 232.95297Q31.76875 232.93735 31.909374 232.93735Q32.05 232.93735 32.14375 232.95297Q32.2375 232.9686 32.284374 232.99985Q32.346874 233.01547 32.3625 233.04672Q32.39375 233.07797 32.39375 233.12485L32.39375 236.20297Q32.39375 236.6561 32.45625 236.93735Q32.51875 237.2186 32.659374 237.42172Q32.8 237.60922 33.003124 237.7186Q33.221874 237.82797 33.503124 237.82797Q33.8625 237.82797 34.221874 237.57797Q34.58125 237.31235 34.9875 236.81235L34.9875 233.12485Q34.9875 233.07797 35.003124 233.04672Q35.034374 233.01547 35.08125 232.99985Q35.14375 232.9686 35.2375 232.95297Q35.33125 232.93735 35.471874 232.93735Q35.6125 232.93735 35.70625 232.95297Q35.8 232.9686 35.846874 232.99985Q35.909374 233.01547 35.940624 233.04672Q35.971874 233.07797 35.971874 233.12485L35.971874 238.4061ZM40.190624 238.01547Q40.190624 238.18735 40.159374 238.2811Q40.14375 238.37485 40.096874 238.42172Q40.05 238.4686 39.95625 238.51547Q39.8625 238.56235 39.7375 238.57797Q39.628124 238.60922 39.4875 238.62485Q39.346874 238.64047 39.221874 238.64047Q38.8 238.64047 38.503124 238.5311Q38.221874 238.42172 38.034374 238.20297Q37.846874 237.98422 37.753124 237.6561Q37.675 237.31235 37.675 236.85922L37.675 233.7811L36.940624 233.7811Q36.846874 233.7811 36.784374 233.68735Q36.7375 233.5936 36.7375 233.37485Q36.7375 233.26547 36.753124 233.18735Q36.76875 233.10922 36.784374 233.06235Q36.815624 233.01547 36.846874 232.99985Q36.89375 232.9686 36.940624 232.9686L37.675 232.9686L37.675 231.7186Q37.675 231.67172 37.690624 231.64047Q37.721874 231.60922 37.76875 231.5936Q37.83125 231.56235 37.925 231.54672Q38.01875 231.5311 38.159374 231.5311Q38.3 231.5311 38.39375 231.54672Q38.4875 231.56235 38.534374 231.5936Q38.596874 231.60922 38.6125 231.64047Q38.64375 231.67172 38.64375 231.7186L38.64375 232.9686L40.003124 232.9686Q40.05 232.9686 40.08125 232.99985Q40.1125 233.01547 40.128124 233.06235Q40.159374 233.10922 40.175 233.18735Q40.190624 233.26547 40.190624 233.37485Q40.190624 233.5936 40.128124 233.68735Q40.08125 233.7811 40.003124 233.7811L38.64375 233.7811L38.64375 236.7186Q38.64375 237.26547 38.8 237.54672Q38.971874 237.81235 39.378124 237.81235Q39.51875 237.81235 39.6125 237.79672Q39.721874 237.76547 39.8 237.73422Q39.89375 237.70297 39.940624 237.68735Q40.003124 237.6561 40.05 237.6561Q40.08125 237.6561 40.1125 237.67172Q40.14375 237.68735 40.14375 237.73422Q40.159374 237.76547 40.175 237.8436Q40.190624 237.9061 40.190624 238.01547ZM45.9875 238.4061Q45.9875 238.45297 45.95625 238.48422Q45.940624 238.51547 45.878124 238.54672Q45.83125 238.56235 45.7375 238.56235Q45.64375 238.57797 45.503124 238.57797Q45.3625 238.57797 45.26875 238.56235Q45.175 238.56235 45.1125 238.54672Q45.065624 238.51547 45.034374 238.48422Q45.01875 238.45297 45.01875 238.4061L45.01875 235.31235Q45.01875 234.85922 44.940624 234.5936Q44.878124 234.31235 44.7375 234.10922Q44.6125 233.9061 44.39375 233.81235Q44.190624 233.70297 43.909374 233.70297Q43.534374 233.70297 43.175 233.9686Q42.815624 234.2186 42.409374 234.7186L42.409374 238.4061Q42.409374 238.45297 42.378124 238.48422Q42.3625 238.51547 42.315624 238.54672Q42.26875 238.56235 42.175 238.56235Q42.08125 238.57797 41.925 238.57797Q41.784374 238.57797 41.690624 238.56235Q41.596874 238.56235 41.534374 238.54672Q41.4875 238.51547 41.45625 238.48422Q41.440624 238.45297 41.440624 238.4061L41.440624 230.57797Q41.440624 230.5311 41.45625 230.49985Q41.4875 230.45297 41.534374 230.43735Q41.596874 230.4061 41.690624 230.4061Q41.784374 230.39047 41.925 230.39047Q42.08125 230.39047 42.175 230.4061Q42.26875 230.4061 42.315624 230.43735Q42.3625 230.45297 42.378124 230.49985Q42.409374 230.5311 42.409374 230.57797L42.409374 233.73422Q42.83125 233.29672 43.253124 233.07797Q43.675 232.85922 44.096874 232.85922Q44.628124 232.85922 44.9875 233.04672Q45.346874 233.2186 45.565624 233.51547Q45.8 233.81235 45.89375 234.2186Q45.9875 234.62485 45.9875 235.18735L45.9875 238.4061ZM56.2375 238.18735Q56.284374 238.31235 56.284374 238.39047Q56.284374 238.4686 56.2375 238.51547Q56.190624 238.56235 56.08125 238.56235Q55.971874 238.57797 55.8 238.57797Q55.6125 238.57797 55.503124 238.56235Q55.39375 238.56235 55.33125 238.54672Q55.284374 238.51547 55.253124 238.48422Q55.2375 238.45297 55.20625 238.4061L54.565624 236.54672L51.409374 236.54672L50.784374 238.37485Q50.76875 238.42172 50.7375 238.4686Q50.70625 238.49985 50.64375 238.5311Q50.596874 238.56235 50.4875 238.56235Q50.39375 238.57797 50.2375 238.57797Q50.065624 238.57797 49.95625 238.56235Q49.846874 238.54672 49.8 238.51547Q49.753124 238.4686 49.753124 238.39047Q49.76875 238.31235 49.815624 238.18735L52.346874 231.14047Q52.378124 231.07797 52.409374 231.04672Q52.45625 230.99985 52.51875 230.98422Q52.596874 230.95297 52.70625 230.93735Q52.83125 230.92172 53.003124 230.92172Q53.190624 230.92172 53.315624 230.93735Q53.440624 230.95297 53.503124 230.98422Q53.58125 230.99985 53.628124 231.04672Q53.675 231.07797 53.690624 231.14047L56.2375 238.18735ZM52.971874 231.9686L52.971874 231.9686L51.659374 235.74985L54.3 235.74985L52.971874 231.9686ZM65.26875 238.4061Q65.26875 238.45297 65.2375 238.48422Q65.22188 238.51547 65.15938 238.54672Q65.1125 238.56235 65.01875 238.56235Q64.925 238.57797 64.78438 238.57797Q64.64375 238.57797 64.55 238.56235Q64.45625 238.56235 64.39375 238.54672Q64.34688 238.51547 64.31563 238.48422Q64.3 238.45297 64.3 238.4061L64.3 235.18735Q64.3 234.85922 64.2375 234.5936Q64.175 234.31235 64.05 234.10922Q63.925 233.9061 63.721874 233.81235Q63.51875 233.70297 63.253124 233.70297Q62.925 233.70297 62.58125 233.9686Q62.253124 234.2186 61.846874 234.7186L61.846874 238.4061Q61.846874 238.45297 61.815624 238.48422Q61.8 238.51547 61.7375 238.54672Q61.690624 238.56235 61.596874 238.56235Q61.503124 238.57797 61.3625 238.57797Q61.221874 238.57797 61.128124 238.56235Q61.034374 238.56235 60.971874 238.54672Q60.909374 238.51547 60.89375 238.48422Q60.878124 238.45297 60.878124 238.4061L60.878124 235.18735Q60.878124 234.85922 60.815624 234.5936Q60.753124 234.31235 60.6125 234.10922Q60.4875 233.9061 60.284374 233.81235Q60.096874 233.70297 59.83125 233.70297Q59.4875 233.70297 59.14375 233.9686Q58.815624 234.2186 58.409374 234.7186L58.409374 238.4061Q58.409374 238.45297 58.378124 238.48422Q58.3625 238.51547 58.315624 238.54672Q58.26875 238.56235 58.175 238.56235Q58.08125 238.57797 57.925 238.57797Q57.784374 238.57797 57.690624 238.56235Q57.596874 238.56235 57.534374 238.54672Q57.4875 238.51547 57.45625 238.48422Q57.440624 238.45297 57.440624 238.4061L57.440624 233.12485Q57.440624 233.07797 57.45625 233.04672Q57.4875 233.01547 57.534374 232.99985Q57.58125 232.9686 57.659374 232.95297Q57.753124 232.93735 57.89375 232.93735Q58.01875 232.93735 58.096874 232.95297Q58.190624 232.9686 58.2375 232.99985Q58.284374 233.01547 58.3 233.04672Q58.315624 233.07797 58.315624 233.12485L58.315624 233.82797Q58.76875 233.32797 59.175 233.0936Q59.596874 232.85922 60.034374 232.85922Q60.3625 232.85922 60.6125 232.93735Q60.878124 233.01547 61.08125 233.1561Q61.284374 233.29672 61.425 233.48422Q61.565624 233.67172 61.659374 233.9061Q61.925 233.62485 62.159374 233.42172Q62.39375 233.2186 62.6125 233.0936Q62.83125 232.9686 63.034374 232.92172Q63.253124 232.85922 63.45625 232.85922Q63.971874 232.85922 64.31563 233.04672Q64.65938 233.2186 64.8625 233.51547Q65.08125 233.81235 65.175 234.2186Q65.26875 234.62485 65.26875 235.06235L65.26875 238.4061ZM71.94063 235.5311Q71.94063 235.76547 71.83125 235.85922Q71.72188 235.95297 71.56563 235.95297L68.1125 235.95297Q68.1125 236.39047 68.19063 236.74985Q68.28438 237.0936 68.4875 237.35922Q68.70625 237.60922 69.03438 237.74985Q69.3625 237.87485 69.83125 237.87485Q70.20625 237.87485 70.50313 237.81235Q70.8 237.74985 71.00313 237.67172Q71.22188 237.5936 71.3625 237.5311Q71.50313 237.4686 71.56563 237.4686Q71.6125 237.4686 71.64375 237.49985Q71.675 237.51547 71.69063 237.56235Q71.70625 237.5936 71.70625 237.67172Q71.72188 237.74985 71.72188 237.8436Q71.72188 237.92172 71.70625 237.98422Q71.70625 238.0311 71.69063 238.07797Q71.69063 238.12485 71.675 238.1561Q71.65938 238.18735 71.62813 238.23422Q71.59688 238.26547 71.425 238.3436Q71.26875 238.4061 71.01875 238.48422Q70.76875 238.54672 70.44063 238.5936Q70.1125 238.6561 69.7375 238.6561Q69.08125 238.6561 68.58125 238.48422Q68.09688 238.29672 67.76875 237.93735Q67.44063 237.57797 67.26875 237.04672Q67.09688 236.49985 67.09688 235.7811Q67.09688 235.10922 67.26875 234.56235Q67.44063 234.01547 67.76875 233.64047Q68.1125 233.26547 68.58125 233.06235Q69.05 232.85922 69.62813 232.85922Q70.25313 232.85922 70.69063 233.06235Q71.12813 233.26547 71.40938 233.60922Q71.69063 233.93735 71.81563 234.39047Q71.94063 234.8436 71.94063 235.35922L71.94063 235.5311ZM70.97188 235.24985Q70.9875 234.48422 70.62813 234.06235Q70.28438 233.62485 69.58125 233.62485Q69.22188 233.62485 68.95625 233.76547Q68.69063 233.89047 68.50313 234.10922Q68.33125 234.32797 68.22188 234.62485Q68.12813 234.92172 68.1125 235.24985L70.97188 235.24985ZM76.53438 233.4686Q76.53438 233.5936 76.51875 233.68735Q76.51875 233.7811 76.50313 233.82797Q76.4875 233.87485 76.45625 233.9061Q76.425 233.92172 76.37813 233.92172Q76.33125 233.92172 76.26875 233.9061Q76.20625 233.87485 76.1125 233.85922Q76.03438 233.82797 75.925 233.81235Q75.81563 233.7811 75.69063 233.7811Q75.55 233.7811 75.40938 233.8436Q75.26875 233.89047 75.1125 234.0311Q74.95625 234.1561 74.78438 234.39047Q74.6125 234.60922 74.40938 234.93735L74.40938 238.4061Q74.40938 238.45297 74.37813 238.48422Q74.3625 238.51547 74.31563 238.54672Q74.26875 238.56235 74.175 238.56235Q74.08125 238.57797 73.925 238.57797Q73.78438 238.57797 73.69063 238.56235Q73.59688 238.56235 73.53438 238.54672Q73.4875 238.51547 73.45625 238.48422Q73.44063 238.45297 73.44063 238.4061L73.44063 233.12485Q73.44063 233.07797 73.45625 233.04672Q73.4875 233.01547 73.53438 232.99985Q73.58125 232.9686 73.65938 232.95297Q73.75313 232.93735 73.89375 232.93735Q74.01875 232.93735 74.09688 232.95297Q74.19063 232.9686 74.2375 232.99985Q74.28438 233.01547 74.3 233.04672Q74.31563 233.07797 74.31563 233.12485L74.31563 233.89047Q74.53438 233.57797 74.72188 233.37485Q74.925 233.17172 75.08125 233.06235Q75.25313 232.95297 75.425 232.9061Q75.59688 232.85922 75.76875 232.85922Q75.83125 232.85922 75.925 232.87485Q76.03438 232.87485 76.12813 232.9061Q76.2375 232.92172 76.31563 232.95297Q76.40938 232.98422 76.44063 233.01547Q76.4875 233.04672 76.4875 233.07797Q76.50313 233.0936 76.50313 233.14047Q76.51875 233.17172 76.51875 233.26547Q76.53438 233.3436 76.53438 233.4686ZM78.40938 238.4061Q78.40938 238.45297 78.37813 238.48422Q78.3625 238.51547 78.31563 238.54672Q78.26875 238.56235 78.175 238.56235Q78.08125 238.57797 77.925 238.57797Q77.78438 238.57797 77.69063 238.56235Q77.59688 238.56235 77.53438 238.54672Q77.4875 238.51547 77.45625 238.48422Q77.44063 238.45297 77.44063 238.4061L77.44063 233.12485Q77.44063 233.07797 77.45625 233.04672Q77.4875 233.01547 77.53438 232.99985Q77.59688 232.9686 77.69063 232.95297Q77.78438 232.93735 77.925 232.93735Q78.08125 232.93735 78.175 232.95297Q78.26875 232.9686 78.31563 232.99985Q78.3625 233.01547 78.37813 233.04672Q78.40938 233.07797 78.40938 233.12485L78.40938 238.4061ZM78.51875 231.3436Q78.51875 231.68735 78.39375 231.81235Q78.26875 231.93735 77.925 231.93735Q77.58125 231.93735 77.45625 231.81235Q77.33125 231.68735 77.33125 231.35922Q77.33125 231.01547 77.45625 230.89047Q77.58125 230.76547 77.94063 230.76547Q78.26875 230.76547 78.39375 230.89047Q78.51875 231.01547 78.51875 231.3436ZM84.2375 237.5936Q84.2375 237.70297 84.22188 237.7811Q84.22188 237.8436 84.20625 237.89047Q84.19063 237.93735 84.175 237.98422Q84.15938 238.01547 84.08125 238.0936Q84.00313 238.17172 83.83125 238.2811Q83.65938 238.37485 83.44063 238.4686Q83.22188 238.54672 82.95625 238.5936Q82.70625 238.6561 82.425 238.6561Q81.8625 238.6561 81.425 238.4686Q80.9875 238.2811 80.69063 237.92172Q80.39375 237.56235 80.2375 237.04672Q80.08125 236.51547 80.08125 235.82797Q80.08125 235.04672 80.26875 234.48422Q80.45625 233.92172 80.78438 233.57797Q81.12813 233.2186 81.56563 233.04672Q82.01875 232.87485 82.53438 232.87485Q82.78438 232.87485 83.01875 232.92172Q83.26875 232.9686 83.45625 233.04672Q83.65938 233.10922 83.81563 233.2186Q83.97188 233.31235 84.03438 233.39047Q84.1125 233.45297 84.14375 233.49985Q84.175 233.5311 84.19063 233.5936Q84.20625 233.64047 84.20625 233.7186Q84.22188 233.7811 84.22188 233.89047Q84.22188 234.12485 84.15938 234.2186Q84.1125 234.29672 84.03438 234.29672Q83.94063 234.29672 83.83125 234.20297Q83.72188 234.10922 83.53438 233.99985Q83.3625 233.87485 83.1125 233.7811Q82.8625 233.68735 82.53438 233.68735Q81.83125 233.68735 81.45625 234.2186Q81.08125 234.74985 81.08125 235.7811Q81.08125 236.2811 81.175 236.67172Q81.28438 237.04672 81.47188 237.31235Q81.65938 237.56235 81.925 237.68735Q82.20625 237.81235 82.55 237.81235Q82.87813 237.81235 83.12813 237.7186Q83.39375 237.60922 83.56563 237.48422Q83.75313 237.35922 83.87813 237.26547Q84.00313 237.1561 84.08125 237.1561Q84.12813 237.1561 84.14375 237.18735Q84.175 237.20297 84.19063 237.26547Q84.22188 237.31235 84.22188 237.4061Q84.2375 237.48422 84.2375 237.5936ZM89.425 238.4061Q89.425 238.4686 89.37813 238.51547Q89.33125 238.54672 89.2375 238.56235Q89.15938 238.57797 89.00313 238.57797Q88.84688 238.57797 88.75313 238.56235Q88.675 238.54672 88.62813 238.51547Q88.58125 238.4686 88.58125 238.4061L88.58125 237.87485Q88.2375 238.24985 87.81563 238.45297Q87.39375 238.6561 86.925 238.6561Q86.50313 238.6561 86.15938 238.54672Q85.83125 238.43735 85.58125 238.23422Q85.34688 238.0311 85.22188 237.73422Q85.09688 237.43735 85.09688 237.04672Q85.09688 236.60922 85.26875 236.2811Q85.45625 235.95297 85.78438 235.73422Q86.12813 235.51547 86.6125 235.4061Q87.1125 235.29672 87.7375 235.29672L88.45625 235.29672L88.45625 234.89047Q88.45625 234.57797 88.39375 234.3436Q88.33125 234.10922 88.19063 233.9686Q88.05 233.81235 87.81563 233.73422Q87.58125 233.64047 87.25313 233.64047Q86.89375 233.64047 86.6125 233.73422Q86.33125 233.81235 86.1125 233.92172Q85.89375 234.01547 85.75313 234.10922Q85.6125 234.18735 85.53438 234.18735Q85.4875 234.18735 85.45625 234.17172Q85.425 234.14047 85.39375 234.0936Q85.37813 234.04672 85.3625 233.98422Q85.34688 233.9061 85.34688 233.81235Q85.34688 233.67172 85.3625 233.5936Q85.39375 233.49985 85.47188 233.42172Q85.55 233.3436 85.7375 233.24985Q85.94063 233.14047 86.19063 233.06235Q86.44063 232.9686 86.7375 232.92172Q87.03438 232.85922 87.34688 232.85922Q87.90938 232.85922 88.3 232.99985Q88.70625 233.12485 88.94063 233.37485Q89.19063 233.62485 89.3 233.99985Q89.425 234.35922 89.425 234.8436L89.425 238.4061ZM88.45625 235.99985L87.62813 235.99985Q87.2375 235.99985 86.94063 236.06235Q86.64375 236.12485 86.45625 236.26547Q86.26875 236.39047 86.175 236.57797Q86.08125 236.76547 86.08125 236.99985Q86.08125 237.42172 86.33125 237.67172Q86.59688 237.9061 87.06563 237.9061Q87.45625 237.9061 87.76875 237.7186Q88.09688 237.51547 88.45625 237.10922L88.45625 235.99985Z" fill-rule="nonzero"/><path fill="#000000" d="M62.221874 292.23407Q62.221874 292.79657 62.034374 293.26532Q61.846874 293.71844 61.4875 294.04657Q61.14375 294.35907 60.628124 294.53094Q60.128124 294.70282 59.425 294.70282L58.565624 294.70282L58.565624 297.4372Q58.565624 297.48407 58.534374 297.53094Q58.51875 297.5622 58.45625 297.57782Q58.409374 297.59344 58.3 297.60907Q58.20625 297.6247 58.065624 297.6247Q57.909374 297.6247 57.815624 297.60907Q57.721874 297.59344 57.659374 297.57782Q57.6125 297.5622 57.58125 297.53094Q57.565624 297.48407 57.565624 297.4372L57.565624 290.4372Q57.565624 290.20282 57.675 290.10907Q57.8 290.01532 57.95625 290.01532L59.58125 290.01532Q59.83125 290.01532 60.05 290.03094Q60.284374 290.04657 60.58125 290.1247Q60.89375 290.1872 61.20625 290.3747Q61.534374 290.5622 61.753124 290.82782Q61.971874 291.09344 62.096874 291.45282Q62.221874 291.79657 62.221874 292.23407ZM61.159374 292.3122Q61.159374 291.84344 60.9875 291.54657Q60.815624 291.23407 60.55 291.07782Q60.3 290.92157 60.01875 290.89032Q59.753124 290.84344 59.503124 290.84344L58.565624 290.84344L58.565624 293.89032L59.471874 293.89032Q59.925 293.89032 60.221874 293.78094Q60.534374 293.65594 60.7375 293.45282Q60.940624 293.23407 61.05 292.95282Q61.159374 292.65594 61.159374 292.3122ZM66.53438 292.51532Q66.53438 292.64032 66.51875 292.73407Q66.51875 292.82782 66.50313 292.8747Q66.4875 292.92157 66.45625 292.95282Q66.425 292.96844 66.37813 292.96844Q66.33125 292.96844 66.26875 292.95282Q66.20625 292.92157 66.1125 292.90594Q66.03438 292.8747 65.925 292.85907Q65.81563 292.82782 65.69063 292.82782Q65.55 292.82782 65.40938 292.89032Q65.26875 292.9372 65.1125 293.07782Q64.95625 293.20282 64.78438 293.4372Q64.6125 293.65594 64.40938 293.98407L64.40938 297.45282Q64.40938 297.4997 64.37813 297.53094Q64.3625 297.5622 64.31563 297.59344Q64.26875 297.60907 64.175 297.60907Q64.08125 297.6247 63.925 297.6247Q63.784374 297.6247 63.690624 297.60907Q63.596874 297.60907 63.534374 297.59344Q63.4875 297.5622 63.45625 297.53094Q63.440624 297.4997 63.440624 297.45282L63.440624 292.17157Q63.440624 292.1247 63.45625 292.09344Q63.4875 292.0622 63.534374 292.04657Q63.58125 292.01532 63.659374 291.9997Q63.753124 291.98407 63.89375 291.98407Q64.01875 291.98407 64.09688 291.9997Q64.19063 292.01532 64.2375 292.04657Q64.28438 292.0622 64.3 292.09344Q64.31563 292.1247 64.31563 292.17157L64.31563 292.9372Q64.53438 292.6247 64.72188 292.42157Q64.925 292.21844 65.08125 292.10907Q65.25313 291.9997 65.425 291.95282Q65.59688 291.90594 65.76875 291.90594Q65.83125 291.90594 65.925 291.92157Q66.03438 291.92157 66.12813 291.95282Q66.2375 291.96844 66.31563 291.9997Q66.40938 292.03094 66.44063 292.0622Q66.4875 292.09344 66.4875 292.1247Q66.50313 292.14032 66.50313 292.1872Q66.51875 292.21844 66.51875 292.3122Q66.53438 292.39032 66.53438 292.51532ZM68.40938 297.45282Q68.40938 297.4997 68.37813 297.53094Q68.3625 297.5622 68.31563 297.59344Q68.26875 297.60907 68.175 297.60907Q68.08125 297.6247 67.925 297.6247Q67.78438 297.6247 67.69063 297.60907Q67.59688 297.60907 67.53438 297.59344Q67.4875 297.5622 67.45625 297.53094Q67.44063 297.4997 67.44063 297.45282L67.44063 292.17157Q67.44063 292.1247 67.45625 292.09344Q67.4875 292.0622 67.53438 292.04657Q67.59688 292.01532 67.69063 291.9997Q67.78438 291.98407 67.925 291.98407Q68.08125 291.98407 68.175 291.9997Q68.26875 292.01532 68.31563 292.04657Q68.3625 292.0622 68.37813 292.09344Q68.40938 292.1247 68.40938 292.17157L68.40938 297.45282ZM68.51875 290.39032Q68.51875 290.73407 68.39375 290.85907Q68.26875 290.98407 67.925 290.98407Q67.58125 290.98407 67.45625 290.85907Q67.33125 290.73407 67.33125 290.40594Q67.33125 290.0622 67.45625 289.9372Q67.58125 289.8122 67.94063 289.8122Q68.26875 289.8122 68.39375 289.9372Q68.51875 290.0622 68.51875 290.39032ZM74.76875 292.15594Q74.76875 292.1872 74.76875 292.21844Q74.76875 292.23407 74.75313 292.26532Q74.75313 292.29657 74.7375 292.32782Q74.7375 292.35907 74.72188 292.40594L72.925 297.42157Q72.90938 297.48407 72.8625 297.53094Q72.83125 297.5622 72.75313 297.59344Q72.675 297.60907 72.55 297.60907Q72.44063 297.6247 72.26875 297.6247Q72.08125 297.6247 71.95625 297.60907Q71.84688 297.60907 71.76875 297.59344Q71.70625 297.5622 71.65938 297.51532Q71.62813 297.46844 71.59688 297.42157L69.81563 292.40594Q69.78438 292.34344 69.76875 292.29657Q69.75313 292.23407 69.75313 292.20282Q69.75313 292.17157 69.75313 292.15594Q69.75313 292.10907 69.76875 292.07782Q69.8 292.04657 69.84688 292.03094Q69.90938 291.9997 70.00313 291.9997Q70.09688 291.98407 70.22188 291.98407Q70.39375 291.98407 70.4875 291.9997Q70.59688 292.01532 70.64375 292.04657Q70.70625 292.0622 70.7375 292.09344Q70.76875 292.1247 70.78438 292.17157L72.26875 296.53094L72.3 296.59344L72.31563 296.53094L73.78438 292.17157Q73.8 292.1247 73.83125 292.09344Q73.8625 292.0622 73.90938 292.04657Q73.97188 292.01532 74.06563 291.9997Q74.15938 291.98407 74.31563 291.98407Q74.45625 291.98407 74.53438 291.9997Q74.62813 291.9997 74.675 292.03094Q74.7375 292.04657 74.75313 292.07782Q74.76875 292.10907 74.76875 292.15594ZM79.425 297.45282Q79.425 297.51532 79.37813 297.5622Q79.33125 297.59344 79.2375 297.60907Q79.15938 297.6247 79.00313 297.6247Q78.84688 297.6247 78.75313 297.60907Q78.675 297.59344 78.62813 297.5622Q78.58125 297.51532 78.58125 297.45282L78.58125 296.92157Q78.2375 297.29657 77.81563 297.4997Q77.39375 297.70282 76.925 297.70282Q76.50313 297.70282 76.15938 297.59344Q75.83125 297.48407 75.58125 297.28094Q75.34688 297.07782 75.22188 296.78094Q75.09688 296.48407 75.09688 296.09344Q75.09688 295.65594 75.26875 295.32782Q75.45625 294.9997 75.78438 294.78094Q76.12813 294.5622 76.6125 294.45282Q77.1125 294.34344 77.7375 294.34344L78.45625 294.34344L78.45625 293.9372Q78.45625 293.6247 78.39375 293.39032Q78.33125 293.15594 78.19063 293.01532Q78.05 292.85907 77.81563 292.78094Q77.58125 292.6872 77.25313 292.6872Q76.89375 292.6872 76.6125 292.78094Q76.33125 292.85907 76.1125 292.96844Q75.89375 293.0622 75.75313 293.15594Q75.6125 293.23407 75.53438 293.23407Q75.4875 293.23407 75.45625 293.21844Q75.425 293.1872 75.39375 293.14032Q75.37813 293.09344 75.3625 293.03094Q75.34688 292.95282 75.34688 292.85907Q75.34688 292.71844 75.3625 292.64032Q75.39375 292.54657 75.47188 292.46844Q75.55 292.39032 75.7375 292.29657Q75.94063 292.1872 76.19063 292.10907Q76.44063 292.01532 76.7375 291.96844Q77.03438 291.90594 77.34688 291.90594Q77.90938 291.90594 78.3 292.04657Q78.70625 292.17157 78.94063 292.42157Q79.19063 292.67157 79.3 293.04657Q79.425 293.40594 79.425 293.89032L79.425 297.45282ZM78.45625 295.04657L77.62813 295.04657Q77.2375 295.04657 76.94063 295.10907Q76.64375 295.17157 76.45625 295.3122Q76.26875 295.4372 76.175 295.6247Q76.08125 295.8122 76.08125 296.04657Q76.08125 296.46844 76.33125 296.71844Q76.59688 296.95282 77.06563 296.95282Q77.45625 296.95282 77.76875 296.76532Q78.09688 296.5622 78.45625 296.15594L78.45625 295.04657ZM84.19063 297.0622Q84.19063 297.23407 84.15938 297.32782Q84.14375 297.42157 84.09688 297.46844Q84.05 297.51532 83.95625 297.5622Q83.8625 297.60907 83.7375 297.6247Q83.62813 297.65594 83.4875 297.67157Q83.34688 297.6872 83.22188 297.6872Q82.8 297.6872 82.50313 297.57782Q82.22188 297.46844 82.03438 297.2497Q81.84688 297.03094 81.75313 296.70282Q81.675 296.35907 81.675 295.90594L81.675 292.82782L80.94063 292.82782Q80.84688 292.82782 80.78438 292.73407Q80.7375 292.64032 80.7375 292.42157Q80.7375 292.3122 80.75313 292.23407Q80.76875 292.15594 80.78438 292.10907Q80.81563 292.0622 80.84688 292.04657Q80.89375 292.01532 80.94063 292.01532L81.675 292.01532L81.675 290.76532Q81.675 290.71844 81.69063 290.6872Q81.72188 290.65594 81.76875 290.64032Q81.83125 290.60907 81.925 290.59344Q82.01875 290.57782 82.15938 290.57782Q82.3 290.57782 82.39375 290.59344Q82.4875 290.60907 82.53438 290.64032Q82.59688 290.65594 82.6125 290.6872Q82.64375 290.71844 82.64375 290.76532L82.64375 292.01532L84.00313 292.01532Q84.05 292.01532 84.08125 292.04657Q84.1125 292.0622 84.12813 292.10907Q84.15938 292.15594 84.175 292.23407Q84.19063 292.3122 84.19063 292.42157Q84.19063 292.64032 84.12813 292.73407Q84.08125 292.82782 84.00313 292.82782L82.64375 292.82782L82.64375 295.76532Q82.64375 296.3122 82.8 296.59344Q82.97188 296.85907 83.37813 296.85907Q83.51875 296.85907 83.6125 296.84344Q83.72188 296.8122 83.8 296.78094Q83.89375 296.7497 83.94063 296.73407Q84.00313 296.70282 84.05 296.70282Q84.08125 296.70282 84.1125 296.71844Q84.14375 296.73407 84.14375 296.78094Q84.15938 296.8122 84.175 296.89032Q84.19063 296.95282 84.19063 297.0622ZM89.94063 294.57782Q89.94063 294.8122 89.83125 294.90594Q89.72188 294.9997 89.56563 294.9997L86.1125 294.9997Q86.1125 295.4372 86.19063 295.79657Q86.28438 296.14032 86.4875 296.40594Q86.70625 296.65594 87.03438 296.79657Q87.3625 296.92157 87.83125 296.92157Q88.20625 296.92157 88.50313 296.85907Q88.8 296.79657 89.00313 296.71844Q89.22188 296.64032 89.3625 296.57782Q89.50313 296.51532 89.56563 296.51532Q89.6125 296.51532 89.64375 296.54657Q89.675 296.5622 89.69063 296.60907Q89.70625 296.64032 89.70625 296.71844Q89.72188 296.79657 89.72188 296.89032Q89.72188 296.96844 89.70625 297.03094Q89.70625 297.07782 89.69063 297.1247Q89.69063 297.17157 89.675 297.20282Q89.65938 297.23407 89.62813 297.28094Q89.59688 297.3122 89.425 297.39032Q89.26875 297.45282 89.01875 297.53094Q88.76875 297.59344 88.44063 297.64032Q88.1125 297.70282 87.7375 297.70282Q87.08125 297.70282 86.58125 297.53094Q86.09688 297.34344 85.76875 296.98407Q85.44063 296.6247 85.26875 296.09344Q85.09688 295.54657 85.09688 294.82782Q85.09688 294.15594 85.26875 293.60907Q85.44063 293.0622 85.76875 292.6872Q86.1125 292.3122 86.58125 292.10907Q87.05 291.90594 87.62813 291.90594Q88.25313 291.90594 88.69063 292.10907Q89.12813 292.3122 89.40938 292.65594Q89.69063 292.98407 89.81563 293.4372Q89.94063 293.89032 89.94063 294.40594L89.94063 294.57782ZM88.97188 294.29657Q88.9875 293.53094 88.62813 293.10907Q88.28438 292.67157 87.58125 292.67157Q87.22188 292.67157 86.95625 292.8122Q86.69063 292.9372 86.50313 293.15594Q86.33125 293.3747 86.22188 293.67157Q86.12813 293.96844 86.1125 294.29657L88.97188 294.29657Z" fill-rule="nonzero"/><path fill="#000000" d="M99.22188 345.6375Q99.22188 346.5125 99.08125 347.23126Q98.94063 347.95 98.6125 348.48126Q98.3 348.9969 97.78438 349.27814Q97.26875 349.5594 96.51875 349.5594Q95.8 349.5594 95.3 349.3094Q94.81563 349.04376 94.51875 348.5594Q94.22188 348.0594 94.09688 347.34064Q93.97188 346.60626 93.97188 345.66876Q93.97188 344.8094 94.1125 344.09064Q94.25313 343.35626 94.56563 342.84064Q94.89375 342.325 95.40938 342.04376Q95.925 341.7625 96.675 341.7625Q97.39375 341.7625 97.87813 342.0125Q98.3625 342.2625 98.65938 342.7625Q98.97188 343.2625 99.09688 343.98126Q99.22188 344.7 99.22188 345.6375ZM98.19063 345.71564Q98.19063 345.1375 98.14375 344.7Q98.09688 344.2469 98.01875 343.90314Q97.94063 343.54376 97.81563 343.29376Q97.69063 343.04376 97.51875 342.8875Q97.34688 342.73126 97.1125 342.65314Q96.89375 342.575 96.6125 342.575Q96.1125 342.575 95.8 342.8094Q95.4875 343.04376 95.3 343.46564Q95.12813 343.8719 95.06563 344.41876Q95.00313 344.96564 95.00313 345.60626Q95.00313 346.45 95.08125 347.04376Q95.175 347.6375 95.3625 348.0125Q95.56563 348.3875 95.8625 348.5594Q96.15938 348.73126 96.58125 348.73126Q96.90938 348.73126 97.14375 348.6375Q97.39375 348.52814 97.56563 348.34064Q97.75313 348.1375 97.8625 347.85626Q97.9875 347.575 98.05 347.2469Q98.12813 346.91876 98.15938 346.52814Q98.19063 346.1375 98.19063 345.71564Z" fill-rule="nonzero"/><path fill="#000000" d="M192.9675 349.04376Q192.9675 349.16876 192.93625 349.2469Q192.92062 349.3094 192.88937 349.35626Q192.87375 349.40314 192.82687 349.4344Q192.79562 349.45 192.74875 349.45L188.79562 349.45Q188.74875 349.45 188.7175 349.4344Q188.68625 349.40314 188.63937 349.35626Q188.60812 349.3094 188.5925 349.2469Q188.57687 349.16876 188.57687 349.04376Q188.57687 348.95 188.5925 348.8719Q188.60812 348.79376 188.63937 348.7469Q188.67062 348.7 188.70187 348.66876Q188.74875 348.6375 188.79562 348.6375L190.37375 348.6375L190.37375 342.8719L188.905 343.7469Q188.79562 343.8094 188.7175 343.825Q188.655 343.825 188.60812 343.79376Q188.57687 343.7469 188.56125 343.66876Q188.54562 343.575 188.54562 343.45Q188.54562 343.34064 188.54562 343.27814Q188.56125 343.2 188.57687 343.15314Q188.60812 343.10626 188.63937 343.075Q188.67062 343.04376 188.7175 342.9969L190.4675 341.8875Q190.48312 341.8719 190.51437 341.85626Q190.56125 341.84064 190.60812 341.84064Q190.67062 341.825 190.73312 341.825Q190.81125 341.8094 190.905 341.8094Q191.04562 341.8094 191.13937 341.825Q191.23312 341.84064 191.28 341.85626Q191.3425 341.8719 191.35812 341.91876Q191.37375 341.95 191.37375 341.98126L191.37375 348.6375L192.74875 348.6375Q192.79562 348.6375 192.82687 348.66876Q192.87375 348.7 192.905 348.7469Q192.93625 348.79376 192.95187 348.8719Q192.9675 348.95 192.9675 349.04376ZM199.20187 345.6375Q199.20187 346.5125 199.06125 347.23126Q198.92062 347.95 198.5925 348.48126Q198.28 348.9969 197.76437 349.27814Q197.24875 349.5594 196.49875 349.5594Q195.78 349.5594 195.28 349.3094Q194.79562 349.04376 194.49875 348.5594Q194.20187 348.0594 194.07687 347.34064Q193.95187 346.60626 193.95187 345.66876Q193.95187 344.8094 194.0925 344.09064Q194.23312 343.35626 194.54562 342.84064Q194.87375 342.325 195.38937 342.04376Q195.905 341.7625 196.655 341.7625Q197.37375 341.7625 197.85812 342.0125Q198.3425 342.2625 198.63937 342.7625Q198.95187 343.2625 199.07687 343.98126Q199.20187 344.7 199.20187 345.6375ZM198.17062 345.71564Q198.17062 345.1375 198.12375 344.7Q198.07687 344.2469 197.99875 343.90314Q197.92062 343.54376 197.79562 343.29376Q197.67062 343.04376 197.49875 342.8875Q197.32687 342.73126 197.0925 342.65314Q196.87375 342.575 196.5925 342.575Q196.0925 342.575 195.78 342.8094Q195.4675 343.04376 195.28 343.46564Q195.10812 343.8719 195.04562 344.41876Q194.98312 344.96564 194.98312 345.60626Q194.98312 346.45 195.06125 347.04376Q195.155 347.6375 195.3425 348.0125Q195.54562 348.3875 195.8425 348.5594Q196.13937 348.73126 196.56125 348.73126Q196.88937 348.73126 197.12375 348.6375Q197.37375 348.52814 197.54562 348.34064Q197.73312 348.1375 197.8425 347.85626Q197.9675 347.575 198.03 347.2469Q198.10812 346.91876 198.13937 346.52814Q198.17062 346.1375 198.17062 345.71564Z" fill-rule="nonzero"/><path fill="#000000" d="M289.9319 349.0125Q289.9319 349.1219 289.91626 349.2Q289.90063 349.27814 289.8694 349.34064Q289.83813 349.40314 289.79126 349.4344Q289.76 349.45 289.6975 349.45L285.51 349.45Q285.4319 349.45 285.3694 349.4344Q285.3069 349.40314 285.26 349.35626Q285.21313 349.3094 285.1975 349.23126Q285.1819 349.1375 285.1819 349.0125Q285.1819 348.8875 285.1819 348.8094Q285.1975 348.71564 285.22876 348.65314Q285.26 348.575 285.29126 348.5125Q285.33813 348.45 285.41626 348.3719L286.885 346.8094Q287.40063 346.27814 287.6975 345.85626Q288.01 345.41876 288.16626 345.075Q288.33813 344.71564 288.385 344.4344Q288.4475 344.1375 288.4475 343.8875Q288.4475 343.6375 288.3694 343.41876Q288.29126 343.1844 288.135 343.0125Q287.97876 342.84064 287.7444 342.7469Q287.51 342.65314 287.1975 342.65314Q286.83813 342.65314 286.5569 342.7469Q286.27563 342.84064 286.0569 342.96564Q285.85376 343.075 285.6975 343.1844Q285.5569 343.27814 285.4944 343.27814Q285.4475 343.27814 285.41626 343.2625Q285.385 343.23126 285.35376 343.1844Q285.33813 343.1219 285.3225 343.04376Q285.3225 342.95 285.3225 342.825Q285.3225 342.7469 285.3225 342.6844Q285.33813 342.60626 285.33813 342.5594Q285.35376 342.5125 285.3694 342.48126Q285.40063 342.4344 285.46313 342.3719Q285.54126 342.3094 285.71313 342.21564Q285.90063 342.10626 286.15063 342.0125Q286.41626 341.90314 286.72876 341.84064Q287.04126 341.7625 287.385 341.7625Q287.9319 341.7625 288.33813 341.91876Q288.76 342.0594 289.02563 342.34064Q289.3069 342.60626 289.4319 342.96564Q289.5725 343.325 289.5725 343.73126Q289.5725 344.09064 289.51 344.45Q289.4475 344.8094 289.2444 345.23126Q289.04126 345.65314 288.635 346.16876Q288.2444 346.66876 287.60376 347.34064L286.40063 348.59064L289.6975 348.59064Q289.7444 348.59064 289.79126 348.6219Q289.83813 348.65314 289.8694 348.7Q289.90063 348.7469 289.91626 348.825Q289.9319 348.90314 289.9319 349.0125ZM296.1819 345.6375Q296.1819 346.5125 296.04126 347.23126Q295.90063 347.95 295.5725 348.48126Q295.26 348.9969 294.7444 349.27814Q294.22876 349.5594 293.47876 349.5594Q292.76 349.5594 292.26 349.3094Q291.77563 349.04376 291.47876 348.5594Q291.1819 348.0594 291.0569 347.34064Q290.9319 346.60626 290.9319 345.66876Q290.9319 344.8094 291.0725 344.09064Q291.21313 343.35626 291.52563 342.84064Q291.85376 342.325 292.3694 342.04376Q292.885 341.7625 293.635 341.7625Q294.35376 341.7625 294.83813 342.0125Q295.3225 342.2625 295.6194 342.7625Q295.9319 343.2625 296.0569 343.98126Q296.1819 344.7 296.1819 345.6375ZM295.15063 345.71564Q295.15063 345.1375 295.10376 344.7Q295.0569 344.2469 294.97876 343.90314Q294.90063 343.54376 294.77563 343.29376Q294.65063 343.04376 294.47876 342.8875Q294.3069 342.73126 294.0725 342.65314Q293.85376 342.575 293.5725 342.575Q293.0725 342.575 292.76 342.8094Q292.4475 343.04376 292.26 343.46564Q292.08813 343.8719 292.02563 344.41876Q291.96313 344.96564 291.96313 345.60626Q291.96313 346.45 292.04126 347.04376Q292.135 347.6375 292.3225 348.0125Q292.52563 348.3875 292.8225 348.5594Q293.1194 348.73126 293.54126 348.73126Q293.8694 348.73126 294.10376 348.6375Q294.35376 348.52814 294.52563 348.34064Q294.71313 348.1375 294.8225 347.85626Q294.9475 347.575 295.01 347.2469Q295.08813 346.91876 295.1194 346.52814Q295.15063 346.1375 295.15063 345.71564Z" fill-rule="nonzero"/><path fill="#000000" d="M386.84937 347.27814Q386.84937 347.8094 386.66187 348.23126Q386.49 348.6375 386.14624 348.9344Q385.8025 349.23126 385.3025 349.40314Q384.8025 349.5594 384.1775 349.5594Q383.8025 349.5594 383.45874 349.4969Q383.1306 349.4344 382.865 349.35626Q382.615 349.2625 382.4431 349.1844Q382.28687 349.09064 382.24 349.04376Q382.1931 348.9969 382.16187 348.96564Q382.14624 348.91876 382.1306 348.8719Q382.115 348.8094 382.09937 348.73126Q382.09937 348.6375 382.09937 348.5125Q382.09937 348.29376 382.1306 348.21564Q382.1775 348.1375 382.2556 348.1375Q382.3025 348.1375 382.45874 348.23126Q382.615 348.325 382.84937 348.4344Q383.09937 348.54376 383.4275 348.6375Q383.7556 348.73126 384.14624 348.73126Q384.53687 348.73126 384.83374 348.6375Q385.1306 348.52814 385.3181 348.35626Q385.52124 348.16876 385.615 347.91876Q385.72437 347.66876 385.72437 347.3719Q385.72437 347.0594 385.59937 346.8094Q385.47437 346.54376 385.22437 346.35626Q384.99 346.16876 384.6306 346.075Q384.27124 345.96564 383.8181 345.96564L383.09937 345.96564Q383.0525 345.96564 383.0056 345.95Q382.97437 345.91876 382.9275 345.8719Q382.89624 345.825 382.8806 345.7469Q382.865 345.66876 382.865 345.5594Q382.865 345.4344 382.8806 345.3719Q382.89624 345.29376 382.9275 345.2469Q382.95874 345.2 382.99 345.1844Q383.03687 345.16876 383.09937 345.16876L383.7556 345.16876Q384.14624 345.16876 384.4431 345.075Q384.7556 344.96564 384.97437 344.77814Q385.1931 344.59064 385.3025 344.34064Q385.41187 344.075 385.41187 343.7469Q385.41187 343.5125 385.33374 343.3094Q385.27124 343.09064 385.115 342.9344Q384.95874 342.7625 384.72437 342.6844Q384.49 342.59064 384.1775 342.59064Q383.83374 342.59064 383.5525 342.7Q383.27124 342.79376 383.03687 342.91876Q382.8181 343.02814 382.66187 343.1375Q382.52124 343.23126 382.47437 343.23126Q382.4275 343.23126 382.39624 343.21564Q382.365 343.2 382.33374 343.16876Q382.3181 343.1219 382.3025 343.04376Q382.3025 342.95 382.3025 342.825Q382.3025 342.7469 382.3025 342.6844Q382.3181 342.60626 382.33374 342.5594Q382.34937 342.5125 382.365 342.46564Q382.39624 342.41876 382.4431 342.3719Q382.5056 342.3094 382.6775 342.21564Q382.84937 342.10626 383.09937 342.0125Q383.34937 341.90314 383.6775 341.84064Q384.0056 341.7625 384.3806 341.7625Q384.89624 341.7625 385.28687 341.90314Q385.6931 342.02814 385.95874 342.27814Q386.22437 342.5125 386.34937 342.85626Q386.49 343.2 386.49 343.6219Q386.49 343.98126 386.39624 344.29376Q386.3025 344.59064 386.115 344.825Q385.9431 345.0594 385.6775 345.23126Q385.41187 345.40314 385.0681 345.46564L385.0681 345.48126Q385.45874 345.5125 385.78687 345.66876Q386.115 345.825 386.34937 346.0594Q386.58374 346.29376 386.70874 346.60626Q386.84937 346.91876 386.84937 347.27814ZM393.16187 345.6375Q393.16187 346.5125 393.02124 347.23126Q392.8806 347.95 392.5525 348.48126Q392.24 348.9969 391.72437 349.27814Q391.20874 349.5594 390.45874 349.5594Q389.74 349.5594 389.24 349.3094Q388.7556 349.04376 388.45874 348.5594Q388.16187 348.0594 388.03687 347.34064Q387.91187 346.60626 387.91187 345.66876Q387.91187 344.8094 388.0525 344.09064Q388.1931 343.35626 388.5056 342.84064Q388.83374 342.325 389.34937 342.04376Q389.865 341.7625 390.615 341.7625Q391.33374 341.7625 391.8181 342.0125Q392.3025 342.2625 392.59937 342.7625Q392.91187 343.2625 393.03687 343.98126Q393.16187 344.7 393.16187 345.6375ZM392.1306 345.71564Q392.1306 345.1375 392.08374 344.7Q392.03687 344.2469 391.95874 343.90314Q391.8806 343.54376 391.7556 343.29376Q391.6306 343.04376 391.45874 342.8875Q391.28687 342.73126 391.0525 342.65314Q390.83374 342.575 390.5525 342.575Q390.0525 342.575 389.74 342.8094Q389.4275 343.04376 389.24 343.46564Q389.0681 343.8719 389.0056 344.41876Q388.9431 344.96564 388.9431 345.60626Q388.9431 346.45 389.02124 347.04376Q389.115 347.6375 389.3025 348.0125Q389.5056 348.3875 389.8025 348.5594Q390.09937 348.73126 390.52124 348.73126Q390.84937 348.73126 391.08374 348.6375Q391.33374 348.52814 391.5056 348.34064Q391.6931 348.1375 391.8025 347.85626Q391.9275 347.575 391.99 347.2469Q392.0681 346.91876 392.09937 346.52814Q392.1306 346.1375 392.1306 345.71564Z" fill-rule="nonzero"/><path fill="#000000" d="M484.20438 347.29376Q484.20438 347.48126 484.14188 347.60626Q484.095 347.71564 483.98563 347.71564L483.12625 347.71564L483.12625 349.3094Q483.12625 349.35626 483.095 349.3875Q483.07938 349.41876 483.01688 349.45Q482.97 349.46564 482.87625 349.46564Q482.7825 349.48126 482.62625 349.48126Q482.48563 349.48126 482.39188 349.46564Q482.29813 349.46564 482.23563 349.45Q482.18875 349.41876 482.17313 349.3875Q482.1575 349.35626 482.1575 349.3094L482.1575 347.71564L479.01688 347.71564Q478.95438 347.71564 478.9075 347.7Q478.86063 347.66876 478.81375 347.6219Q478.7825 347.575 478.76688 347.4969Q478.75125 347.40314 478.75125 347.2625Q478.75125 347.15314 478.75125 347.075Q478.76688 346.98126 478.7825 346.90314Q478.79813 346.825 478.82938 346.7625Q478.86063 346.7 478.89188 346.6219L481.62625 342.0125Q481.6575 341.96564 481.70438 341.9344Q481.76688 341.90314 481.845 341.8875Q481.93875 341.85626 482.06375 341.84064Q482.20438 341.825 482.37625 341.825Q482.57938 341.825 482.72 341.84064Q482.86063 341.85626 482.93875 341.8875Q483.0325 341.90314 483.07938 341.95Q483.12625 341.98126 483.12625 342.04376L483.12625 346.8719L483.98563 346.8719Q484.07938 346.8719 484.14188 346.98126Q484.20438 347.075 484.20438 347.29376ZM482.1575 342.71564L482.14188 342.71564L479.67313 346.8719L482.1575 346.8719L482.1575 342.71564ZM490.14188 345.6375Q490.14188 346.5125 490.00125 347.23126Q489.86063 347.95 489.5325 348.48126Q489.22 348.9969 488.70438 349.27814Q488.18875 349.5594 487.43875 349.5594Q486.72 349.5594 486.22 349.3094Q485.73563 349.04376 485.43875 348.5594Q485.14188 348.0594 485.01688 347.34064Q484.89188 346.60626 484.89188 345.66876Q484.89188 344.8094 485.0325 344.09064Q485.17313 343.35626 485.48563 342.84064Q485.81375 342.325 486.32938 342.04376Q486.845 341.7625 487.595 341.7625Q488.31375 341.7625 488.79813 342.0125Q489.2825 342.2625 489.57938 342.7625Q489.89188 343.2625 490.01688 343.98126Q490.14188 344.7 490.14188 345.6375ZM489.11063 345.71564Q489.11063 345.1375 489.06375 344.7Q489.01688 344.2469 488.93875 343.90314Q488.86063 343.54376 488.73563 343.29376Q488.61063 343.04376 488.43875 342.8875Q488.26688 342.73126 488.0325 342.65314Q487.81375 342.575 487.5325 342.575Q487.0325 342.575 486.72 342.8094Q486.4075 343.04376 486.22 343.46564Q486.04813 343.8719 485.98563 344.41876Q485.92313 344.96564 485.92313 345.60626Q485.92313 346.45 486.00125 347.04376Q486.095 347.6375 486.2825 348.0125Q486.48563 348.3875 486.7825 348.5594Q487.07938 348.73126 487.50125 348.73126Q487.82938 348.73126 488.06375 348.6375Q488.31375 348.52814 488.48563 348.34064Q488.67313 348.1375 488.7825 347.85626Q488.9075 347.575 488.97 347.2469Q489.04813 346.91876 489.07938 346.52814Q489.11063 346.1375 489.11063 345.71564Z" fill-rule="nonzero"/><path fill="#000000" d="M580.825 347.0125Q580.825 347.6219 580.6219 348.10626Q580.41876 348.575 580.04376 348.90314Q579.66876 349.21564 579.15314 349.3875Q578.6375 349.5594 577.9969 349.5594Q577.65314 349.5594 577.325 349.5125Q577.0125 349.46564 576.7625 349.3875Q576.52814 349.3094 576.35626 349.2469Q576.2 349.16876 576.15314 349.1375Q576.1219 349.09064 576.10626 349.0594Q576.09064 349.02814 576.075 348.98126Q576.0594 348.91876 576.04376 348.84064Q576.04376 348.7625 576.04376 348.66876Q576.04376 348.5594 576.04376 348.48126Q576.0594 348.40314 576.075 348.35626Q576.10626 348.3094 576.1375 348.29376Q576.16876 348.2625 576.21564 348.2625Q576.27814 348.2625 576.3875 348.34064Q576.5125 348.40314 576.71564 348.4969Q576.9344 348.575 577.23126 348.65314Q577.54376 348.73126 577.96564 348.73126Q578.35626 348.73126 578.6844 348.6375Q579.0125 348.54376 579.2469 348.34064Q579.4969 348.1375 579.6219 347.84064Q579.7625 347.54376 579.7625 347.10626Q579.7625 346.7469 579.6375 346.46564Q579.52814 346.1844 579.29376 345.9969Q579.0594 345.8094 578.7 345.73126Q578.34064 345.6375 577.825 345.6375Q577.46564 345.6375 577.2 345.66876Q576.95 345.7 576.73126 345.7Q576.575 345.7 576.4969 345.6375Q576.4344 345.5594 576.4344 345.34064L576.4344 342.2469Q576.4344 342.0594 576.5125 341.96564Q576.60626 341.8719 576.77814 341.8719L580.1375 341.8719Q580.1844 341.8719 580.23126 341.90314Q580.27814 341.91876 580.29376 341.98126Q580.325 342.02814 580.34064 342.10626Q580.35626 342.1844 580.35626 342.29376Q580.35626 342.5125 580.29376 342.6375Q580.2469 342.7469 580.1375 342.7469L577.3094 342.7469L577.3094 344.8719Q577.5125 344.84064 577.71564 344.84064Q577.9344 344.825 578.21564 344.825Q578.8719 344.825 579.35626 344.98126Q579.84064 345.1375 580.16876 345.4344Q580.4969 345.71564 580.65314 346.1219Q580.825 346.5125 580.825 347.0125ZM587.1219 345.6375Q587.1219 346.5125 586.98126 347.23126Q586.84064 347.95 586.5125 348.48126Q586.2 348.9969 585.6844 349.27814Q585.16876 349.5594 584.41876 349.5594Q583.7 349.5594 583.2 349.3094Q582.71564 349.04376 582.41876 348.5594Q582.1219 348.0594 581.9969 347.34064Q581.8719 346.60626 581.8719 345.66876Q581.8719 344.8094 582.0125 344.09064Q582.15314 343.35626 582.46564 342.84064Q582.79376 342.325 583.3094 342.04376Q583.825 341.7625 584.575 341.7625Q585.29376 341.7625 585.77814 342.0125Q586.2625 342.2625 586.5594 342.7625Q586.8719 343.2625 586.9969 343.98126Q587.1219 344.7 587.1219 345.6375ZM586.09064 345.71564Q586.09064 345.1375 586.04376 344.7Q585.9969 344.2469 585.91876 343.90314Q585.84064 343.54376 585.71564 343.29376Q585.59064 343.04376 585.41876 342.8875Q585.2469 342.73126 585.0125 342.65314Q584.79376 342.575 584.5125 342.575Q584.0125 342.575 583.7 342.8094Q583.3875 343.04376 583.2 343.46564Q583.02814 343.8719 582.96564 344.41876Q582.90314 344.96564 582.90314 345.60626Q582.90314 346.45 582.98126 347.04376Q583.075 347.6375 583.2625 348.0125Q583.46564 348.3875 583.7625 348.5594Q584.0594 348.73126 584.48126 348.73126Q584.8094 348.73126 585.04376 348.6375Q585.29376 348.52814 585.46564 348.34064Q585.65314 348.1375 585.7625 347.85626Q585.8875 347.575 585.95 347.2469Q586.02814 346.91876 586.0594 346.52814Q586.09064 346.1375 586.09064 345.71564Z" fill-rule="nonzero"/></svg>