<svg version="1.1" viewBox="0.0 0.0 1077.0 371.0" fill="none" stroke="none" stroke-linecap="square" stroke-miterlimit="10" width="1077" height="371" xmlns:xlink="http://www.w3.org/1999/xlink" xmlns="http://www.w3.org/2000/svg"><path fill="#ffffff" d="M0 0L1077.0 0L1077.0 371.0L0 371.0L0 0Z" fill-rule="nonzero"/><path stroke="#cccccc" stroke-width="1.0" stroke-linecap="butt" d="M193.5 60.5L193.5 322.5" fill-rule="nonzero"/><path stroke="#cccccc" stroke-width="1.0" stroke-linecap="butt" d="M480.5 60.5L480.5 322.5" fill-rule="nonzero"/><path stroke="#cccccc" stroke-width="1.0" stroke-linecap="butt" d="M767.5 60.5L767.5 322.5" fill-rule="nonzero"/><path stroke="#cccccc" stroke-width="1.0" stroke-linecap="butt" d="M1054.5 60.5L1054.5 322.5" fill-rule="nonzero"/><path stroke="#cccccc" stroke-width="1.0" stroke-linecap="butt" d="M46.5 322.5L1058.5 322.5" fill-rule="nonzero"/><path stroke="#cccccc" stroke-width="1.0" stroke-linecap="butt" d="M46.5 270.5L1058.5 270.5" fill-rule="nonzero"/><path stroke="#333333" stroke-width="1.0" stroke-linecap="butt" d="M46.5 217.5L1058.5 217.5" fill-rule="nonzero"/><path stroke="#cccccc" stroke-width="1.0" stroke-linecap="butt" d="M46.5 165.5L1058.5 165.5" fill-rule="nonzero"/><path stroke="#cccccc" stroke-width="1.0" stroke-linecap="butt" d="M46.5 113.5L1058.5 113.5" fill-rule="nonzero"/><path stroke="#cccccc" stroke-width="1.0" stroke-linecap="butt" d="M46.5 60.5L1058.5 60.5" fill-rule="nonzero"/><clipPath id="id_0"><path d="M46.55 60.916668L1058.45 60.916668L1058.45 322.45L46.55 322.45L46.55 60.916668Z" clip-rule="nonzero"/></clipPath><path stroke="#000000" stroke-width="2.0" stroke-linecap="butt" clip-path="url(#id_0)" d="M50.518623 220.452L79.20328 217.83667L107.887924 217.83667L136.57257 217.83667L165.25722 217.83667L193.94188 207.8984L222.62653 227.77493L251.31117 217.83667L279.99582 212.08293L308.68048 216.26747L337.3651 225.1596L366.04977 211.0368L394.73444 193.25253L423.41907 249.22067L452.10373 217.83667L480.78836 216.26747L509.47302 90.2084L538.15765 244.51306L566.84235 217.83667L595.527 267.528L624.2116 208.42146L652.8963 280.0816L681.58093 193.7756L710.26556 217.83667L738.9502 241.89774L767.6349 204.76L796.3195 230.91333L825.00415 140.4228L853.68884 116.36173L882.3735 217.83667L911.0581 217.83667L939.7428 217.83667L968.4274 217.83667L997.11206 217.83667L1025.7968 217.83667L1054.4813 217.83667" fill-rule="nonzero"/><path fill="#000000" clip-path="url(#id_0)" d="M53.518623 220.452C53.518623 222.10886 52.17548 223.452 50.518623 223.452C48.86177 223.452 47.518623 222.10886 47.518623 220.452C47.518623 218.79515 48.86177 217.452 50.518623 217.452C52.17548 217.452 53.518623 218.79515 53.518623 220.452Z" fill-rule="nonzero"/><path fill="#000000" clip-path="url(#id_0)" d="M82.20328 217.83667C82.20328 219.49352 80.86013 220.83667 79.20328 220.83667C77.54642 220.83667 76.20328 219.49352 76.20328 217.83667C76.20328 216.17981 77.54642 214.83667 79.20328 214.83667C80.86013 214.83667 82.20328 216.17981 82.20328 217.83667Z" fill-rule="nonzero"/><path fill="#000000" clip-path="url(#id_0)" d="M110.887924 217.83667C110.887924 219.49352 109.54478 220.83667 107.887924 220.83667C106.23107 220.83667 104.887924 219.49352 104.887924 217.83667C104.887924 216.17981 106.23107 214.83667 107.887924 214.83667C109.54478 214.83667 110.887924 216.17981 110.887924 217.83667Z" fill-rule="nonzero"/><path fill="#000000" clip-path="url(#id_0)" d="M139.57257 217.83667C139.57257 219.49352 138.22943 220.83667 136.57257 220.83667C134.91573 220.83667 133.57257 219.49352 133.57257 217.83667C133.57257 216.17981 134.91573 214.83667 136.57257 214.83667C138.22943 214.83667 139.57257 216.17981 139.57257 217.83667Z" fill-rule="nonzero"/><path fill="#000000" clip-path="url(#id_0)" d="M168.25722 217.83667C168.25722 219.49352 166.91408 220.83667 165.25722 220.83667C163.60037 220.83667 162.25722 219.49352 162.25722 217.83667C162.25722 216.17981 163.60037 214.83667 165.25722 214.83667C166.91408 214.83667 168.25722 216.17981 168.25722 217.83667Z" fill-rule="nonzero"/><path fill="#000000" clip-path="url(#id_0)" d="M196.94188 207.8984C196.94188 209.55525 195.59872 210.8984 193.94188 210.8984C192.28502 210.8984 190.94188 209.55525 190.94188 207.8984C190.94188 206.24155 192.28502 204.8984 193.94188 204.8984C195.59872 204.8984 196.94188 206.24155 196.94188 207.8984Z" fill-rule="nonzero"/><path fill="#000000" clip-path="url(#id_0)" d="M225.62653 227.77493C225.62653 229.4318 224.28339 230.77493 222.62653 230.77493C220.96967 230.77493 219.62653 229.4318 219.62653 227.77493C219.62653 226.11807 220.96967 224.77493 222.62653 224.77493C224.28339 224.77493 225.62653 226.11807 225.62653 227.77493Z" fill-rule="nonzero"/><path fill="#000000" clip-path="url(#id_0)" d="M254.31117 217.83667C254.31117 219.49352 252.96803 220.83667 251.31117 220.83667C249.65433 220.83667 248.31117 219.49352 248.31117 217.83667C248.31117 216.17981 249.65433 214.83667 251.31117 214.83667C252.96803 214.83667 254.31117 216.17981 254.31117 217.83667Z" fill-rule="nonzero"/><path fill="#000000" clip-path="url(#id_0)" d="M282.99582 212.08293C282.99582 213.73979 281.65268 215.08293 279.99582 215.08293C278.33896 215.08293 276.99582 213.73979 276.99582 212.08293C276.99582 210.42609 278.33896 209.08293 279.99582 209.08293C281.65268 209.08293 282.99582 210.42609 282.99582 212.08293Z" fill-rule="nonzero"/><path fill="#000000" clip-path="url(#id_0)" d="M311.68048 216.26747C311.68048 217.92432 310.33734 219.26747 308.68048 219.26747C307.02362 219.26747 305.68048 217.92432 305.68048 216.26747C305.68048 214.61061 307.02362 213.26747 308.68048 213.26747C310.33734 213.26747 311.68048 214.61061 311.68048 216.26747Z" fill-rule="nonzero"/><path fill="#000000" clip-path="url(#id_0)" d="M340.3651 225.1596C340.3651 226.81645 339.02197 228.1596 337.3651 228.1596C335.70828 228.1596 334.3651 226.81645 334.3651 225.1596C334.3651 223.50275 335.70828 222.1596 337.3651 222.1596C339.02197 222.1596 340.3651 223.50275 340.3651 225.1596Z" fill-rule="nonzero"/><path fill="#000000" clip-path="url(#id_0)" d="M369.04977 211.0368C369.04977 212.69365 367.70663 214.0368 366.04977 214.0368C364.3929 214.0368 363.04977 212.69365 363.04977 211.0368C363.04977 209.37994 364.3929 208.0368 366.04977 208.0368C367.70663 208.0368 369.04977 209.37994 369.04977 211.0368Z" fill-rule="nonzero"/><path fill="#000000" clip-path="url(#id_0)" d="M397.73444 193.25253C397.73444 194.9094 396.39127 196.25253 394.73444 196.25253C393.07758 196.25253 391.73444 194.9094 391.73444 193.25253C391.73444 191.59567 393.07758 190.25253 394.73444 190.25253C396.39127 190.25253 397.73444 191.59567 397.73444 193.25253Z" fill-rule="nonzero"/><path fill="#000000" clip-path="url(#id_0)" d="M426.41907 249.22067C426.41907 250.87752 425.07593 252.22067 423.41907 252.22067C421.7622 252.22067 420.41907 250.87752 420.41907 249.22067C420.41907 247.56381 421.7622 246.22067 423.41907 246.22067C425.07593 246.22067 426.41907 247.56381 426.41907 249.22067Z" fill-rule="nonzero"/><path fill="#000000" clip-path="url(#id_0)" d="M455.10373 217.83667C455.10373 219.49352 453.7606 220.83667 452.10373 220.83667C450.44687 220.83667 449.10373 219.49352 449.10373 217.83667C449.10373 216.17981 450.44687 214.83667 452.10373 214.83667C453.7606 214.83667 455.10373 216.17981 455.10373 217.83667Z" fill-rule="nonzero"/><path fill="#000000" clip-path="url(#id_0)" d="M483.78836 216.26747C483.78836 217.92432 482.44522 219.26747 480.78836 219.26747C479.13153 219.26747 477.78836 217.92432 477.78836 216.26747C477.78836 214.61061 479.13153 213.26747 480.78836 213.26747C482.44522 213.26747 483.78836 214.61061 483.78836 216.26747Z" fill-rule="nonzero"/><path fill="#000000" clip-path="url(#id_0)" d="M512.473 90.2084C512.473 91.86526 511.12988 93.2084 509.47302 93.2084C507.81616 93.2084 506.47302 91.86526 506.47302 90.2084C506.47302 88.551544 507.81616 87.2084 509.47302 87.2084C511.12988 87.2084 512.473 88.551544 512.473 90.2084Z" fill-rule="nonzero"/><path fill="#000000" clip-path="url(#id_0)" d="M541.15765 244.51306C541.15765 246.16992 539.8145 247.51306 538.15765 247.51306C536.5008 247.51306 535.15765 246.16992 535.15765 244.51306C535.15765 242.85622 536.5008 241.51306 538.15765 241.51306C539.8145 241.51306 541.15765 242.85622 541.15765 244.51306Z" fill-rule="nonzero"/><path fill="#000000" clip-path="url(#id_0)" d="M569.84235 217.83667C569.84235 219.49352 568.4992 220.83667 566.84235 220.83667C565.1855 220.83667 563.84235 219.49352 563.84235 217.83667C563.84235 216.17981 565.1855 214.83667 566.84235 214.83667C568.4992 214.83667 569.84235 216.17981 569.84235 217.83667Z" fill-rule="nonzero"/><path fill="#000000" clip-path="url(#id_0)" d="M598.527 267.528C598.527 269.18484 597.18384 270.528 595.527 270.528C593.8701 270.528 592.527 269.18484 592.527 267.528C592.527 265.87115 593.8701 264.528 595.527 264.528C597.18384 264.528 598.527 265.87115 598.527 267.528Z" fill-rule="nonzero"/><path fill="#000000" clip-path="url(#id_0)" d="M627.2116 208.42146C627.2116 210.07832 625.86847 211.42146 624.2116 211.42146C622.55475 211.42146 621.2116 210.07832 621.2116 208.42146C621.2116 206.76462 622.55475 205.42146 624.2116 205.42146C625.86847 205.42146 627.2116 206.76462 627.2116 208.42146Z" fill-rule="nonzero"/><path fill="#000000" clip-path="url(#id_0)" d="M655.8963 280.0816C655.8963 281.73846 654.5531 283.0816 652.8963 283.0816C651.23944 283.0816 649.8963 281.73846 649.8963 280.0816C649.8963 278.42474 651.23944 277.0816 652.8963 277.0816C654.5531 277.0816 655.8963 278.42474 655.8963 280.0816Z" fill-rule="nonzero"/><path fill="#000000" clip-path="url(#id_0)" d="M684.58093 193.7756C684.58093 195.43245 683.2378 196.7756 681.58093 196.7756C679.9241 196.7756 678.58093 195.43245 678.58093 193.7756C678.58093 192.11874 679.9241 190.7756 681.58093 190.7756C683.2378 190.7756 684.58093 192.11874 684.58093 193.7756Z" fill-rule="nonzero"/><path fill="#000000" clip-path="url(#id_0)" d="M713.26556 217.83667C713.26556 219.49352 711.9224 220.83667 710.26556 220.83667C708.6087 220.83667 707.26556 219.49352 707.26556 217.83667C707.26556 216.17981 708.6087 214.83667 710.26556 214.83667C711.9224 214.83667 713.26556 216.17981 713.26556 217.83667Z" fill-rule="nonzero"/><path fill="#000000" clip-path="url(#id_0)" d="M741.9502 241.89774C741.9502 243.55458 740.60706 244.89774 738.9502 244.89774C737.2934 244.89774 735.9502 243.55458 735.9502 241.89774C735.9502 240.24088 737.2934 238.89774 738.9502 238.89774C740.60706 238.89774 741.9502 240.24088 741.9502 241.89774Z" fill-rule="nonzero"/><path fill="#000000" clip-path="url(#id_0)" d="M770.6349 204.76C770.6349 206.41685 769.29175 207.76 767.6349 207.76C765.978 207.76 764.6349 206.41685 764.6349 204.76C764.6349 203.10315 765.978 201.76 767.6349 201.76C769.29175 201.76 770.6349 203.10315 770.6349 204.76Z" fill-rule="nonzero"/><path fill="#000000" clip-path="url(#id_0)" d="M799.3195 230.91333C799.3195 232.57019 797.9764 233.91333 796.3195 233.91333C794.66266 233.91333 793.3195 232.57019 793.3195 230.91333C793.3195 229.25648 794.66266 227.91333 796.3195 227.91333C797.9764 227.91333 799.3195 229.25648 799.3195 230.91333Z" fill-rule="nonzero"/><path fill="#000000" clip-path="url(#id_0)" d="M828.00415 140.4228C828.00415 142.07965 826.661 143.4228 825.00415 143.4228C823.34735 143.4228 822.00415 142.07965 822.00415 140.4228C822.00415 138.76595 823.34735 137.4228 825.00415 137.4228C826.661 137.4228 828.00415 138.76595 828.00415 140.4228Z" fill-rule="nonzero"/><path fill="#000000" clip-path="url(#id_0)" d="M856.68884 116.36173C856.68884 118.018585 855.3457 119.36173 853.68884 119.36173C852.032 119.36173 850.68884 118.018585 850.68884 116.36173C850.68884 114.70488 852.032 113.36173 853.68884 113.36173C855.3457 113.36173 856.68884 114.70488 856.68884 116.36173Z" fill-rule="nonzero"/><path fill="#000000" clip-path="url(#id_0)" d="M885.3735 217.83667C885.3735 219.49352 884.03033 220.83667 882.3735 220.83667C880.7166 220.83667 879.3735 219.49352 879.3735 217.83667C879.3735 216.17981 880.7166 214.83667 882.3735 214.83667C884.03033 214.83667 885.3735 216.17981 885.3735 217.83667Z" fill-rule="nonzero"/><path fill="#000000" clip-path="url(#id_0)" d="M914.0581 217.83667C914.0581 219.49352 912.71497 220.83667 911.0581 220.83667C909.40125 220.83667 908.0581 219.49352 908.0581 217.83667C908.0581 216.17981 909.40125 214.83667 911.0581 214.83667C912.71497 214.83667 914.0581 216.17981 914.0581 217.83667Z" fill-rule="nonzero"/><path fill="#000000" clip-path="url(#id_0)" d="M942.7428 217.83667C942.7428 219.49352 941.39966 220.83667 939.7428 220.83667C938.08594 220.83667 936.7428 219.49352 936.7428 217.83667C936.7428 216.17981 938.08594 214.83667 939.7428 214.83667C941.39966 214.83667 942.7428 216.17981 942.7428 217.83667Z" fill-rule="nonzero"/><path fill="#000000" clip-path="url(#id_0)" d="M971.4274 217.83667C971.4274 219.49352 970.0843 220.83667 968.4274 220.83667C966.77057 220.83667 965.4274 219.49352 965.4274 217.83667C965.4274 216.17981 966.77057 214.83667 968.4274 214.83667C970.0843 214.83667 971.4274 216.17981 971.4274 217.83667Z" fill-rule="nonzero"/><path fill="#000000" clip-path="url(#id_0)" d="M1000.11206 217.83667C1000.11206 219.49352 998.7689 220.83667 997.11206 220.83667C995.4552 220.83667 994.11206 219.49352 994.11206 217.83667C994.11206 216.17981 995.4552 214.83667 997.11206 214.83667C998.7689 214.83667 1000.11206 216.17981 1000.11206 217.83667Z" fill-rule="nonzero"/><path fill="#000000" clip-path="url(#id_0)" d="M1028.7968 217.83667C1028.7968 219.49352 1027.4536 220.83667 1025.7968 220.83667C1024.1399 220.83667 1022.79675 219.49352 1022.79675 217.83667C1022.79675 216.17981 1024.1399 214.83667 1025.7968 214.83667C1027.4536 214.83667 1028.7968 216.17981 1028.7968 217.83667Z" fill-rule="nonzero"/><path fill="#000000" clip-path="url(#id_0)" d="M1057.4813 217.83667C1057.4813 219.49352 1056.1382 220.83667 1054.4813 220.83667C1052.8245 220.83667 1051.4813 219.49352 1051.4813 217.83667C1051.4813 216.17981 1052.8245 214.83667 1054.4813 214.83667C1056.1382 214.83667 1057.4813 216.17981 1057.4813 217.83667Z" fill-rule="nonzero"/><path fill="#000000" d="M21.815624 322.4969Q21.815624 322.71564 21.76875 322.8094Q21.721874 322.8875 21.6125 322.8875L19.159374 322.8875Q19.065624 322.8875 19.003124 322.8094Q18.95625 322.71564 18.95625 322.4969Q18.95625 322.2625 19.003124 322.1844Q19.065624 322.09064 19.159374 322.09064L21.6125 322.09064Q21.659374 322.09064 21.690624 322.10626Q21.7375 322.1219 21.753124 322.1844Q21.784374 322.23126 21.8 322.3094Q21.815624 322.3719 21.815624 322.4969ZM27.971874 325.0125Q27.971874 325.1219 27.95625 325.2Q27.940624 325.27814 27.909374 325.34064Q27.878124 325.40314 27.83125 325.4344Q27.8 325.45 27.7375 325.45L23.55 325.45Q23.471874 325.45 23.409374 325.4344Q23.346874 325.40314 23.3 325.35626Q23.253124 325.3094 23.2375 325.23126Q23.221874 325.1375 23.221874 325.0125Q23.221874 324.8875 23.221874 324.8094Q23.2375 324.71564 23.26875 324.65314Q23.3 324.575 23.33125 324.5125Q23.378124 324.45 23.45625 324.3719L24.925 322.8094Q25.440624 322.27814 25.7375 321.85626Q26.05 321.41876 26.20625 321.075Q26.378124 320.71564 26.425 320.4344Q26.4875 320.1375 26.4875 319.8875Q26.4875 319.6375 26.409374 319.41876Q26.33125 319.1844 26.175 319.0125Q26.01875 318.84064 25.784374 318.7469Q25.55 318.65314 25.2375 318.65314Q24.878124 318.65314 24.596874 318.7469Q24.315624 318.84064 24.096874 318.96564Q23.89375 319.075 23.7375 319.1844Q23.596874 319.27814 23.534374 319.27814Q23.4875 319.27814 23.45625 319.2625Q23.425 319.23126 23.39375 319.1844Q23.378124 319.1219 23.3625 319.04376Q23.3625 318.95 23.3625 318.825Q23.3625 318.7469 23.3625 318.6844Q23.378124 318.60626 23.378124 318.5594Q23.39375 318.5125 23.409374 318.48126Q23.440624 318.4344 23.503124 318.3719Q23.58125 318.3094 23.753124 318.21564Q23.940624 318.10626 24.190624 318.0125Q24.45625 317.90314 24.76875 317.84064Q25.08125 317.7625 25.425 317.7625Q25.971874 317.7625 26.378124 317.91876Q26.8 318.0594 27.065624 318.34064Q27.346874 318.60626 27.471874 318.96564Q27.6125 319.325 27.6125 319.73126Q27.6125 320.09064 27.55 320.45Q27.4875 320.8094 27.284374 321.23126Q27.08125 321.65314 26.675 322.16876Q26.284374 322.66876 25.64375 323.34064L24.440624 324.59064L27.7375 324.59064Q27.784374 324.59064 27.83125 324.6219Q27.878124 324.65314 27.909374 324.7Q27.940624 324.7469 27.95625 324.825Q27.971874 324.90314 27.971874 325.0125ZM34.221874 321.6375Q34.221874 322.5125 34.08125 323.23126Q33.940624 323.95 33.6125 324.48126Q33.3 324.9969 32.784374 325.27814Q32.26875 325.5594 31.51875 325.5594Q30.8 325.5594 30.3 325.3094Q29.815624 325.04376 29.51875 324.5594Q29.221874 324.0594 29.096874 323.34064Q28.971874 322.60626 28.971874 321.66876Q28.971874 320.8094 29.1125 320.09064Q29.253124 319.35626 29.565624 318.84064Q29.89375 318.325 30.409374 318.04376Q30.925 317.7625 31.675 317.7625Q32.39375 317.7625 32.878124 318.0125Q33.3625 318.2625 33.659374 318.7625Q33.971874 319.2625 34.096874 319.98126Q34.221874 320.7 34.221874 321.6375ZM33.190624 321.71564Q33.190624 321.1375 33.14375 320.7Q33.096874 320.2469 33.01875 319.90314Q32.940624 319.54376 32.815624 319.29376Q32.690624 319.04376 32.51875 318.8875Q32.346874 318.73126 32.1125 318.65314Q31.89375 318.575 31.6125 318.575Q31.1125 318.575 30.8 318.8094Q30.4875 319.04376 30.3 319.46564Q30.128124 319.8719 30.065624 320.41876Q30.003124 320.96564 30.003124 321.60626Q30.003124 322.45 30.08125 323.04376Q30.175 323.6375 30.3625 324.0125Q30.565624 324.3875 30.8625 324.5594Q31.159374 324.73126 31.58125 324.73126Q31.909374 324.73126 32.14375 324.6375Q32.39375 324.52814 32.565624 324.34064Q32.753124 324.1375 32.8625 323.85626Q32.9875 323.575 33.05 323.2469Q33.128124 322.91876 33.159374 322.52814Q33.190624 322.1375 33.190624 321.71564ZM40.221874 321.6375Q40.221874 322.5125 40.08125 323.23126Q39.940624 323.95 39.6125 324.48126Q39.3 324.9969 38.784374 325.27814Q38.26875 325.5594 37.51875 325.5594Q36.8 325.5594 36.3 325.3094Q35.815624 325.04376 35.51875 324.5594Q35.221874 324.0594 35.096874 323.34064Q34.971874 322.60626 34.971874 321.66876Q34.971874 320.8094 35.1125 320.09064Q35.253124 319.35626 35.565624 318.84064Q35.89375 318.325 36.409374 318.04376Q36.925 317.7625 37.675 317.7625Q38.39375 317.7625 38.878124 318.0125Q39.3625 318.2625 39.659374 318.7625Q39.971874 319.2625 40.096874 319.98126Q40.221874 320.7 40.221874 321.6375ZM39.190624 321.71564Q39.190624 321.1375 39.14375 320.7Q39.096874 320.2469 39.01875 319.90314Q38.940624 319.54376 38.815624 319.29376Q38.690624 319.04376 38.51875 318.8875Q38.346874 318.73126 38.1125 318.65314Q37.89375 318.575 37.6125 318.575Q37.1125 318.575 36.8 318.8094Q36.4875 319.04376 36.3 319.46564Q36.128124 319.8719 36.065624 320.41876Q36.003124 320.96564 36.003124 321.60626Q36.003124 322.45 36.08125 323.04376Q36.175 323.6375 36.3625 324.0125Q36.565624 324.3875 36.8625 324.5594Q37.159374 324.73126 37.58125 324.73126Q37.909374 324.73126 38.14375 324.6375Q38.39375 324.52814 38.565624 324.34064Q38.753124 324.1375 38.8625 323.85626Q38.9875 323.575 39.05 323.2469Q39.128124 322.91876 39.159374 322.52814Q39.190624 322.1375 39.190624 321.71564Z" fill-rule="nonzero"/><path fill="#000000" d="M21.815624 270.19022Q21.815624 270.40897 21.76875 270.50272Q21.721874 270.58084 21.6125 270.58084L19.159374 270.58084Q19.065624 270.58084 19.003124 270.50272Q18.95625 270.40897 18.95625 270.19022Q18.95625 269.95584 19.003124 269.87772Q19.065624 269.78397 19.159374 269.78397L21.6125 269.78397Q21.659374 269.78397 21.690624 269.7996Q21.7375 269.81522 21.753124 269.87772Q21.784374 269.9246 21.8 270.00272Q21.815624 270.06522 21.815624 270.19022ZM27.9875 272.7371Q27.9875 272.8621 27.95625 272.94022Q27.940624 273.00272 27.909374 273.0496Q27.89375 273.09647 27.846874 273.12772Q27.815624 273.14334 27.76875 273.14334L23.815624 273.14334Q23.76875 273.14334 23.7375 273.12772Q23.70625 273.09647 23.659374 273.0496Q23.628124 273.00272 23.6125 272.94022Q23.596874 272.8621 23.596874 272.7371Q23.596874 272.64334 23.6125 272.56522Q23.628124 272.4871 23.659374 272.44022Q23.690624 272.39334 23.721874 272.3621Q23.76875 272.33084 23.815624 272.33084L25.39375 272.33084L25.39375 266.56522L23.925 267.44022Q23.815624 267.50272 23.7375 267.51834Q23.675 267.51834 23.628124 267.4871Q23.596874 267.44022 23.58125 267.3621Q23.565624 267.26834 23.565624 267.14334Q23.565624 267.03397 23.565624 266.97147Q23.58125 266.89334 23.596874 266.84647Q23.628124 266.7996 23.659374 266.76834Q23.690624 266.7371 23.7375 266.69022L25.4875 265.58084Q25.503124 265.56522 25.534374 265.5496Q25.58125 265.53397 25.628124 265.53397Q25.690624 265.51834 25.753124 265.51834Q25.83125 265.50272 25.925 265.50272Q26.065624 265.50272 26.159374 265.51834Q26.253124 265.53397 26.3 265.5496Q26.3625 265.56522 26.378124 265.6121Q26.39375 265.64334 26.39375 265.6746L26.39375 272.33084L27.76875 272.33084Q27.815624 272.33084 27.846874 272.3621Q27.89375 272.39334 27.925 272.44022Q27.95625 272.4871 27.971874 272.56522Q27.9875 272.64334 27.9875 272.7371ZM34.221874 269.33084Q34.221874 270.20584 34.08125 270.9246Q33.940624 271.64334 33.6125 272.1746Q33.3 272.69022 32.784374 272.97147Q32.26875 273.25272 31.51875 273.25272Q30.8 273.25272 30.3 273.00272Q29.815624 272.7371 29.51875 272.25272Q29.221874 271.75272 29.096874 271.03397Q28.971874 270.2996 28.971874 269.3621Q28.971874 268.50272 29.1125 267.78397Q29.253124 267.0496 29.565624 266.53397Q29.89375 266.01834 30.409374 265.7371Q30.925 265.45584 31.675 265.45584Q32.39375 265.45584 32.878124 265.70584Q33.3625 265.95584 33.659374 266.45584Q33.971874 266.95584 34.096874 267.6746Q34.221874 268.39334 34.221874 269.33084ZM33.190624 269.40897Q33.190624 268.83084 33.14375 268.39334Q33.096874 267.94022 33.01875 267.59647Q32.940624 267.2371 32.815624 266.9871Q32.690624 266.7371 32.51875 266.58084Q32.346874 266.4246 32.1125 266.34647Q31.89375 266.26834 31.6125 266.26834Q31.1125 266.26834 30.8 266.50272Q30.4875 266.7371 30.3 267.15897Q30.128124 267.56522 30.065624 268.1121Q30.003124 268.65897 30.003124 269.2996Q30.003124 270.14334 30.08125 270.7371Q30.175 271.33084 30.3625 271.70584Q30.565624 272.08084 30.8625 272.25272Q31.159374 272.4246 31.58125 272.4246Q31.909374 272.4246 32.14375 272.33084Q32.39375 272.22147 32.565624 272.03397Q32.753124 271.83084 32.8625 271.5496Q32.9875 271.26834 33.05 270.94022Q33.128124 270.6121 33.159374 270.22147Q33.190624 269.83084 33.190624 269.40897ZM40.221874 269.33084Q40.221874 270.20584 40.08125 270.9246Q39.940624 271.64334 39.6125 272.1746Q39.3 272.69022 38.784374 272.97147Q38.26875 273.25272 37.51875 273.25272Q36.8 273.25272 36.3 273.00272Q35.815624 272.7371 35.51875 272.25272Q35.221874 271.75272 35.096874 271.03397Q34.971874 270.2996 34.971874 269.3621Q34.971874 268.50272 35.1125 267.78397Q35.253124 267.0496 35.565624 266.53397Q35.89375 266.01834 36.409374 265.7371Q36.925 265.45584 37.675 265.45584Q38.39375 265.45584 38.878124 265.70584Q39.3625 265.95584 39.659374 266.45584Q39.971874 266.95584 40.096874 267.6746Q40.221874 268.39334 40.221874 269.33084ZM39.190624 269.40897Q39.190624 268.83084 39.14375 268.39334Q39.096874 267.94022 39.01875 267.59647Q38.940624 267.2371 38.815624 266.9871Q38.690624 266.7371 38.51875 266.58084Q38.346874 266.4246 38.1125 266.34647Q37.89375 266.26834 37.6125 266.26834Q37.1125 266.26834 36.8 266.50272Q36.4875 266.7371 36.3 267.15897Q36.128124 267.56522 36.065624 268.1121Q36.003124 268.65897 36.003124 269.2996Q36.003124 270.14334 36.08125 270.7371Q36.175 271.33084 36.3625 271.70584Q36.565624 272.08084 36.8625 272.25272Q37.159374 272.4246 37.58125 272.4246Q37.909374 272.4246 38.14375 272.33084Q38.39375 272.22147 38.565624 272.03397Q38.753124 271.83084 38.8625 271.5496Q38.9875 271.26834 39.05 270.94022Q39.128124 270.6121 39.159374 270.22147Q39.190624 269.83084 39.190624 269.40897Z" fill-rule="nonzero"/><path fill="#000000" d="M40.221874 217.02417Q40.221874 217.89917 40.08125 218.61792Q39.940624 219.33667 39.6125 219.86792Q39.3 220.38354 38.784374 220.6648Q38.26875 220.94604 37.51875 220.94604Q36.8 220.94604 36.3 220.69604Q35.815624 220.43042 35.51875 219.94604Q35.221874 219.44604 35.096874 218.7273Q34.971874 217.99292 34.971874 217.05542Q34.971874 216.19604 35.1125 215.4773Q35.253124 214.74292 35.565624 214.2273Q35.89375 213.71167 36.409374 213.43042Q36.925 213.14917 37.675 213.14917Q38.39375 213.14917 38.878124 213.39917Q39.3625 213.64917 39.659374 214.14917Q39.971874 214.64917 40.096874 215.36792Q40.221874 216.08667 40.221874 217.02417ZM39.190624 217.1023Q39.190624 216.52417 39.14375 216.08667Q39.096874 215.63354 39.01875 215.2898Q38.940624 214.93042 38.815624 214.68042Q38.690624 214.43042 38.51875 214.27417Q38.346874 214.11792 38.1125 214.0398Q37.89375 213.96167 37.6125 213.96167Q37.1125 213.96167 36.8 214.19604Q36.4875 214.43042 36.3 214.8523Q36.128124 215.25854 36.065624 215.80542Q36.003124 216.3523 36.003124 216.99292Q36.003124 217.83667 36.08125 218.43042Q36.175 219.02417 36.3625 219.39917Q36.565624 219.77417 36.8625 219.94604Q37.159374 220.11792 37.58125 220.11792Q37.909374 220.11792 38.14375 220.02417Q38.39375 219.9148 38.565624 219.7273Q38.753124 219.52417 38.8625 219.24292Q38.9875 218.96167 39.05 218.63354Q39.128124 218.30542 39.159374 217.9148Q39.190624 217.52417 39.190624 217.1023Z" fill-rule="nonzero"/><path fill="#000000" d="M27.9875 168.12375Q27.9875 168.24875 27.95625 168.32687Q27.940624 168.38937 27.909374 168.43625Q27.89375 168.48312 27.846874 168.51437Q27.815624 168.53 27.76875 168.53L23.815624 168.53Q23.76875 168.53 23.7375 168.51437Q23.70625 168.48312 23.659374 168.43625Q23.628124 168.38937 23.6125 168.32687Q23.596874 168.24875 23.596874 168.12375Q23.596874 168.03 23.6125 167.95187Q23.628124 167.87375 23.659374 167.82687Q23.690624 167.78 23.721874 167.74875Q23.76875 167.7175 23.815624 167.7175L25.39375 167.7175L25.39375 161.95187L23.925 162.82687Q23.815624 162.88937 23.7375 162.905Q23.675 162.905 23.628124 162.87375Q23.596874 162.82687 23.58125 162.74875Q23.565624 162.655 23.565624 162.53Q23.565624 162.42062 23.565624 162.35812Q23.58125 162.28 23.596874 162.23312Q23.628124 162.18625 23.659374 162.155Q23.690624 162.12375 23.7375 162.07687L25.4875 160.9675Q25.503124 160.95187 25.534374 160.93625Q25.58125 160.92062 25.628124 160.92062Q25.690624 160.905 25.753124 160.905Q25.83125 160.88937 25.925 160.88937Q26.065624 160.88937 26.159374 160.905Q26.253124 160.92062 26.3 160.93625Q26.3625 160.95187 26.378124 160.99875Q26.39375 161.03 26.39375 161.06125L26.39375 167.7175L27.76875 167.7175Q27.815624 167.7175 27.846874 167.74875Q27.89375 167.78 27.925 167.82687Q27.95625 167.87375 27.971874 167.95187Q27.9875 168.03 27.9875 168.12375ZM34.221874 164.7175Q34.221874 165.5925 34.08125 166.31125Q33.940624 167.03 33.6125 167.56125Q33.3 168.07687 32.784374 168.35812Q32.26875 168.63937 31.51875 168.63937Q30.8 168.63937 30.3 168.38937Q29.815624 168.12375 29.51875 167.63937Q29.221874 167.13937 29.096874 166.42062Q28.971874 165.68625 28.971874 164.74875Q28.971874 163.88937 29.1125 163.17062Q29.253124 162.43625 29.565624 161.92062Q29.89375 161.405 30.409374 161.12375Q30.925 160.8425 31.675 160.8425Q32.39375 160.8425 32.878124 161.0925Q33.3625 161.3425 33.659374 161.8425Q33.971874 162.3425 34.096874 163.06125Q34.221874 163.78 34.221874 164.7175ZM33.190624 164.79562Q33.190624 164.2175 33.14375 163.78Q33.096874 163.32687 33.01875 162.98312Q32.940624 162.62375 32.815624 162.37375Q32.690624 162.12375 32.51875 161.9675Q32.346874 161.81125 32.1125 161.73312Q31.89375 161.655 31.6125 161.655Q31.1125 161.655 30.8 161.88937Q30.4875 162.12375 30.3 162.54562Q30.128124 162.95187 30.065624 163.49875Q30.003124 164.04562 30.003124 164.68625Q30.003124 165.53 30.08125 166.12375Q30.175 166.7175 30.3625 167.0925Q30.565624 167.4675 30.8625 167.63937Q31.159374 167.81125 31.58125 167.81125Q31.909374 167.81125 32.14375 167.7175Q32.39375 167.60812 32.565624 167.42062Q32.753124 167.2175 32.8625 166.93625Q32.9875 166.655 33.05 166.32687Q33.128124 165.99875 33.159374 165.60812Q33.190624 165.2175 33.190624 164.79562ZM40.221874 164.7175Q40.221874 165.5925 40.08125 166.31125Q39.940624 167.03 39.6125 167.56125Q39.3 168.07687 38.784374 168.35812Q38.26875 168.63937 37.51875 168.63937Q36.8 168.63937 36.3 168.38937Q35.815624 168.12375 35.51875 167.63937Q35.221874 167.13937 35.096874 166.42062Q34.971874 165.68625 34.971874 164.74875Q34.971874 163.88937 35.1125 163.17062Q35.253124 162.43625 35.565624 161.92062Q35.89375 161.405 36.409374 161.12375Q36.925 160.8425 37.675 160.8425Q38.39375 160.8425 38.878124 161.0925Q39.3625 161.3425 39.659374 161.8425Q39.971874 162.3425 40.096874 163.06125Q40.221874 163.78 40.221874 164.7175ZM39.190624 164.79562Q39.190624 164.2175 39.14375 163.78Q39.096874 163.32687 39.01875 162.98312Q38.940624 162.62375 38.815624 162.37375Q38.690624 162.12375 38.51875 161.9675Q38.346874 161.81125 38.1125 161.73312Q37.89375 161.655 37.6125 161.655Q37.1125 161.655 36.8 161.88937Q36.4875 162.12375 36.3 162.54562Q36.128124 162.95187 36.065624 163.49875Q36.003124 164.04562 36.003124 164.68625Q36.003124 165.53 36.08125 166.12375Q36.175 166.7175 36.3625 167.0925Q36.565624 167.4675 36.8625 167.63937Q37.159374 167.81125 37.58125 167.81125Q37.909374 167.81125 38.14375 167.7175Q38.39375 167.60812 38.565624 167.42062Q38.753124 167.2175 38.8625 166.93625Q38.9875 166.655 39.05 166.32687Q39.128124 165.99875 39.159374 165.60812Q39.190624 165.2175 39.190624 164.79562Z" fill-rule="nonzero"/><path fill="#000000" d="M27.971874 115.785835Q27.971874 115.89521 27.95625 115.973335Q27.940624 116.05146 27.909374 116.11396Q27.878124 116.17646 27.83125 116.20771Q27.8 116.223335 27.7375 116.223335L23.55 116.223335Q23.471874 116.223335 23.409374 116.20771Q23.346874 116.17646 23.3 116.129585Q23.253124 116.08271 23.2375 116.004585Q23.221874 115.910835 23.221874 115.785835Q23.221874 115.660835 23.221874 115.58271Q23.2375 115.48896 23.26875 115.42646Q23.3 115.348335 23.33125 115.285835Q23.378124 115.223335 23.45625 115.14521L24.925 113.58271Q25.440624 113.05146 25.7375 112.629585Q26.05 112.192085 26.20625 111.848335Q26.378124 111.48896 26.425 111.20771Q26.4875 110.910835 26.4875 110.660835Q26.4875 110.410835 26.409374 110.192085Q26.33125 109.95771 26.175 109.785835Q26.01875 109.61396 25.784374 109.52021Q25.55 109.42646 25.2375 109.42646Q24.878124 109.42646 24.596874 109.52021Q24.315624 109.61396 24.096874 109.73896Q23.89375 109.848335 23.7375 109.95771Q23.596874 110.05146 23.534374 110.05146Q23.4875 110.05146 23.45625 110.035835Q23.425 110.004585 23.39375 109.95771Q23.378124 109.89521 23.3625 109.817085Q23.3625 109.723335 23.3625 109.598335Q23.3625 109.52021 23.3625 109.45771Q23.378124 109.379585 23.378124 109.33271Q23.39375 109.285835 23.409374 109.254585Q23.440624 109.20771 23.503124 109.14521Q23.58125 109.08271 23.753124 108.98896Q23.940624 108.879585 24.190624 108.785835Q24.45625 108.67646 24.76875 108.61396Q25.08125 108.535835 25.425 108.535835Q25.971874 108.535835 26.378124 108.692085Q26.8 108.83271 27.065624 109.11396Q27.346874 109.379585 27.471874 109.73896Q27.6125 110.098335 27.6125 110.504585Q27.6125 110.86396 27.55 111.223335Q27.4875 111.58271 27.284374 112.004585Q27.08125 112.42646 26.675 112.942085Q26.284374 113.442085 25.64375 114.11396L24.440624 115.36396L27.7375 115.36396Q27.784374 115.36396 27.83125 115.39521Q27.878124 115.42646 27.909374 115.473335Q27.940624 115.52021 27.95625 115.598335Q27.971874 115.67646 27.971874 115.785835ZM34.221874 112.410835Q34.221874 113.285835 34.08125 114.004585Q33.940624 114.723335 33.6125 115.254585Q33.3 115.77021 32.784374 116.05146Q32.26875 116.33271 31.51875 116.33271Q30.8 116.33271 30.3 116.08271Q29.815624 115.817085 29.51875 115.33271Q29.221874 114.83271 29.096874 114.11396Q28.971874 113.379585 28.971874 112.442085Q28.971874 111.58271 29.1125 110.86396Q29.253124 110.129585 29.565624 109.61396Q29.89375 109.098335 30.409374 108.817085Q30.925 108.535835 31.675 108.535835Q32.39375 108.535835 32.878124 108.785835Q33.3625 109.035835 33.659374 109.535835Q33.971874 110.035835 34.096874 110.754585Q34.221874 111.473335 34.221874 112.410835ZM33.190624 112.48896Q33.190624 111.910835 33.14375 111.473335Q33.096874 111.02021 33.01875 110.67646Q32.940624 110.317085 32.815624 110.067085Q32.690624 109.817085 32.51875 109.660835Q32.346874 109.504585 32.1125 109.42646Q31.89375 109.348335 31.6125 109.348335Q31.1125 109.348335 30.8 109.58271Q30.4875 109.817085 30.3 110.23896Q30.128124 110.64521 30.065624 111.192085Q30.003124 111.73896 30.003124 112.379585Q30.003124 113.223335 30.08125 113.817085Q30.175 114.410835 30.3625 114.785835Q30.565624 115.160835 30.8625 115.33271Q31.159374 115.504585 31.58125 115.504585Q31.909374 115.504585 32.14375 115.410835Q32.39375 115.30146 32.565624 115.11396Q32.753124 114.910835 32.8625 114.629585Q32.9875 114.348335 33.05 114.02021Q33.128124 113.692085 33.159374 113.30146Q33.190624 112.910835 33.190624 112.48896ZM40.221874 112.410835Q40.221874 113.285835 40.08125 114.004585Q39.940624 114.723335 39.6125 115.254585Q39.3 115.77021 38.784374 116.05146Q38.26875 116.33271 37.51875 116.33271Q36.8 116.33271 36.3 116.08271Q35.815624 115.817085 35.51875 115.33271Q35.221874 114.83271 35.096874 114.11396Q34.971874 113.379585 34.971874 112.442085Q34.971874 111.58271 35.1125 110.86396Q35.253124 110.129585 35.565624 109.61396Q35.89375 109.098335 36.409374 108.817085Q36.925 108.535835 37.675 108.535835Q38.39375 108.535835 38.878124 108.785835Q39.3625 109.035835 39.659374 109.535835Q39.971874 110.035835 40.096874 110.754585Q40.221874 111.473335 40.221874 112.410835ZM39.190624 112.48896Q39.190624 111.910835 39.14375 111.473335Q39.096874 111.02021 39.01875 110.67646Q38.940624 110.317085 38.815624 110.067085Q38.690624 109.817085 38.51875 109.660835Q38.346874 109.504585 38.1125 109.42646Q37.89375 109.348335 37.6125 109.348335Q37.1125 109.348335 36.8 109.58271Q36.4875 109.817085 36.3 110.23896Q36.128124 110.64521 36.065624 111.192085Q36.003124 111.73896 36.003124 112.379585Q36.003124 113.223335 36.08125 113.817085Q36.175 114.410835 36.3625 114.785835Q36.565624 115.160835 36.8625 115.33271Q37.159374 115.504585 37.58125 115.504585Q37.909374 115.504585 38.14375 115.410835Q38.39375 115.30146 38.565624 115.11396Q38.753124 114.910835 38.8625 114.629585Q38.9875 114.348335 39.05 114.02021Q39.128124 113.692085 39.159374 113.30146Q39.190624 112.910835 39.190624 112.48896Z" fill-rule="nonzero"/><path fill="#000000" d="M27.909374 61.744793Q27.909374 62.276043 27.721874 62.697918Q27.55 63.104168 27.20625 63.401043Q26.8625 63.697918 26.3625 63.869793Q25.8625 64.02605 25.2375 64.02605Q24.8625 64.02605 24.51875 63.963543Q24.190624 63.901043 23.925 63.822918Q23.675 63.729168 23.503124 63.651043Q23.346874 63.557293 23.3 63.510418Q23.253124 63.463543 23.221874 63.432293Q23.20625 63.385418 23.190624 63.338543Q23.175 63.276043 23.159374 63.197918Q23.159374 63.104168 23.159374 62.979168Q23.159374 62.760418 23.190624 62.682293Q23.2375 62.604168 23.315624 62.604168Q23.3625 62.604168 23.51875 62.697918Q23.675 62.791668 23.909374 62.901043Q24.159374 63.010418 24.4875 63.104168Q24.815624 63.197918 25.20625 63.197918Q25.596874 63.197918 25.89375 63.104168Q26.190624 62.994793 26.378124 62.822918Q26.58125 62.635418 26.675 62.385418Q26.784374 62.135418 26.784374 61.838543Q26.784374 61.526043 26.659374 61.276043Q26.534374 61.010418 26.284374 60.822918Q26.05 60.635418 25.690624 60.541668Q25.33125 60.432293 24.878124 60.432293L24.159374 60.432293Q24.1125 60.432293 24.065624 60.416668Q24.034374 60.385418 23.9875 60.338543Q23.95625 60.291668 23.940624 60.213543Q23.925 60.135418 23.925 60.026043Q23.925 59.901043 23.940624 59.838543Q23.95625 59.760418 23.9875 59.713543Q24.01875 59.666668 24.05 59.651043Q24.096874 59.635418 24.159374 59.635418L24.815624 59.635418Q25.20625 59.635418 25.503124 59.541668Q25.815624 59.432293 26.034374 59.244793Q26.253124 59.057293 26.3625 58.807293Q26.471874 58.541668 26.471874 58.213543Q26.471874 57.979168 26.39375 57.776043Q26.33125 57.557293 26.175 57.401043Q26.01875 57.229168 25.784374 57.151043Q25.55 57.057293 25.2375 57.057293Q24.89375 57.057293 24.6125 57.166668Q24.33125 57.260418 24.096874 57.385418Q23.878124 57.494793 23.721874 57.604168Q23.58125 57.697918 23.534374 57.697918Q23.4875 57.697918 23.45625 57.682293Q23.425 57.666668 23.39375 57.635418Q23.378124 57.588543 23.3625 57.510418Q23.3625 57.416668 23.3625 57.291668Q23.3625 57.213543 23.3625 57.151043Q23.378124 57.072918 23.39375 57.026043Q23.409374 56.979168 23.425 56.932293Q23.45625 56.885418 23.503124 56.838543Q23.565624 56.776043 23.7375 56.682293Q23.909374 56.572918 24.159374 56.479168Q24.409374 56.369793 24.7375 56.307293Q25.065624 56.229168 25.440624 56.229168Q25.95625 56.229168 26.346874 56.369793Q26.753124 56.494793 27.01875 56.744793Q27.284374 56.979168 27.409374 57.322918Q27.55 57.666668 27.55 58.088543Q27.55 58.447918 27.45625 58.760418Q27.3625 59.057293 27.175 59.291668Q27.003124 59.526043 26.7375 59.697918Q26.471874 59.869793 26.128124 59.932293L26.128124 59.947918Q26.51875 59.979168 26.846874 60.135418Q27.175 60.291668 27.409374 60.526043Q27.64375 60.760418 27.76875 61.072918Q27.909374 61.385418 27.909374 61.744793ZM34.221874 60.104168Q34.221874 60.979168 34.08125 61.697918Q33.940624 62.416668 33.6125 62.947918Q33.3 63.463543 32.784374 63.744793Q32.26875 64.02605 31.51875 64.02605Q30.8 64.02605 30.3 63.776043Q29.815624 63.510418 29.51875 63.026043Q29.221874 62.526043 29.096874 61.807293Q28.971874 61.072918 28.971874 60.135418Q28.971874 59.276043 29.1125 58.557293Q29.253124 57.822918 29.565624 57.307293Q29.89375 56.791668 30.409374 56.510418Q30.925 56.229168 31.675 56.229168Q32.39375 56.229168 32.878124 56.479168Q33.3625 56.729168 33.659374 57.229168Q33.971874 57.729168 34.096874 58.447918Q34.221874 59.166668 34.221874 60.104168ZM33.190624 60.182293Q33.190624 59.604168 33.14375 59.166668Q33.096874 58.713543 33.01875 58.369793Q32.940624 58.010418 32.815624 57.760418Q32.690624 57.510418 32.51875 57.354168Q32.346874 57.197918 32.1125 57.119793Q31.89375 57.041668 31.6125 57.041668Q31.1125 57.041668 30.8 57.276043Q30.4875 57.510418 30.3 57.932293Q30.128124 58.338543 30.065624 58.885418Q30.003124 59.432293 30.003124 60.072918Q30.003124 60.916668 30.08125 61.510418Q30.175 62.104168 30.3625 62.479168Q30.565624 62.854168 30.8625 63.026043Q31.159374 63.197918 31.58125 63.197918Q31.909374 63.197918 32.14375 63.104168Q32.39375 62.994793 32.565624 62.807293Q32.753124 62.604168 32.8625 62.322918Q32.9875 62.041668 33.05 61.713543Q33.128124 61.385418 33.159374 60.994793Q33.190624 60.604168 33.190624 60.182293ZM40.221874 60.104168Q40.221874 60.979168 40.08125 61.697918Q39.940624 62.416668 39.6125 62.947918Q39.3 63.463543 38.784374 63.744793Q38.26875 64.02605 37.51875 64.02605Q36.8 64.02605 36.3 63.776043Q35.815624 63.510418 35.51875 63.026043Q35.221874 62.526043 35.096874 61.807293Q34.971874 61.072918 34.971874 60.135418Q34.971874 59.276043 35.1125 58.557293Q35.253124 57.822918 35.565624 57.307293Q35.89375 56.791668 36.409374 56.510418Q36.925 56.229168 37.675 56.229168Q38.39375 56.229168 38.878124 56.479168Q39.3625 56.729168 39.659374 57.229168Q39.971874 57.729168 40.096874 58.447918Q40.221874 59.166668 40.221874 60.104168ZM39.190624 60.182293Q39.190624 59.604168 39.14375 59.166668Q39.096874 58.713543 39.01875 58.369793Q38.940624 58.010418 38.815624 57.760418Q38.690624 57.510418 38.51875 57.354168Q38.346874 57.197918 38.1125 57.119793Q37.89375 57.041668 37.6125 57.041668Q37.1125 57.041668 36.8 57.276043Q36.4875 57.510418 36.3 57.932293Q36.128124 58.338543 36.065624 58.885418Q36.003124 59.432293 36.003124 60.072918Q36.003124 60.916668 36.08125 61.510418Q36.175 62.104168 36.3625 62.479168Q36.565624 62.854168 36.8625 63.026043Q37.159374 63.197918 37.58125 63.197918Q37.909374 63.197918 38.14375 63.104168Q38.39375 62.994793 38.565624 62.807293Q38.753124 62.604168 38.8625 62.322918Q38.9875 62.041668 39.05 61.713543Q39.128124 61.385418 39.159374 60.994793Q39.190624 60.604168 39.190624 60.182293Z" fill-rule="nonzero"/><path fill="#000000" d="M182.98875 346.77814Q182.98875 346.96564 182.9575 347.10626Q182.94188 347.23126 182.87938 347.3094Q182.8325 347.3875 182.77 347.41876Q182.7075 347.45 182.645 347.45L176.03563 347.45Q175.97313 347.45 175.91063 347.41876Q175.86375 347.3875 175.80125 347.3094Q175.75438 347.23126 175.72313 347.10626Q175.69188 346.96564 175.69188 346.77814Q175.69188 346.60626 175.72313 346.48126Q175.75438 346.35626 175.78563 346.27814Q175.8325 346.1844 175.895 346.15314Q175.9575 346.10626 176.03563 346.10626L178.67625 346.10626L178.67625 336.4969L176.23875 337.95Q176.05125 338.04376 175.94188 338.075Q175.8325 338.09064 175.75438 338.02814Q175.69188 337.95 175.66063 337.8094Q175.645 337.66876 175.645 337.4344Q175.645 337.27814 175.66063 337.16876Q175.67625 337.04376 175.69188 336.96564Q175.72313 336.8875 175.77 336.825Q175.8325 336.7625 175.92625 336.7L178.8325 334.84064Q178.87938 334.8094 178.92625 334.79376Q178.98875 334.77814 179.06688 334.7625Q179.16063 334.73126 179.27 334.73126Q179.395 334.73126 179.5825 334.73126Q179.81688 334.73126 179.97313 334.7469Q180.12938 334.7625 180.2075 334.79376Q180.30125 334.825 180.3325 334.8875Q180.36375 334.9344 180.36375 334.9969L180.36375 346.10626L182.645 346.10626Q182.72313 346.10626 182.78563 346.15314Q182.86375 346.1844 182.895 346.27814Q182.94188 346.35626 182.9575 346.48126Q182.98875 346.60626 182.98875 346.77814ZM193.06688 340.6375Q193.06688 341.45 192.9575 342.29376Q192.86375 343.1375 192.62938 343.91876Q192.395 344.6844 192.00438 345.3719Q191.61375 346.04376 191.00438 346.5594Q190.41063 347.0594 189.5825 347.35626Q188.75438 347.6375 187.66063 347.6375Q187.23875 347.6375 186.84813 347.575Q186.4575 347.52814 186.12938 347.45Q185.81688 347.3719 185.59813 347.29376Q185.395 347.2 185.28563 347.10626Q185.19188 347.0125 185.145 346.8719Q185.09813 346.71564 185.09813 346.46564Q185.09813 346.2469 185.11375 346.1219Q185.12938 345.9969 185.16063 345.9344Q185.19188 345.85626 185.23875 345.84064Q185.30125 345.8094 185.37938 345.8094Q185.48875 345.8094 185.67625 345.8875Q185.87938 345.95 186.17625 346.04376Q186.47313 346.1375 186.86375 346.21564Q187.27 346.27814 187.77 346.27814Q188.72313 346.27814 189.395 345.91876Q190.0825 345.54376 190.50438 344.9344Q190.94188 344.3094 191.145 343.5125Q191.36375 342.7 191.37938 341.79376Q190.86375 342.09064 190.145 342.325Q189.42625 342.5594 188.48875 342.5594Q187.42625 342.5594 186.7075 342.27814Q185.98875 341.9969 185.55125 341.4969Q185.12938 340.9969 184.92625 340.3094Q184.73875 339.6219 184.73875 338.8094Q184.73875 337.98126 184.98875 337.23126Q185.23875 336.46564 185.75438 335.8875Q186.27 335.3094 187.06688 334.96564Q187.86375 334.6219 188.98875 334.6219Q189.77 334.6219 190.37938 334.825Q190.98875 335.02814 191.44188 335.40314Q191.895 335.77814 192.2075 336.3094Q192.52 336.84064 192.7075 337.5125Q192.895 338.1844 192.97313 338.98126Q193.06688 339.7625 193.06688 340.6375ZM191.34813 340.45Q191.34813 339.2 191.17625 338.34064Q191.02 337.48126 190.69188 336.96564Q190.37938 336.4344 189.91063 336.2Q189.44188 335.96564 188.8325 335.96564Q188.19188 335.96564 187.73875 336.2Q187.28563 336.41876 187.00438 336.8094Q186.72313 337.2 186.5825 337.6844Q186.44188 338.16876 186.44188 338.6844Q186.44188 339.2625 186.56688 339.7469Q186.69188 340.21564 186.9575 340.5594Q187.23875 340.8875 187.67625 341.075Q188.11375 341.2469 188.75438 341.2469Q189.48875 341.2469 190.17625 341.02814Q190.86375 340.8094 191.34813 340.45ZM203.06688 340.6375Q203.06688 341.45 202.9575 342.29376Q202.86375 343.1375 202.62938 343.91876Q202.395 344.6844 202.00438 345.3719Q201.61375 346.04376 201.00438 346.5594Q200.41063 347.0594 199.5825 347.35626Q198.75438 347.6375 197.66063 347.6375Q197.23875 347.6375 196.84813 347.575Q196.4575 347.52814 196.12938 347.45Q195.81688 347.3719 195.59813 347.29376Q195.395 347.2 195.28563 347.10626Q195.19188 347.0125 195.145 346.8719Q195.09813 346.71564 195.09813 346.46564Q195.09813 346.2469 195.11375 346.1219Q195.12938 345.9969 195.16063 345.9344Q195.19188 345.85626 195.23875 345.84064Q195.30125 345.8094 195.37938 345.8094Q195.48875 345.8094 195.67625 345.8875Q195.87938 345.95 196.17625 346.04376Q196.47313 346.1375 196.86375 346.21564Q197.27 346.27814 197.77 346.27814Q198.72313 346.27814 199.395 345.91876Q200.0825 345.54376 200.50438 344.9344Q200.94188 344.3094 201.145 343.5125Q201.36375 342.7 201.37938 341.79376Q200.86375 342.09064 200.145 342.325Q199.42625 342.5594 198.48875 342.5594Q197.42625 342.5594 196.7075 342.27814Q195.98875 341.9969 195.55125 341.4969Q195.12938 340.9969 194.92625 340.3094Q194.73875 339.6219 194.73875 338.8094Q194.73875 337.98126 194.98875 337.23126Q195.23875 336.46564 195.75438 335.8875Q196.27 335.3094 197.06688 334.96564Q197.86375 334.6219 198.98875 334.6219Q199.77 334.6219 200.37938 334.825Q200.98875 335.02814 201.44188 335.40314Q201.895 335.77814 202.2075 336.3094Q202.52 336.84064 202.7075 337.5125Q202.895 338.1844 202.97313 338.98126Q203.06688 339.7625 203.06688 340.6375ZM201.34813 340.45Q201.34813 339.2 201.17625 338.34064Q201.02 337.48126 200.69188 336.96564Q200.37938 336.4344 199.91063 336.2Q199.44188 335.96564 198.8325 335.96564Q198.19188 335.96564 197.73875 336.2Q197.28563 336.41876 197.00438 336.8094Q196.72313 337.2 196.5825 337.6844Q196.44188 338.16876 196.44188 338.6844Q196.44188 339.2625 196.56688 339.7469Q196.69188 340.21564 196.9575 340.5594Q197.23875 340.8875 197.67625 341.075Q198.11375 341.2469 198.75438 341.2469Q199.48875 341.2469 200.17625 341.02814Q200.86375 340.8094 201.34813 340.45ZM213.37938 341.10626Q213.37938 342.5594 213.145 343.7625Q212.92625 344.96564 212.395 345.825Q211.86375 346.6844 211.00438 347.16876Q210.145 347.6375 208.87938 347.6375Q207.69188 347.6375 206.87938 347.21564Q206.06688 346.77814 205.56688 345.96564Q205.06688 345.1375 204.84813 343.9344Q204.645 342.71564 204.645 341.15314Q204.645 339.71564 204.87938 338.5125Q205.11375 337.3094 205.645 336.45Q206.17625 335.575 207.03563 335.10626Q207.895 334.6219 209.145 334.6219Q210.3325 334.6219 211.145 335.0594Q211.97313 335.48126 212.47313 336.3094Q212.97313 337.1219 213.17625 338.34064Q213.37938 339.54376 213.37938 341.10626ZM211.66063 341.21564Q211.66063 340.27814 211.59813 339.52814Q211.53563 338.7625 211.395 338.2Q211.27 337.6219 211.05125 337.2Q210.84813 336.77814 210.55125 336.5125Q210.25438 336.2469 209.87938 336.1219Q209.50438 335.9969 209.03563 335.9969Q208.2075 335.9969 207.69188 336.3875Q207.17625 336.77814 206.87938 337.46564Q206.5825 338.15314 206.47313 339.075Q206.36375 339.98126 206.36375 341.04376Q206.36375 342.46564 206.50438 343.45Q206.66063 344.4344 206.97313 345.0594Q207.28563 345.6844 207.78563 345.98126Q208.28563 346.2625 208.98875 346.2625Q209.53563 346.2625 209.94188 346.09064Q210.36375 345.90314 210.66063 345.575Q210.9575 345.2469 211.145 344.79376Q211.34813 344.34064 211.4575 343.77814Q211.5825 343.21564 211.61375 342.575Q211.66063 341.91876 211.66063 341.21564Z" fill-rule="nonzero"/><path fill="#000000" d="M469.8196 346.73126Q469.8196 346.90314 469.78836 347.04376Q469.7571 347.16876 469.71024 347.2625Q469.679 347.35626 469.60086 347.40314Q469.52274 347.45 469.4446 347.45L462.46024 347.45Q462.3196 347.45 462.21024 347.41876Q462.1165 347.3875 462.03836 347.3094Q461.97586 347.23126 461.929 347.09064Q461.89774 346.9344 461.89774 346.71564Q461.89774 346.52814 461.91336 346.3875Q461.929 346.23126 461.97586 346.1219Q462.02274 345.9969 462.10086 345.8875Q462.179 345.77814 462.28836 345.65314L464.7415 343.0594Q465.60086 342.15314 466.10086 341.45Q466.6165 340.73126 466.89774 340.15314Q467.179 339.5594 467.2571 339.09064Q467.35086 338.60626 467.35086 338.1844Q467.35086 337.7625 467.21024 337.3875Q467.08524 337.0125 466.8196 336.73126Q466.554 336.45 466.16336 336.27814Q465.77274 336.10626 465.27274 336.10626Q464.679 336.10626 464.1946 336.27814Q463.72586 336.45 463.3665 336.65314Q463.02274 336.84064 462.77274 337.0125Q462.53836 337.16876 462.41336 337.16876Q462.35086 337.16876 462.28836 337.1375Q462.2415 337.09064 462.21024 337.0125Q462.179 336.91876 462.14774 336.77814Q462.1321 336.6219 462.1321 336.41876Q462.1321 336.2625 462.14774 336.16876Q462.16336 336.0594 462.179 335.98126Q462.21024 335.90314 462.2415 335.84064Q462.28836 335.7625 462.39774 335.66876Q462.52274 335.5594 462.804 335.3875Q463.10086 335.2 463.52274 335.02814Q463.96024 334.85626 464.47586 334.7469Q465.0071 334.6219 465.58524 334.6219Q466.5071 334.6219 467.1946 334.8875Q467.8821 335.1375 468.33524 335.59064Q468.78836 336.04376 469.0071 336.6375Q469.2415 337.23126 469.2415 337.90314Q469.2415 338.5125 469.1321 339.1219Q469.02274 339.71564 468.679 340.41876Q468.33524 341.10626 467.679 341.96564Q467.02274 342.825 465.929 343.9344L463.929 346.02814L469.429 346.02814Q469.5071 346.02814 469.58524 346.075Q469.66336 346.10626 469.71024 346.2Q469.7571 346.29376 469.78836 346.41876Q469.8196 346.54376 469.8196 346.73126ZM480.22586 341.10626Q480.22586 342.5594 479.9915 343.7625Q479.77274 344.96564 479.2415 345.825Q478.71024 346.6844 477.85086 347.16876Q476.9915 347.6375 475.72586 347.6375Q474.53836 347.6375 473.72586 347.21564Q472.91336 346.77814 472.41336 345.96564Q471.91336 345.1375 471.6946 343.9344Q471.4915 342.71564 471.4915 341.15314Q471.4915 339.71564 471.72586 338.5125Q471.96024 337.3094 472.4915 336.45Q473.02274 335.575 473.8821 335.10626Q474.7415 334.6219 475.9915 334.6219Q477.179 334.6219 477.9915 335.0594Q478.8196 335.48126 479.3196 336.3094Q479.8196 337.1219 480.02274 338.34064Q480.22586 339.54376 480.22586 341.10626ZM478.5071 341.21564Q478.5071 340.27814 478.4446 339.52814Q478.3821 338.7625 478.2415 338.2Q478.1165 337.6219 477.89774 337.2Q477.6946 336.77814 477.39774 336.5125Q477.10086 336.2469 476.72586 336.1219Q476.35086 335.9969 475.8821 335.9969Q475.054 335.9969 474.53836 336.3875Q474.02274 336.77814 473.72586 337.46564Q473.429 338.15314 473.3196 339.075Q473.21024 339.98126 473.21024 341.04376Q473.21024 342.46564 473.35086 343.45Q473.5071 344.4344 473.8196 345.0594Q474.1321 345.6844 474.6321 345.98126Q475.1321 346.2625 475.83524 346.2625Q476.3821 346.2625 476.78836 346.09064Q477.21024 345.90314 477.5071 345.575Q477.804 345.2469 477.9915 344.79376Q478.1946 344.34064 478.304 343.77814Q478.429 343.21564 478.46024 342.575Q478.5071 341.91876 478.5071 341.21564ZM490.22586 341.10626Q490.22586 342.5594 489.9915 343.7625Q489.77274 344.96564 489.2415 345.825Q488.71024 346.6844 487.85086 347.16876Q486.9915 347.6375 485.72586 347.6375Q484.53836 347.6375 483.72586 347.21564Q482.91336 346.77814 482.41336 345.96564Q481.91336 345.1375 481.6946 343.9344Q481.4915 342.71564 481.4915 341.15314Q481.4915 339.71564 481.72586 338.5125Q481.96024 337.3094 482.4915 336.45Q483.02274 335.575 483.8821 335.10626Q484.7415 334.6219 485.9915 334.6219Q487.179 334.6219 487.9915 335.0594Q488.8196 335.48126 489.3196 336.3094Q489.8196 337.1219 490.02274 338.34064Q490.22586 339.54376 490.22586 341.10626ZM488.5071 341.21564Q488.5071 340.27814 488.4446 339.52814Q488.3821 338.7625 488.2415 338.2Q488.1165 337.6219 487.89774 337.2Q487.6946 336.77814 487.39774 336.5125Q487.10086 336.2469 486.72586 336.1219Q486.35086 335.9969 485.8821 335.9969Q485.054 335.9969 484.53836 336.3875Q484.02274 336.77814 483.72586 337.46564Q483.429 338.15314 483.3196 339.075Q483.21024 339.98126 483.21024 341.04376Q483.21024 342.46564 483.35086 343.45Q483.5071 344.4344 483.8196 345.0594Q484.1321 345.6844 484.6321 345.98126Q485.1321 346.2625 485.83524 346.2625Q486.3821 346.2625 486.78836 346.09064Q487.21024 345.90314 487.5071 345.575Q487.804 345.2469 487.9915 344.79376Q488.1946 344.34064 488.304 343.77814Q488.429 343.21564 488.46024 342.575Q488.5071 341.91876 488.5071 341.21564ZM500.22586 341.10626Q500.22586 342.5594 499.9915 343.7625Q499.77274 344.96564 499.2415 345.825Q498.71024 346.6844 497.85086 347.16876Q496.9915 347.6375 495.72586 347.6375Q494.53836 347.6375 493.72586 347.21564Q492.91336 346.77814 492.41336 345.96564Q491.91336 345.1375 491.6946 343.9344Q491.4915 342.71564 491.4915 341.15314Q491.4915 339.71564 491.72586 338.5125Q491.96024 337.3094 492.4915 336.45Q493.02274 335.575 493.8821 335.10626Q494.7415 334.6219 495.9915 334.6219Q497.179 334.6219 497.9915 335.0594Q498.8196 335.48126 499.3196 336.3094Q499.8196 337.1219 500.02274 338.34064Q500.22586 339.54376 500.22586 341.10626ZM498.5071 341.21564Q498.5071 340.27814 498.4446 339.52814Q498.3821 338.7625 498.2415 338.2Q498.1165 337.6219 497.89774 337.2Q497.6946 336.77814 497.39774 336.5125Q497.10086 336.2469 496.72586 336.1219Q496.35086 335.9969 495.8821 335.9969Q495.054 335.9969 494.53836 336.3875Q494.02274 336.77814 493.72586 337.46564Q493.429 338.15314 493.3196 339.075Q493.21024 339.98126 493.21024 341.04376Q493.21024 342.46564 493.35086 343.45Q493.5071 344.4344 493.8196 345.0594Q494.1321 345.6844 494.6321 345.98126Q495.1321 346.2625 495.83524 346.2625Q496.3821 346.2625 496.78836 346.09064Q497.21024 345.90314 497.5071 345.575Q497.804 345.2469 497.9915 344.79376Q498.1946 344.34064 498.304 343.77814Q498.429 343.21564 498.46024 342.575Q498.5071 341.91876 498.5071 341.21564Z" fill-rule="nonzero"/><path fill="#000000" d="M756.66614 346.73126Q756.66614 346.90314 756.6349 347.04376Q756.60364 347.16876 756.55676 347.2625Q756.5255 347.35626 756.4474 347.40314Q756.36926 347.45 756.29114 347.45L749.30676 347.45Q749.16614 347.45 749.05676 347.41876Q748.963 347.3875 748.8849 347.3094Q748.8224 347.23126 748.7755 347.09064Q748.74426 346.9344 748.74426 346.71564Q748.74426 346.52814 748.7599 346.3875Q748.7755 346.23126 748.8224 346.1219Q748.86926 345.9969 748.9474 345.8875Q749.0255 345.77814 749.1349 345.65314L751.588 343.0594Q752.4474 342.15314 752.9474 341.45Q753.463 340.73126 753.74426 340.15314Q754.0255 339.5594 754.10364 339.09064Q754.1974 338.60626 754.1974 338.1844Q754.1974 337.7625 754.05676 337.3875Q753.93176 337.0125 753.66614 336.73126Q753.4005 336.45 753.0099 336.27814Q752.61926 336.10626 752.11926 336.10626Q751.5255 336.10626 751.04114 336.27814Q750.5724 336.45 750.213 336.65314Q749.86926 336.84064 749.61926 337.0125Q749.3849 337.16876 749.2599 337.16876Q749.1974 337.16876 749.1349 337.1375Q749.088 337.09064 749.05676 337.0125Q749.0255 336.91876 748.99426 336.77814Q748.97864 336.6219 748.97864 336.41876Q748.97864 336.2625 748.99426 336.16876Q749.0099 336.0594 749.0255 335.98126Q749.05676 335.90314 749.088 335.84064Q749.1349 335.7625 749.24426 335.66876Q749.36926 335.5594 749.6505 335.3875Q749.9474 335.2 750.36926 335.02814Q750.80676 334.85626 751.3224 334.7469Q751.85364 334.6219 752.43176 334.6219Q753.35364 334.6219 754.04114 334.8875Q754.72864 335.1375 755.18176 335.59064Q755.6349 336.04376 755.85364 336.6375Q756.088 337.23126 756.088 337.90314Q756.088 338.5125 755.97864 339.1219Q755.86926 339.71564 755.5255 340.41876Q755.18176 341.10626 754.5255 341.96564Q753.86926 342.825 752.7755 343.9344L750.7755 346.02814L756.2755 346.02814Q756.35364 346.02814 756.43176 346.075Q756.5099 346.10626 756.55676 346.2Q756.60364 346.29376 756.6349 346.41876Q756.66614 346.54376 756.66614 346.73126ZM767.0724 341.10626Q767.0724 342.5594 766.838 343.7625Q766.61926 344.96564 766.088 345.825Q765.55676 346.6844 764.6974 347.16876Q763.838 347.6375 762.5724 347.6375Q761.3849 347.6375 760.5724 347.21564Q759.7599 346.77814 759.2599 345.96564Q758.7599 345.1375 758.54114 343.9344Q758.338 342.71564 758.338 341.15314Q758.338 339.71564 758.5724 338.5125Q758.80676 337.3094 759.338 336.45Q759.86926 335.575 760.72864 335.10626Q761.588 334.6219 762.838 334.6219Q764.0255 334.6219 764.838 335.0594Q765.66614 335.48126 766.16614 336.3094Q766.66614 337.1219 766.86926 338.34064Q767.0724 339.54376 767.0724 341.10626ZM765.35364 341.21564Q765.35364 340.27814 765.29114 339.52814Q765.22864 338.7625 765.088 338.2Q764.963 337.6219 764.74426 337.2Q764.54114 336.77814 764.24426 336.5125Q763.9474 336.2469 763.5724 336.1219Q763.1974 335.9969 762.72864 335.9969Q761.9005 335.9969 761.3849 336.3875Q760.86926 336.77814 760.5724 337.46564Q760.2755 338.15314 760.16614 339.075Q760.05676 339.98126 760.05676 341.04376Q760.05676 342.46564 760.1974 343.45Q760.35364 344.4344 760.66614 345.0594Q760.97864 345.6844 761.47864 345.98126Q761.97864 346.2625 762.68176 346.2625Q763.22864 346.2625 763.6349 346.09064Q764.05676 345.90314 764.35364 345.575Q764.6505 345.2469 764.838 344.79376Q765.04114 344.34064 765.1505 343.77814Q765.2755 343.21564 765.30676 342.575Q765.35364 341.91876 765.35364 341.21564ZM776.68176 346.77814Q776.68176 346.96564 776.6505 347.10626Q776.6349 347.23126 776.5724 347.3094Q776.5255 347.3875 776.463 347.41876Q776.4005 347.45 776.338 347.45L769.72864 347.45Q769.66614 347.45 769.60364 347.41876Q769.55676 347.3875 769.49426 347.3094Q769.4474 347.23126 769.41614 347.10626Q769.3849 346.96564 769.3849 346.77814Q769.3849 346.60626 769.41614 346.48126Q769.4474 346.35626 769.47864 346.27814Q769.5255 346.1844 769.588 346.15314Q769.6505 346.10626 769.72864 346.10626L772.36926 346.10626L772.36926 336.4969L769.93176 337.95Q769.74426 338.04376 769.6349 338.075Q769.5255 338.09064 769.4474 338.02814Q769.3849 337.95 769.35364 337.8094Q769.338 337.66876 769.338 337.4344Q769.338 337.27814 769.35364 337.16876Q769.36926 337.04376 769.3849 336.96564Q769.41614 336.8875 769.463 336.825Q769.5255 336.7625 769.61926 336.7L772.5255 334.84064Q772.5724 334.8094 772.61926 334.79376Q772.68176 334.77814 772.7599 334.7625Q772.85364 334.73126 772.963 334.73126Q773.088 334.73126 773.2755 334.73126Q773.5099 334.73126 773.66614 334.7469Q773.8224 334.7625 773.9005 334.79376Q773.99426 334.825 774.0255 334.8875Q774.05676 334.9344 774.05676 334.9969L774.05676 346.10626L776.338 346.10626Q776.41614 346.10626 776.47864 346.15314Q776.55676 346.1844 776.588 346.27814Q776.6349 346.35626 776.6505 346.48126Q776.68176 346.60626 776.68176 346.77814ZM787.0724 341.10626Q787.0724 342.5594 786.838 343.7625Q786.61926 344.96564 786.088 345.825Q785.55676 346.6844 784.6974 347.16876Q783.838 347.6375 782.5724 347.6375Q781.3849 347.6375 780.5724 347.21564Q779.7599 346.77814 779.2599 345.96564Q778.7599 345.1375 778.54114 343.9344Q778.338 342.71564 778.338 341.15314Q778.338 339.71564 778.5724 338.5125Q778.80676 337.3094 779.338 336.45Q779.86926 335.575 780.72864 335.10626Q781.588 334.6219 782.838 334.6219Q784.0255 334.6219 784.838 335.0594Q785.66614 335.48126 786.16614 336.3094Q786.66614 337.1219 786.86926 338.34064Q787.0724 339.54376 787.0724 341.10626ZM785.35364 341.21564Q785.35364 340.27814 785.29114 339.52814Q785.22864 338.7625 785.088 338.2Q784.963 337.6219 784.74426 337.2Q784.54114 336.77814 784.24426 336.5125Q783.9474 336.2469 783.5724 336.1219Q783.1974 335.9969 782.72864 335.9969Q781.9005 335.9969 781.3849 336.3875Q780.86926 336.77814 780.5724 337.46564Q780.2755 338.15314 780.16614 339.075Q780.05676 339.98126 780.05676 341.04376Q780.05676 342.46564 780.1974 343.45Q780.35364 344.4344 780.66614 345.0594Q780.97864 345.6844 781.47864 345.98126Q781.97864 346.2625 782.68176 346.2625Q783.22864 346.2625 783.6349 346.09064Q784.05676 345.90314 784.35364 345.575Q784.6505 345.2469 784.838 344.79376Q785.04114 344.34064 785.1505 343.77814Q785.2755 343.21564 785.30676 342.575Q785.35364 341.91876 785.35364 341.21564Z" fill-rule="nonzero"/><path fill="#000000" d="M1043.5126 346.73126Q1043.5126 346.90314 1043.4813 347.04376Q1043.4501 347.16876 1043.4032 347.2625Q1043.372 347.35626 1043.2938 347.40314Q1043.2157 347.45 1043.1376 347.45L1036.1532 347.45Q1036.0126 347.45 1035.9032 347.41876Q1035.8094 347.3875 1035.7313 347.3094Q1035.6688 347.23126 1035.622 347.09064Q1035.5907 346.9344 1035.5907 346.71564Q1035.5907 346.52814 1035.6063 346.3875Q1035.622 346.23126 1035.6688 346.1219Q1035.7157 345.9969 1035.7938 345.8875Q1035.872 345.77814 1035.9813 345.65314L1038.4344 343.0594Q1039.2938 342.15314 1039.7938 341.45Q1040.3094 340.73126 1040.5907 340.15314Q1040.872 339.5594 1040.9501 339.09064Q1041.0438 338.60626 1041.0438 338.1844Q1041.0438 337.7625 1040.9032 337.3875Q1040.7782 337.0125 1040.5126 336.73126Q1040.247 336.45 1039.8563 336.27814Q1039.4657 336.10626 1038.9657 336.10626Q1038.372 336.10626 1037.8876 336.27814Q1037.4188 336.45 1037.0594 336.65314Q1036.7157 336.84064 1036.4657 337.0125Q1036.2313 337.16876 1036.1063 337.16876Q1036.0438 337.16876 1035.9813 337.1375Q1035.9344 337.09064 1035.9032 337.0125Q1035.872 336.91876 1035.8407 336.77814Q1035.8251 336.6219 1035.8251 336.41876Q1035.8251 336.2625 1035.8407 336.16876Q1035.8563 336.0594 1035.872 335.98126Q1035.9032 335.90314 1035.9344 335.84064Q1035.9813 335.7625 1036.0907 335.66876Q1036.2157 335.5594 1036.497 335.3875Q1036.7938 335.2 1037.2157 335.02814Q1037.6532 334.85626 1038.1688 334.7469Q1038.7001 334.6219 1039.2782 334.6219Q1040.2001 334.6219 1040.8876 334.8875Q1041.5751 335.1375 1042.0282 335.59064Q1042.4813 336.04376 1042.7001 336.6375Q1042.9344 337.23126 1042.9344 337.90314Q1042.9344 338.5125 1042.8251 339.1219Q1042.7157 339.71564 1042.372 340.41876Q1042.0282 341.10626 1041.372 341.96564Q1040.7157 342.825 1039.622 343.9344L1037.622 346.02814L1043.122 346.02814Q1043.2001 346.02814 1043.2782 346.075Q1043.3563 346.10626 1043.4032 346.2Q1043.4501 346.29376 1043.4813 346.41876Q1043.5126 346.54376 1043.5126 346.73126ZM1053.9188 341.10626Q1053.9188 342.5594 1053.6844 343.7625Q1053.4657 344.96564 1052.9344 345.825Q1052.4032 346.6844 1051.5438 347.16876Q1050.6844 347.6375 1049.4188 347.6375Q1048.2313 347.6375 1047.4188 347.21564Q1046.6063 346.77814 1046.1063 345.96564Q1045.6063 345.1375 1045.3876 343.9344Q1045.1844 342.71564 1045.1844 341.15314Q1045.1844 339.71564 1045.4188 338.5125Q1045.6532 337.3094 1046.1844 336.45Q1046.7157 335.575 1047.5751 335.10626Q1048.4344 334.6219 1049.6844 334.6219Q1050.872 334.6219 1051.6844 335.0594Q1052.5126 335.48126 1053.0126 336.3094Q1053.5126 337.1219 1053.7157 338.34064Q1053.9188 339.54376 1053.9188 341.10626ZM1052.2001 341.21564Q1052.2001 340.27814 1052.1376 339.52814Q1052.0751 338.7625 1051.9344 338.2Q1051.8094 337.6219 1051.5907 337.2Q1051.3876 336.77814 1051.0907 336.5125Q1050.7938 336.2469 1050.4188 336.1219Q1050.0438 335.9969 1049.5751 335.9969Q1048.747 335.9969 1048.2313 336.3875Q1047.7157 336.77814 1047.4188 337.46564Q1047.122 338.15314 1047.0126 339.075Q1046.9032 339.98126 1046.9032 341.04376Q1046.9032 342.46564 1047.0438 343.45Q1047.2001 344.4344 1047.5126 345.0594Q1047.8251 345.6844 1048.3251 345.98126Q1048.8251 346.2625 1049.5282 346.2625Q1050.0751 346.2625 1050.4813 346.09064Q1050.9032 345.90314 1051.2001 345.575Q1051.497 345.2469 1051.6844 344.79376Q1051.8876 344.34064 1051.997 343.77814Q1052.122 343.21564 1052.1532 342.575Q1052.2001 341.91876 1052.2001 341.21564ZM1063.5126 346.73126Q1063.5126 346.90314 1063.4813 347.04376Q1063.4501 347.16876 1063.4032 347.2625Q1063.372 347.35626 1063.2938 347.40314Q1063.2157 347.45 1063.1376 347.45L1056.1532 347.45Q1056.0126 347.45 1055.9032 347.41876Q1055.8094 347.3875 1055.7313 347.3094Q1055.6688 347.23126 1055.622 347.09064Q1055.5907 346.9344 1055.5907 346.71564Q1055.5907 346.52814 1055.6063 346.3875Q1055.622 346.23126 1055.6688 346.1219Q1055.7157 345.9969 1055.7938 345.8875Q1055.872 345.77814 1055.9813 345.65314L1058.4344 343.0594Q1059.2938 342.15314 1059.7938 341.45Q1060.3094 340.73126 1060.5907 340.15314Q1060.872 339.5594 1060.9501 339.09064Q1061.0438 338.60626 1061.0438 338.1844Q1061.0438 337.7625 1060.9032 337.3875Q1060.7782 337.0125 1060.5126 336.73126Q1060.247 336.45 1059.8563 336.27814Q1059.4657 336.10626 1058.9657 336.10626Q1058.372 336.10626 1057.8876 336.27814Q1057.4188 336.45 1057.0594 336.65314Q1056.7157 336.84064 1056.4657 337.0125Q1056.2313 337.16876 1056.1063 337.16876Q1056.0438 337.16876 1055.9813 337.1375Q1055.9344 337.09064 1055.9032 337.0125Q1055.872 336.91876 1055.8407 336.77814Q1055.8251 336.6219 1055.8251 336.41876Q1055.8251 336.2625 1055.8407 336.16876Q1055.8563 336.0594 1055.872 335.98126Q1055.9032 335.90314 1055.9344 335.84064Q1055.9813 335.7625 1056.0907 335.66876Q1056.2157 335.5594 1056.497 335.3875Q1056.7938 335.2 1057.2157 335.02814Q1057.6532 334.85626 1058.1688 334.7469Q1058.7001 334.6219 1059.2782 334.6219Q1060.2001 334.6219 1060.8876 334.8875Q1061.5751 335.1375 1062.0282 335.59064Q1062.4813 336.04376 1062.7001 336.6375Q1062.9344 337.23126 1062.9344 337.90314Q1062.9344 338.5125 1062.8251 339.1219Q1062.7157 339.71564 1062.372 340.41876Q1062.0282 341.10626 1061.372 341.96564Q1060.7157 342.825 1059.622 343.9344L1057.622 346.02814L1063.122 346.02814Q1063.2001 346.02814 1063.2782 346.075Q1063.3563 346.10626 1063.4032 346.2Q1063.4501 346.29376 1063.4813 346.41876Q1063.5126 346.54376 1063.5126 346.73126ZM1073.9188 341.10626Q1073.9188 342.5594 1073.6844 343.7625Q1073.4657 344.96564 1072.9344 345.825Q1072.4032 346.6844 1071.5438 347.16876Q1070.6844 347.6375 1069.4188 347.6375Q1068.2313 347.6375 1067.4188 347.21564Q1066.6063 346.77814 1066.1063 345.96564Q1065.6063 345.1375 1065.3876 343.9344Q1065.1844 342.71564 1065.1844 341.15314Q1065.1844 339.71564 1065.4188 338.5125Q1065.6532 337.3094 1066.1844 336.45Q1066.7157 335.575 1067.5751 335.10626Q1068.4344 334.6219 1069.6844 334.6219Q1070.872 334.6219 1071.6844 335.0594Q1072.5126 335.48126 1073.0126 336.3094Q1073.5126 337.1219 1073.7157 338.34064Q1073.9188 339.54376 1073.9188 341.10626ZM1072.2001 341.21564Q1072.2001 340.27814 1072.1376 339.52814Q1072.0751 338.7625 1071.9344 338.2Q1071.8094 337.6219 1071.5907 337.2Q1071.3876 336.77814 1071.0907 336.5125Q1070.7938 336.2469 1070.4188 336.1219Q1070.0438 335.9969 1069.5751 335.9969Q1068.747 335.9969 1068.2313 336.3875Q1067.7157 336.77814 1067.4188 337.46564Q1067.122 338.15314 1067.0126 339.075Q1066.9032 339.98126 1066.9032 341.04376Q1066.9032 342.46564 1067.0438 343.45Q1067.2001 344.4344 1067.5126 345.0594Q1067.8251 345.6844 1068.3251 345.98126Q1068.8251 346.2625 1069.5282 346.2625Q1070.0751 346.2625 1070.4813 346.09064Q1070.9032 345.90314 1071.2001 345.575Q1071.497 345.2469 1071.6844 344.79376Q1071.8876 344.34064 1071.997 343.77814Q1072.122 343.21564 1072.1532 342.575Q1072.2001 341.91876 1072.2001 341.21564Z" fill-rule="nonzero"/><path fill="#000000" d="M459.0 30.55C459.0 33.86371 456.31372 36.55 453.0 36.55C449.68628 36.55 447.0 33.86371 447.0 30.55C447.0 27.236292 449.68628 24.55 453.0 24.55C456.31372 24.55 459.0 27.236292 459.0 30.55Z" fill-rule="nonzero"/><path fill="#1a1a1a" d="M485.5 36.2375Q485.5 36.33125 485.45312 36.409374Q485.40625 36.471874 485.28125 36.51875Q485.17188 36.565624 484.98438 36.596874Q484.8125 36.628124 484.51562 36.628124Q484.25 36.628124 484.04688 36.596874Q483.85938 36.565624 483.75 36.51875Q483.64062 36.471874 483.59375 36.409374Q483.54688 36.33125 483.54688 36.2375L483.54688 23.034374L483.53125 23.034374L478.125 36.3Q478.09375 36.378124 478.01562 36.440624Q477.95312 36.503124 477.82812 36.55Q477.71875 36.58125 477.54688 36.596874Q477.375 36.628124 477.14062 36.628124Q476.89062 36.628124 476.71875 36.596874Q476.54688 36.58125 476.42188 36.534374Q476.3125 36.4875 476.23438 36.440624Q476.17188 36.378124 476.15625 36.3L470.98438 23.034374L470.96875 23.034374L470.96875 36.2375Q470.96875 36.33125 470.92188 36.409374Q470.875 36.471874 470.75 36.51875Q470.64062 36.565624 470.45312 36.596874Q470.26562 36.628124 469.98438 36.628124Q469.70312 36.628124 469.51562 36.596874Q469.32812 36.565624 469.20312 36.51875Q469.09375 36.471874 469.04688 36.409374Q469.01562 36.33125 469.01562 36.2375L469.01562 22.3Q469.01562 21.8 469.26562 21.596874Q469.53125 21.378124 469.84375 21.378124L471.0625 21.378124Q471.4375 21.378124 471.71875 21.45625Q472.0 21.51875 472.20312 21.675Q472.42188 21.83125 472.5625 22.065624Q472.70312 22.3 472.8125 22.6125L477.20312 33.596874L477.26562 33.596874L481.84375 22.64375Q481.96875 22.3 482.10938 22.05Q482.26562 21.8 482.45312 21.659374Q482.64062 21.51875 482.85938 21.45625Q483.07812 21.378124 483.375 21.378124L484.65625 21.378124Q484.82812 21.378124 484.98438 21.440624Q485.14062 21.4875 485.25 21.596874Q485.35938 21.70625 485.42188 21.878124Q485.5 22.05 485.5 22.3L485.5 36.2375ZM498.79688 30.51875Q498.79688 30.9875 498.5625 31.175Q498.34375 31.3625 498.04688 31.3625L491.125 31.3625Q491.125 32.253124 491.29688 32.95625Q491.48438 33.659374 491.89062 34.159374Q492.29688 34.659374 492.95312 34.940624Q493.60938 35.20625 494.5625 35.20625Q495.3125 35.20625 495.89062 35.08125Q496.48438 34.95625 496.90625 34.8Q497.34375 34.64375 497.60938 34.534374Q497.89062 34.409374 498.03125 34.409374Q498.10938 34.409374 498.17188 34.45625Q498.25 34.4875 498.28125 34.565624Q498.3125 34.64375 498.32812 34.8Q498.34375 34.940624 498.34375 35.159374Q498.34375 35.3 498.32812 35.425Q498.32812 35.534374 498.3125 35.628124Q498.29688 35.70625 498.25 35.784374Q498.20312 35.846874 498.14062 35.909374Q498.07812 35.971874 497.76562 36.128124Q497.45312 36.26875 496.9375 36.409374Q496.4375 36.55 495.76562 36.659374Q495.10938 36.76875 494.35938 36.76875Q493.0625 36.76875 492.07812 36.409374Q491.10938 36.05 490.4375 35.33125Q489.76562 34.6125 489.42188 33.534374Q489.09375 32.45625 489.09375 31.034374Q489.09375 29.675 489.4375 28.596874Q489.79688 27.503124 490.45312 26.753124Q491.125 25.9875 492.0625 25.58125Q493.0 25.175 494.15625 25.175Q495.39062 25.175 496.26562 25.58125Q497.14062 25.971874 497.70312 26.659374Q498.26562 27.33125 498.53125 28.2375Q498.79688 29.14375 498.79688 30.175L498.79688 30.51875ZM496.84375 29.95625Q496.89062 28.425 496.17188 27.565624Q495.46875 26.690624 494.07812 26.690624Q493.35938 26.690624 492.8125 26.971874Q492.28125 27.2375 491.90625 27.690624Q491.54688 28.128124 491.34375 28.721874Q491.15625 29.3 491.125 29.95625L496.84375 29.95625ZM510.82812 36.253124Q510.82812 36.346874 510.78125 36.425Q510.75 36.4875 510.64062 36.534374Q510.54688 36.58125 510.375 36.596874Q510.21875 36.628124 509.98438 36.628124Q509.73438 36.628124 509.5625 36.596874Q509.40625 36.58125 509.29688 36.534374Q509.20312 36.4875 509.15625 36.425Q509.10938 36.346874 509.10938 36.253124L509.10938 34.8625Q508.28125 35.76875 507.375 36.26875Q506.48438 36.76875 505.42188 36.76875Q504.25 36.76875 503.42188 36.315624Q502.60938 35.8625 502.09375 35.096874Q501.59375 34.33125 501.35938 33.3Q501.125 32.253124 501.125 31.1125Q501.125 29.753124 501.42188 28.659374Q501.71875 27.565624 502.28125 26.8Q502.85938 26.01875 503.70312 25.596874Q504.5625 25.175 505.67188 25.175Q506.59375 25.175 507.35938 25.58125Q508.14062 25.9875 508.89062 26.76875L508.89062 20.64375Q508.89062 20.565624 508.92188 20.4875Q508.96875 20.409374 509.07812 20.378124Q509.20312 20.33125 509.375 20.3Q509.5625 20.26875 509.84375 20.26875Q510.14062 20.26875 510.32812 20.3Q510.51562 20.33125 510.60938 20.378124Q510.71875 20.409374 510.76562 20.4875Q510.82812 20.565624 510.82812 20.64375L510.82812 36.253124ZM508.89062 28.83125Q508.09375 27.8625 507.35938 27.3625Q506.64062 26.846874 505.84375 26.846874Q505.09375 26.846874 504.57812 27.20625Q504.0625 27.55 503.73438 28.128124Q503.42188 28.690624 503.26562 29.425Q503.125 30.14375 503.125 30.89375Q503.125 31.690624 503.25 32.45625Q503.375 33.221874 503.67188 33.815624Q503.98438 34.409374 504.48438 34.76875Q505.0 35.1125 505.75 35.1125Q506.14062 35.1125 506.5 35.01875Q506.85938 34.909374 507.23438 34.659374Q507.60938 34.409374 508.01562 34.01875Q508.42188 33.628124 508.89062 33.05L508.89062 28.83125ZM516.7344 36.253124Q516.7344 36.346874 516.6875 36.409374Q516.6406 36.471874 516.53125 36.534374Q516.4219 36.58125 516.2344 36.596874Q516.0469 36.628124 515.75 36.628124Q515.46875 36.628124 515.28125 36.596874Q515.09375 36.58125 514.9844 36.534374Q514.875 36.471874 514.8281 36.409374Q514.7969 36.346874 514.7969 36.253124L514.7969 25.70625Q514.7969 25.628124 514.8281 25.565624Q514.875 25.4875 514.9844 25.440624Q515.09375 25.39375 515.28125 25.378124Q515.46875 25.346874 515.75 25.346874Q516.0469 25.346874 516.2344 25.378124Q516.4219 25.39375 516.53125 25.440624Q516.6406 25.4875 516.6875 25.565624Q516.7344 25.628124 516.7344 25.70625L516.7344 36.253124ZM516.9531 22.14375Q516.9531 22.83125 516.6875 23.08125Q516.4375 23.315624 515.75 23.315624Q515.0625 23.315624 514.8125 23.08125Q514.5625 22.83125 514.5625 22.175Q514.5625 21.4875 514.8125 21.253124Q515.0781 21.003124 515.7656 21.003124Q516.4531 21.003124 516.7031 21.2375Q516.9531 21.471874 516.9531 22.14375ZM528.7344 36.26875Q528.7344 36.409374 528.6406 36.4875Q528.5469 36.55 528.375 36.58125Q528.21875 36.628124 527.90625 36.628124Q527.6094 36.628124 527.4219 36.58125Q527.2344 36.55 527.15625 36.4875Q527.0781 36.409374 527.0781 36.26875L527.0781 35.20625Q526.3906 35.95625 525.53125 36.3625Q524.6875 36.76875 523.7344 36.76875Q522.90625 36.76875 522.2344 36.55Q521.5625 36.33125 521.0781 35.925Q520.6094 35.51875 520.34375 34.925Q520.0781 34.315624 520.0781 33.565624Q520.0781 32.675 520.4375 32.01875Q520.8125 31.3625 521.4844 30.925Q522.1719 30.4875 523.15625 30.26875Q524.1406 30.05 525.3594 30.05L526.8125 30.05L526.8125 29.2375Q526.8125 28.628124 526.6875 28.159374Q526.5625 27.690624 526.2656 27.378124Q525.9844 27.065624 525.53125 26.909374Q525.0781 26.753124 524.40625 26.753124Q523.6875 26.753124 523.1094 26.925Q522.5469 27.096874 522.125 27.3Q521.7031 27.503124 521.40625 27.675Q521.125 27.846874 520.9844 27.846874Q520.8906 27.846874 520.8125 27.8Q520.75 27.753124 520.6875 27.659374Q520.6406 27.565624 520.6094 27.425Q520.59375 27.26875 520.59375 27.096874Q520.59375 26.8 520.625 26.628124Q520.6719 26.45625 520.8281 26.315624Q521.0 26.159374 521.375 25.95625Q521.7656 25.7375 522.2656 25.58125Q522.78125 25.409374 523.375 25.3Q523.96875 25.175 524.5781 25.175Q525.71875 25.175 526.5156 25.440624Q527.3125 25.690624 527.7969 26.190624Q528.2969 26.690624 528.5156 27.440624Q528.7344 28.175 528.7344 29.159374L528.7344 36.26875ZM526.8125 31.45625L525.1719 31.45625Q524.375 31.45625 523.78125 31.596874Q523.2031 31.721874 522.8125 31.9875Q522.4219 32.253124 522.2344 32.628124Q522.0625 32.9875 522.0625 33.471874Q522.0625 34.284374 522.5781 34.76875Q523.1094 35.253124 524.0469 35.253124Q524.7969 35.253124 525.4531 34.878124Q526.1094 34.4875 526.8125 33.690624L526.8125 31.45625ZM541.875 36.253124Q541.875 36.346874 541.8281 36.409374Q541.78125 36.471874 541.6719 36.534374Q541.5781 36.58125 541.3906 36.596874Q541.2031 36.628124 540.9219 36.628124Q540.625 36.628124 540.4375 36.596874Q540.25 36.58125 540.1406 36.534374Q540.03125 36.471874 539.9844 36.409374Q539.9375 36.346874 539.9375 36.253124L539.9375 30.08125Q539.9375 29.175 539.7969 28.628124Q539.65625 28.08125 539.3906 27.690624Q539.125 27.284374 538.6875 27.08125Q538.2656 26.8625 537.7031 26.8625Q536.9844 26.8625 536.25 27.378124Q535.53125 27.89375 534.7344 28.878124L534.7344 36.253124Q534.7344 36.346874 534.6875 36.409374Q534.6406 36.471874 534.53125 36.534374Q534.4219 36.58125 534.2344 36.596874Q534.0469 36.628124 533.75 36.628124Q533.46875 36.628124 533.28125 36.596874Q533.09375 36.58125 532.9844 36.534374Q532.875 36.471874 532.8281 36.409374Q532.7969 36.346874 532.7969 36.253124L532.7969 25.70625Q532.7969 25.6125 532.8281 25.55Q532.8594 25.4875 532.96875 25.440624Q533.0781 25.378124 533.2344 25.3625Q533.40625 25.346874 533.6719 25.346874Q533.9375 25.346874 534.09375 25.3625Q534.2656 25.378124 534.3594 25.440624Q534.4531 25.4875 534.5 25.55Q534.5469 25.6125 534.5469 25.70625L534.5469 27.096874Q535.4375 26.1125 536.3125 25.64375Q537.2031 25.175 538.1094 25.175Q539.15625 25.175 539.875 25.534374Q540.59375 25.89375 541.03125 26.503124Q541.4844 27.096874 541.6719 27.89375Q541.875 28.690624 541.875 29.815624L541.875 36.253124ZM555.5469 30.628124Q555.5469 31.08125 555.4375 31.26875Q555.3281 31.440624 555.125 31.440624L550.2344 31.440624Q550.0156 31.440624 549.90625 31.26875Q549.8125 31.08125 549.8125 30.628124Q549.8125 30.190624 549.90625 30.01875Q550.0156 29.83125 550.2344 29.83125L555.125 29.83125Q555.21875 29.83125 555.2969 29.878124Q555.375 29.909374 555.4219 30.003124Q555.4844 30.096874 555.5156 30.253124Q555.5469 30.409374 555.5469 30.628124ZM571.7656 31.675Q571.7656 32.89375 571.34375 33.846874Q570.9375 34.784374 570.1875 35.440624Q569.4375 36.096874 568.3906 36.440624Q567.3594 36.76875 566.09375 36.76875Q565.3906 36.76875 564.75 36.675Q564.125 36.58125 563.625 36.440624Q563.1406 36.284374 562.8281 36.14375Q562.5156 36.003124 562.4219 35.925Q562.34375 35.83125 562.2969 35.76875Q562.2656 35.690624 562.2344 35.596874Q562.2031 35.4875 562.1875 35.346874Q562.1875 35.190624 562.1875 34.971874Q562.1875 34.784374 562.2031 34.628124Q562.21875 34.45625 562.2656 34.3625Q562.3125 34.26875 562.375 34.221874Q562.4375 34.175 562.53125 34.175Q562.6406 34.175 562.8906 34.315624Q563.1406 34.45625 563.5469 34.628124Q563.96875 34.8 564.5781 34.95625Q565.2031 35.1125 566.0469 35.1125Q566.8281 35.1125 567.4844 34.925Q568.1406 34.7375 568.6094 34.346874Q569.09375 33.940624 569.3594 33.33125Q569.625 32.721874 569.625 31.8625Q569.625 31.128124 569.3906 30.58125Q569.1719 30.01875 568.6875 29.659374Q568.21875 29.284374 567.4844 29.1125Q566.7656 28.925 565.7656 28.925Q565.0469 28.925 564.53125 29.003124Q564.0156 29.065624 563.5625 29.065624Q563.2344 29.065624 563.09375 28.909374Q562.9531 28.753124 562.9531 28.315624L562.9531 22.14375Q562.9531 21.753124 563.1406 21.565624Q563.3281 21.378124 563.65625 21.378124L570.375 21.378124Q570.46875 21.378124 570.5469 21.440624Q570.6406 21.4875 570.7031 21.596874Q570.7656 21.70625 570.7969 21.878124Q570.8281 22.034374 570.8281 22.253124Q570.8281 22.675 570.7031 22.909374Q570.59375 23.14375 570.375 23.14375L564.71875 23.14375L564.71875 27.39375Q565.125 27.33125 565.5469 27.33125Q565.9844 27.315624 566.5469 27.315624Q567.84375 27.315624 568.8125 27.628124Q569.7969 27.940624 570.4375 28.503124Q571.09375 29.065624 571.4219 29.878124Q571.7656 30.690624 571.7656 31.675ZM584.59375 36.55L583.1875 40.425Q583.125 40.6125 582.8281 40.70625Q582.5469 40.815624 581.96875 40.815624Q581.65625 40.815624 581.46875 40.784374Q581.28125 40.753124 581.1719 40.675Q581.0781 40.6125 581.0625 40.4875Q581.0625 40.378124 581.125 40.221874L582.5781 36.55Q582.4844 36.503124 582.3906 36.39375Q582.2969 36.284374 582.25 36.175L578.5 26.096874Q578.40625 25.846874 578.40625 25.70625Q578.40625 25.565624 578.5 25.4875Q578.59375 25.409374 578.7969 25.378124Q579.0156 25.346874 579.3594 25.346874Q579.71875 25.346874 579.90625 25.3625Q580.1094 25.378124 580.21875 25.425Q580.34375 25.471874 580.3906 25.565624Q580.4531 25.64375 580.5156 25.8L583.5156 34.26875L583.5625 34.26875L586.46875 25.753124Q586.53125 25.534374 586.625 25.471874Q586.7344 25.409374 586.9219 25.378124Q587.125 25.346874 587.5 25.346874Q587.8281 25.346874 588.03125 25.378124Q588.25 25.409374 588.34375 25.4875Q588.4531 25.565624 588.4531 25.70625Q588.4531 25.846874 588.3906 26.065624L584.59375 36.55ZM599.7969 30.51875Q599.7969 30.9875 599.5625 31.175Q599.34375 31.3625 599.0469 31.3625L592.125 31.3625Q592.125 32.253124 592.2969 32.95625Q592.4844 33.659374 592.8906 34.159374Q593.2969 34.659374 593.9531 34.940624Q594.6094 35.20625 595.5625 35.20625Q596.3125 35.20625 596.8906 35.08125Q597.4844 34.95625 597.90625 34.8Q598.34375 34.64375 598.6094 34.534374Q598.8906 34.409374 599.03125 34.409374Q599.1094 34.409374 599.1719 34.45625Q599.25 34.4875 599.28125 34.565624Q599.3125 34.64375 599.3281 34.8Q599.34375 34.940624 599.34375 35.159374Q599.34375 35.3 599.3281 35.425Q599.3281 35.534374 599.3125 35.628124Q599.2969 35.70625 599.25 35.784374Q599.2031 35.846874 599.1406 35.909374Q599.0781 35.971874 598.7656 36.128124Q598.4531 36.26875 597.9375 36.409374Q597.4375 36.55 596.7656 36.659374Q596.1094 36.76875 595.3594 36.76875Q594.0625 36.76875 593.0781 36.409374Q592.1094 36.05 591.4375 35.33125Q590.7656 34.6125 590.4219 33.534374Q590.09375 32.45625 590.09375 31.034374Q590.09375 29.675 590.4375 28.596874Q590.7969 27.503124 591.4531 26.753124Q592.125 25.9875 593.0625 25.58125Q594.0 25.175 595.15625 25.175Q596.3906 25.175 597.2656 25.58125Q598.1406 25.971874 598.7031 26.659374Q599.2656 27.33125 599.53125 28.2375Q599.7969 29.14375 599.7969 30.175L599.7969 30.51875ZM597.84375 29.95625Q597.8906 28.425 597.1719 27.565624Q596.46875 26.690624 595.0781 26.690624Q594.3594 26.690624 593.8125 26.971874Q593.28125 27.2375 592.90625 27.690624Q592.5469 28.128124 592.34375 28.721874Q592.15625 29.3 592.125 29.95625L597.84375 29.95625ZM610.7344 36.26875Q610.7344 36.409374 610.6406 36.4875Q610.5469 36.55 610.375 36.58125Q610.21875 36.628124 609.90625 36.628124Q609.6094 36.628124 609.4219 36.58125Q609.2344 36.55 609.15625 36.4875Q609.0781 36.409374 609.0781 36.26875L609.0781 35.20625Q608.3906 35.95625 607.53125 36.3625Q606.6875 36.76875 605.7344 36.76875Q604.90625 36.76875 604.2344 36.55Q603.5625 36.33125 603.0781 35.925Q602.6094 35.51875 602.34375 34.925Q602.0781 34.315624 602.0781 33.565624Q602.0781 32.675 602.4375 32.01875Q602.8125 31.3625 603.4844 30.925Q604.1719 30.4875 605.15625 30.26875Q606.1406 30.05 607.3594 30.05L608.8125 30.05L608.8125 29.2375Q608.8125 28.628124 608.6875 28.159374Q608.5625 27.690624 608.2656 27.378124Q607.9844 27.065624 607.53125 26.909374Q607.0781 26.753124 606.40625 26.753124Q605.6875 26.753124 605.1094 26.925Q604.5469 27.096874 604.125 27.3Q603.7031 27.503124 603.40625 27.675Q603.125 27.846874 602.9844 27.846874Q602.8906 27.846874 602.8125 27.8Q602.75 27.753124 602.6875 27.659374Q602.6406 27.565624 602.6094 27.425Q602.59375 27.26875 602.59375 27.096874Q602.59375 26.8 602.625 26.628124Q602.6719 26.45625 602.8281 26.315624Q603.0 26.159374 603.375 25.95625Q603.7656 25.7375 604.2656 25.58125Q604.78125 25.409374 605.375 25.3Q605.96875 25.175 606.5781 25.175Q607.71875 25.175 608.5156 25.440624Q609.3125 25.690624 609.7969 26.190624Q610.2969 26.690624 610.5156 27.440624Q610.7344 28.175 610.7344 29.159374L610.7344 36.26875ZM608.8125 31.45625L607.1719 31.45625Q606.375 31.45625 605.78125 31.596874Q605.2031 31.721874 604.8125 31.9875Q604.4219 32.253124 604.2344 32.628124Q604.0625 32.9875 604.0625 33.471874Q604.0625 34.284374 604.5781 34.76875Q605.1094 35.253124 606.0469 35.253124Q606.7969 35.253124 607.4531 34.878124Q608.1094 34.4875 608.8125 33.690624L608.8125 31.45625ZM620.9531 26.39375Q620.9531 26.659374 620.9375 26.83125Q620.9375 27.003124 620.8906 27.1125Q620.8594 27.20625 620.8125 27.26875Q620.7656 27.315624 620.6719 27.315624Q620.5781 27.315624 620.4375 27.26875Q620.2969 27.20625 620.125 27.159374Q619.96875 27.096874 619.75 27.05Q619.5469 27.003124 619.2969 27.003124Q619.0 27.003124 618.71875 27.128124Q618.4375 27.2375 618.125 27.51875Q617.8125 27.784374 617.46875 28.2375Q617.1406 28.675 616.7344 29.315624L616.7344 36.253124Q616.7344 36.346874 616.6875 36.409374Q616.6406 36.471874 616.53125 36.534374Q616.4219 36.58125 616.2344 36.596874Q616.0469 36.628124 615.75 36.628124Q615.46875 36.628124 615.28125 36.596874Q615.09375 36.58125 614.9844 36.534374Q614.875 36.471874 614.8281 36.409374Q614.7969 36.346874 614.7969 36.253124L614.7969 25.70625Q614.7969 25.6125 614.8281 25.55Q614.8594 25.4875 614.96875 25.440624Q615.0781 25.378124 615.2344 25.3625Q615.40625 25.346874 615.6719 25.346874Q615.9375 25.346874 616.09375 25.3625Q616.2656 25.378124 616.3594 25.440624Q616.4531 25.4875 616.5 25.55Q616.5469 25.6125 616.5469 25.70625L616.5469 27.2375Q616.96875 26.6125 617.34375 26.221874Q617.7344 25.815624 618.0781 25.596874Q618.4219 25.3625 618.75 25.26875Q619.0781 25.175 619.4219 25.175Q619.5781 25.175 619.7656 25.20625Q619.96875 25.221874 620.1719 25.26875Q620.3906 25.315624 620.5469 25.378124Q620.71875 25.425 620.78125 25.4875Q620.8594 25.55 620.875 25.596874Q620.90625 25.64375 620.9219 25.7375Q620.9531 25.815624 620.9531 25.971874Q620.9531 26.128124 620.9531 26.39375ZM629.4219 33.378124Q629.4219 34.190624 629.1094 34.83125Q628.8125 35.45625 628.2656 35.89375Q627.71875 36.33125 626.9531 36.55Q626.1875 36.76875 625.28125 36.76875Q624.71875 36.76875 624.2031 36.675Q623.7031 36.596874 623.2969 36.471874Q622.8906 36.33125 622.6094 36.190624Q622.3281 36.034374 622.1875 35.925Q622.0625 35.8 622.0 35.596874Q621.9531 35.378124 621.9531 35.01875Q621.9531 34.784374 621.96875 34.64375Q622.0 34.4875 622.03125 34.39375Q622.0625 34.3 622.125 34.26875Q622.2031 34.221874 622.28125 34.221874Q622.40625 34.221874 622.65625 34.378124Q622.90625 34.534374 623.28125 34.721874Q623.65625 34.909374 624.15625 35.065624Q624.65625 35.221874 625.3125 35.221874Q625.8125 35.221874 626.2031 35.128124Q626.6094 35.01875 626.8906 34.815624Q627.1875 34.596874 627.34375 34.284374Q627.5 33.971874 627.5 33.534374Q627.5 33.096874 627.2656 32.8Q627.0469 32.4875 626.6719 32.253124Q626.2969 32.01875 625.8281 31.83125Q625.3594 31.64375 624.8594 31.45625Q624.3594 31.253124 623.8906 31.003124Q623.4219 30.753124 623.0469 30.39375Q622.6719 30.01875 622.4375 29.51875Q622.2031 29.01875 622.2031 28.315624Q622.2031 27.690624 622.4375 27.128124Q622.6875 26.55 623.1719 26.128124Q623.65625 25.690624 624.375 25.440624Q625.09375 25.175 626.0469 25.175Q626.46875 25.175 626.8906 25.253124Q627.3125 25.315624 627.65625 25.425Q628.0 25.534374 628.2344 25.659374Q628.4844 25.784374 628.59375 25.878124Q628.71875 25.971874 628.7656 26.05Q628.8125 26.1125 628.8281 26.20625Q628.84375 26.284374 628.8594 26.409374Q628.875 26.534374 628.875 26.721874Q628.875 26.925 628.8594 27.08125Q628.84375 27.221874 628.7969 27.315624Q628.7656 27.409374 628.7031 27.45625Q628.6406 27.4875 628.5781 27.4875Q628.46875 27.4875 628.2656 27.3625Q628.0625 27.2375 627.75 27.096874Q627.4375 26.940624 627.0 26.815624Q626.5781 26.675 626.03125 26.675Q625.53125 26.675 625.15625 26.8Q624.78125 26.909374 624.5469 27.1125Q624.3125 27.315624 624.1875 27.596874Q624.0625 27.878124 624.0625 28.20625Q624.0625 28.659374 624.2969 28.971874Q624.53125 29.284374 624.90625 29.51875Q625.28125 29.753124 625.75 29.940624Q626.2344 30.128124 626.7344 30.33125Q627.2344 30.51875 627.71875 30.76875Q628.2031 31.01875 628.5781 31.378124Q628.9531 31.721874 629.1875 32.221874Q629.4219 32.70625 629.4219 33.378124Z" fill-rule="nonzero"/></svg>