<svg version="1.1" viewBox="0.0 0.0 820.0 507.0" fill="none" stroke="none" stroke-linecap="square" stroke-miterlimit="10" width="820" height="507" xmlns:xlink="http://www.w3.org/1999/xlink" xmlns="http://www.w3.org/2000/svg"><path fill="#ffffff" d="M0 0L820.0 0L820.0 507.0L0 507.0L0 0Z" fill-rule="nonzero"/><path stroke="#333333" stroke-width="1.0" stroke-linecap="butt" d="M68.5 411.5L794.5 411.5" fill-rule="nonzero"/><path stroke="#cccccc" stroke-width="1.0" stroke-linecap="butt" d="M68.5 317.5L794.5 317.5" fill-rule="nonzero"/><path stroke="#cccccc" stroke-width="1.0" stroke-linecap="butt" d="M68.5 224.5L794.5 224.5" fill-rule="nonzero"/><path stroke="#cccccc" stroke-width="1.0" stroke-linecap="butt" d="M68.5 130.5L794.5 130.5" fill-rule="nonzero"/><path stroke="#cccccc" stroke-width="1.0" stroke-linecap="butt" d="M68.5 37.5L794.5 37.5" fill-rule="nonzero"/><clipPath id="id_0"><path d="M68.35 37.35L794.65 37.35L794.65 411.2577L68.35 411.2577L68.35 37.35Z" clip-rule="nonzero"/></clipPath><path stroke="#000000" stroke-width="2.0" stroke-linecap="butt" stroke-opacity="0.0" clip-path="url(#id_0)" d="M139.0 411.0L93.0 411.0L93.0 67.0C93.0 65.89543 93.89543 65.0 95.0 65.0L137.0 65.0C138.10457 65.0 139.0 65.89543 139.0 67.0Z" fill-rule="nonzero"/><path fill="#666666" clip-path="url(#id_0)" d="M139.0 411.0L93.0 411.0L93.0 67.0C93.0 65.89543 93.89543 65.0 95.0 65.0L137.0 65.0C138.10457 65.0 139.0 65.89543 139.0 67.0Z" fill-rule="nonzero"/><path stroke="#000000" stroke-width="2.0" stroke-linecap="butt" stroke-opacity="0.0" clip-path="url(#id_0)" d="M209.0 411.0L163.0 411.0L163.0 77.0C163.0 75.89543 163.89543 75.0 165.0 75.0L207.0 75.0C208.10457 75.0 209.0 75.89543 209.0 77.0Z" fill-rule="nonzero"/><path fill="#666666" clip-path="url(#id_0)" d="M209.0 411.0L163.0 411.0L163.0 77.0C163.0 75.89543 163.89543 75.0 165.0 75.0L207.0 75.0C208.10457 75.0 209.0 75.89543 209.0 77.0Z" fill-rule="nonzero"/><path stroke="#000000" stroke-width="2.0" stroke-linecap="butt" stroke-opacity="0.0" clip-path="url(#id_0)" d="M279.0 411.0L233.0 411.0L233.0 161.0C233.0 159.89543 233.89543 159.0 235.0 159.0L277.0 159.0C278.10458 159.0 279.0 159.89543 279.0 161.0Z" fill-rule="nonzero"/><path fill="#666666" clip-path="url(#id_0)" d="M279.0 411.0L233.0 411.0L233.0 161.0C233.0 159.89543 233.89543 159.0 235.0 159.0L277.0 159.0C278.10458 159.0 279.0 159.89543 279.0 161.0Z" fill-rule="nonzero"/><path stroke="#000000" stroke-width="2.0" stroke-linecap="butt" stroke-opacity="0.0" clip-path="url(#id_0)" d="M349.0 411.0L303.0 411.0L303.0 170.0C303.0 168.89543 303.89542 168.0 305.0 168.0L347.0 168.0C348.10458 168.0 349.0 168.89543 349.0 170.0Z" fill-rule="nonzero"/><path fill="#666666" clip-path="url(#id_0)" d="M349.0 411.0L303.0 411.0L303.0 170.0C303.0 168.89543 303.89542 168.0 305.0 168.0L347.0 168.0C348.10458 168.0 349.0 168.89543 349.0 170.0Z" fill-rule="nonzero"/><path stroke="#000000" stroke-width="2.0" stroke-linecap="butt" stroke-opacity="0.0" clip-path="url(#id_0)" d="M419.0 411.0L373.0 411.0L373.0 208.0C373.0 206.89543 373.89542 206.0 375.0 206.0L417.0 206.0C418.10458 206.0 419.0 206.89543 419.0 208.0Z" fill-rule="nonzero"/><path fill="#666666" clip-path="url(#id_0)" d="M419.0 411.0L373.0 411.0L373.0 208.0C373.0 206.89543 373.89542 206.0 375.0 206.0L417.0 206.0C418.10458 206.0 419.0 206.89543 419.0 208.0Z" fill-rule="nonzero"/><path stroke="#000000" stroke-width="2.0" stroke-linecap="butt" stroke-opacity="0.0" clip-path="url(#id_0)" d="M490.0 411.0L444.0 411.0L444.0 273.0C444.0 271.89542 444.89542 271.0 446.0 271.0L488.0 271.0C489.10458 271.0 490.0 271.89542 490.0 273.0Z" fill-rule="nonzero"/><path fill="#666666" clip-path="url(#id_0)" d="M490.0 411.0L444.0 411.0L444.0 273.0C444.0 271.89542 444.89542 271.0 446.0 271.0L488.0 271.0C489.10458 271.0 490.0 271.89542 490.0 273.0Z" fill-rule="nonzero"/><path stroke="#000000" stroke-width="2.0" stroke-linecap="butt" stroke-opacity="0.0" clip-path="url(#id_0)" d="M560.0 411.0L514.0 411.0L514.0 282.0C514.0 280.89542 514.89545 280.0 516.0 280.0L558.0 280.0C559.10455 280.0 560.0 280.89542 560.0 282.0Z" fill-rule="nonzero"/><path fill="#666666" clip-path="url(#id_0)" d="M560.0 411.0L514.0 411.0L514.0 282.0C514.0 280.89542 514.89545 280.0 516.0 280.0L558.0 280.0C559.10455 280.0 560.0 280.89542 560.0 282.0Z" fill-rule="nonzero"/><path stroke="#000000" stroke-width="2.0" stroke-linecap="butt" stroke-opacity="0.0" clip-path="url(#id_0)" d="M630.0 411.0L584.0 411.0L584.0 310.0C584.0 308.89542 584.89545 308.0 586.0 308.0L628.0 308.0C629.10455 308.0 630.0 308.89542 630.0 310.0Z" fill-rule="nonzero"/><path fill="#666666" clip-path="url(#id_0)" d="M630.0 411.0L584.0 411.0L584.0 310.0C584.0 308.89542 584.89545 308.0 586.0 308.0L628.0 308.0C629.10455 308.0 630.0 308.89542 630.0 310.0Z" fill-rule="nonzero"/><path stroke="#000000" stroke-width="2.0" stroke-linecap="butt" stroke-opacity="0.0" clip-path="url(#id_0)" d="M700.0 411.0L654.0 411.0L654.0 329.0C654.0 327.89542 654.89545 327.0 656.0 327.0L698.0 327.0C699.10455 327.0 700.0 327.89542 700.0 329.0Z" fill-rule="nonzero"/><path fill="#666666" clip-path="url(#id_0)" d="M700.0 411.0L654.0 411.0L654.0 329.0C654.0 327.89542 654.89545 327.0 656.0 327.0L698.0 327.0C699.10455 327.0 700.0 327.89542 700.0 329.0Z" fill-rule="nonzero"/><path stroke="#000000" stroke-width="2.0" stroke-linecap="butt" stroke-opacity="0.0" clip-path="url(#id_0)" d="M770.0 411.0L724.0 411.0L724.0 329.0C724.0 327.89542 724.89545 327.0 726.0 327.0L768.0 327.0C769.10455 327.0 770.0 327.89542 770.0 329.0Z" fill-rule="nonzero"/><path fill="#666666" clip-path="url(#id_0)" d="M770.0 411.0L724.0 411.0L724.0 329.0C724.0 327.89542 724.89545 327.0 726.0 327.0L768.0 327.0C769.10455 327.0 770.0 327.89542 770.0 329.0Z" fill-rule="nonzero"/><path stroke="#666666" stroke-width="3.0" stroke-linejoin="round" stroke-linecap="round" d="M111.28125 77.3962L112.09375 77.3962Q112.875 77.38058 113.3125 76.98995Q113.75 76.59933 113.75 75.92745Q113.75 74.42745 112.25 74.42745Q111.546875 74.42745 111.125 74.8337Q110.71875 75.23995 110.71875 75.8962L109.625 75.8962Q109.625 74.88058 110.359375 74.2087Q111.109375 73.53683 112.25 73.53683Q113.453125 73.53683 114.140625 74.17745Q114.828125 74.81808 114.828125 75.9587Q114.828125 76.5212 114.46875 77.03683Q114.109375 77.55245 113.484375 77.81808Q114.1875 78.03683 114.5625 78.55245Q114.953125 79.06808 114.953125 79.81808Q114.953125 80.9587 114.203125 81.6462Q113.453125 82.31808 112.25 82.31808Q111.0625 82.31808 110.296875 81.66183Q109.546875 81.00558 109.546875 79.94308L110.640625 79.94308Q110.640625 80.61495 111.078125 81.0212Q111.515625 81.42745 112.265625 81.42745Q113.046875 81.42745 113.453125 81.0212Q113.875 80.59933 113.875 79.8337Q113.875 79.09933 113.421875 78.7087Q112.96875 78.30245 112.09375 78.28683L111.28125 78.28683L111.28125 77.3962ZM122.21875 74.2712L118.6875 82.19308L117.546875 82.19308L121.0625 74.55245L116.453125 74.55245L116.453125 73.66183L122.21875 73.66183L122.21875 74.2712Z" fill-rule="nonzero"/><path fill="#ffffff" d="M111.28125 77.3962L112.09375 77.3962Q112.875 77.38058 113.3125 76.98995Q113.75 76.59933 113.75 75.92745Q113.75 74.42745 112.25 74.42745Q111.546875 74.42745 111.125 74.8337Q110.71875 75.23995 110.71875 75.8962L109.625 75.8962Q109.625 74.88058 110.359375 74.2087Q111.109375 73.53683 112.25 73.53683Q113.453125 73.53683 114.140625 74.17745Q114.828125 74.81808 114.828125 75.9587Q114.828125 76.5212 114.46875 77.03683Q114.109375 77.55245 113.484375 77.81808Q114.1875 78.03683 114.5625 78.55245Q114.953125 79.06808 114.953125 79.81808Q114.953125 80.9587 114.203125 81.6462Q113.453125 82.31808 112.25 82.31808Q111.0625 82.31808 110.296875 81.66183Q109.546875 81.00558 109.546875 79.94308L110.640625 79.94308Q110.640625 80.61495 111.078125 81.0212Q111.515625 81.42745 112.265625 81.42745Q113.046875 81.42745 113.453125 81.0212Q113.875 80.59933 113.875 79.8337Q113.875 79.09933 113.421875 78.7087Q112.96875 78.30245 112.09375 78.28683L111.28125 78.28683L111.28125 77.3962ZM122.21875 74.2712L118.6875 82.19308L117.546875 82.19308L121.0625 74.55245L116.453125 74.55245L116.453125 73.66183L122.21875 73.66183L122.21875 74.2712Z" fill-rule="nonzero"/><path stroke="#666666" stroke-width="3.0" stroke-linejoin="round" stroke-linecap="round" d="M181.28125 86.7439L182.09375 86.7439Q182.875 86.72827 183.3125 86.33765Q183.75 85.94702 183.75 85.27515Q183.75 83.77515 182.25 83.77515Q181.54688 83.77515 181.125 84.1814Q180.71875 84.58765 180.71875 85.2439L179.625 85.2439Q179.625 84.22827 180.35938 83.5564Q181.10938 82.88452 182.25 82.88452Q183.45312 82.88452 184.14062 83.52515Q184.82812 84.16577 184.82812 85.3064Q184.82812 85.8689 184.46875 86.38452Q184.10938 86.90015 183.48438 87.16577Q184.1875 87.38452 184.5625 87.90015Q184.95312 88.41577 184.95312 89.16577Q184.95312 90.3064 184.20312 90.9939Q183.45312 91.66577 182.25 91.66577Q181.0625 91.66577 180.29688 91.00952Q179.54688 90.35327 179.54688 89.29077L180.64062 89.29077Q180.64062 89.96265 181.07812 90.3689Q181.51562 90.77515 182.26562 90.77515Q183.04688 90.77515 183.45312 90.3689Q183.875 89.94702 183.875 89.1814Q183.875 88.44702 183.42188 88.0564Q182.96875 87.65015 182.09375 87.63452L181.28125 87.63452L181.28125 86.7439ZM190.96875 83.00952L190.96875 83.91577L190.76562 83.91577Q189.5 83.94702 188.75 84.6814Q188.0 85.40015 187.875 86.71265Q188.5625 85.94702 189.71875 85.94702Q190.82812 85.94702 191.5 86.72827Q192.17188 87.50952 192.17188 88.75952Q192.17188 90.07202 191.45312 90.8689Q190.73438 91.66577 189.51562 91.66577Q188.29688 91.66577 187.53125 90.72827Q186.78125 89.77515 186.78125 88.29077L186.78125 87.88452Q186.78125 85.52515 187.78125 84.27515Q188.78125 83.02515 190.76562 83.00952L190.96875 83.00952ZM189.54688 86.85327Q188.98438 86.85327 188.51562 87.1814Q188.04688 87.50952 187.85938 88.02515L187.85938 88.41577Q187.85938 89.47827 188.32812 90.1189Q188.8125 90.75952 189.51562 90.75952Q190.25 90.75952 190.67188 90.22827Q191.09375 89.6814 191.09375 88.8064Q191.09375 87.9314 190.67188 87.40015Q190.25 86.85327 189.54688 86.85327Z" fill-rule="nonzero"/><path fill="#ffffff" d="M181.28125 86.7439L182.09375 86.7439Q182.875 86.72827 183.3125 86.33765Q183.75 85.94702 183.75 85.27515Q183.75 83.77515 182.25 83.77515Q181.54688 83.77515 181.125 84.1814Q180.71875 84.58765 180.71875 85.2439L179.625 85.2439Q179.625 84.22827 180.35938 83.5564Q181.10938 82.88452 182.25 82.88452Q183.45312 82.88452 184.14062 83.52515Q184.82812 84.16577 184.82812 85.3064Q184.82812 85.8689 184.46875 86.38452Q184.10938 86.90015 183.48438 87.16577Q184.1875 87.38452 184.5625 87.90015Q184.95312 88.41577 184.95312 89.16577Q184.95312 90.3064 184.20312 90.9939Q183.45312 91.66577 182.25 91.66577Q181.0625 91.66577 180.29688 91.00952Q179.54688 90.35327 179.54688 89.29077L180.64062 89.29077Q180.64062 89.96265 181.07812 90.3689Q181.51562 90.77515 182.26562 90.77515Q183.04688 90.77515 183.45312 90.3689Q183.875 89.94702 183.875 89.1814Q183.875 88.44702 183.42188 88.0564Q182.96875 87.65015 182.09375 87.63452L181.28125 87.63452L181.28125 86.7439ZM190.96875 83.00952L190.96875 83.91577L190.76562 83.91577Q189.5 83.94702 188.75 84.6814Q188.0 85.40015 187.875 86.71265Q188.5625 85.94702 189.71875 85.94702Q190.82812 85.94702 191.5 86.72827Q192.17188 87.50952 192.17188 88.75952Q192.17188 90.07202 191.45312 90.8689Q190.73438 91.66577 189.51562 91.66577Q188.29688 91.66577 187.53125 90.72827Q186.78125 89.77515 186.78125 88.29077L186.78125 87.88452Q186.78125 85.52515 187.78125 84.27515Q188.78125 83.02515 190.76562 83.00952L190.96875 83.00952ZM189.54688 86.85327Q188.98438 86.85327 188.51562 87.1814Q188.04688 87.50952 187.85938 88.02515L187.85938 88.41577Q187.85938 89.47827 188.32812 90.1189Q188.8125 90.75952 189.51562 90.75952Q190.25 90.75952 190.67188 90.22827Q191.09375 89.6814 191.09375 88.8064Q191.09375 87.9314 190.67188 87.40015Q190.25 86.85327 189.54688 86.85327Z" fill-rule="nonzero"/><path stroke="#666666" stroke-width="3.0" stroke-linejoin="round" stroke-linecap="round" d="M255.29688 175.67L249.70312 175.67L249.70312 174.88875L252.65625 171.6075Q253.3125 170.8575 253.5625 170.40437Q253.8125 169.93562 253.8125 169.43562Q253.8125 168.76375 253.40625 168.34187Q253.01562 167.90437 252.32812 167.90437Q251.53125 167.90437 251.07812 168.37312Q250.625 168.82625 250.625 169.65437L249.54688 169.65437Q249.54688 168.46687 250.29688 167.74812Q251.0625 167.01375 252.32812 167.01375Q253.53125 167.01375 254.21875 167.63875Q254.90625 168.26375 254.90625 169.31062Q254.90625 170.56062 253.29688 172.31062L251.01562 174.77937L255.29688 174.77937L255.29688 175.67ZM262.21875 167.74812L258.6875 175.67L257.54688 175.67L261.0625 168.02937L256.45312 168.02937L256.45312 167.13875L262.21875 167.13875L262.21875 167.74812Z" fill-rule="nonzero"/><path fill="#ffffff" d="M255.29688 175.67L249.70312 175.67L249.70312 174.88875L252.65625 171.6075Q253.3125 170.8575 253.5625 170.40437Q253.8125 169.93562 253.8125 169.43562Q253.8125 168.76375 253.40625 168.34187Q253.01562 167.90437 252.32812 167.90437Q251.53125 167.90437 251.07812 168.37312Q250.625 168.82625 250.625 169.65437L249.54688 169.65437Q249.54688 168.46687 250.29688 167.74812Q251.0625 167.01375 252.32812 167.01375Q253.53125 167.01375 254.21875 167.63875Q254.90625 168.26375 254.90625 169.31062Q254.90625 170.56062 253.29688 172.31062L251.01562 174.77937L255.29688 174.77937L255.29688 175.67ZM262.21875 167.74812L258.6875 175.67L257.54688 175.67L261.0625 168.02937L256.45312 168.02937L256.45312 167.13875L262.21875 167.13875L262.21875 167.74812Z" fill-rule="nonzero"/><path stroke="#666666" stroke-width="3.0" stroke-linejoin="round" stroke-linecap="round" d="M325.29688 185.0177L319.70312 185.0177L319.70312 184.23645L322.65625 180.9552Q323.3125 180.2052 323.5625 179.75208Q323.8125 179.28333 323.8125 178.78333Q323.8125 178.11145 323.40625 177.68958Q323.01562 177.25208 322.32812 177.25208Q321.53125 177.25208 321.07812 177.72083Q320.625 178.17395 320.625 179.00208L319.54688 179.00208Q319.54688 177.81458 320.29688 177.09583Q321.0625 176.36145 322.32812 176.36145Q323.53125 176.36145 324.21875 176.98645Q324.90625 177.61145 324.90625 178.65833Q324.90625 179.90833 323.29688 181.65833L321.01562 184.12708L325.29688 184.12708L325.29688 185.0177ZM330.96875 176.48645L330.96875 177.3927L330.76562 177.3927Q329.5 177.42395 328.75 178.15833Q328.0 178.87708 327.875 180.18958Q328.5625 179.42395 329.71875 179.42395Q330.82812 179.42395 331.5 180.2052Q332.17188 180.98645 332.17188 182.23645Q332.17188 183.54895 331.45312 184.34583Q330.73438 185.1427 329.51562 185.1427Q328.29688 185.1427 327.53125 184.2052Q326.78125 183.25208 326.78125 181.7677L326.78125 181.36145Q326.78125 179.00208 327.78125 177.75208Q328.78125 176.50208 330.76562 176.48645L330.96875 176.48645ZM329.54688 180.3302Q328.98438 180.3302 328.51562 180.65833Q328.04688 180.98645 327.85938 181.50208L327.85938 181.8927Q327.85938 182.9552 328.32812 183.59583Q328.8125 184.23645 329.51562 184.23645Q330.25 184.23645 330.67188 183.7052Q331.09375 183.15833 331.09375 182.28333Q331.09375 181.40833 330.67188 180.87708Q330.25 180.3302 329.54688 180.3302Z" fill-rule="nonzero"/><path fill="#ffffff" d="M325.29688 185.0177L319.70312 185.0177L319.70312 184.23645L322.65625 180.9552Q323.3125 180.2052 323.5625 179.75208Q323.8125 179.28333 323.8125 178.78333Q323.8125 178.11145 323.40625 177.68958Q323.01562 177.25208 322.32812 177.25208Q321.53125 177.25208 321.07812 177.72083Q320.625 178.17395 320.625 179.00208L319.54688 179.00208Q319.54688 177.81458 320.29688 177.09583Q321.0625 176.36145 322.32812 176.36145Q323.53125 176.36145 324.21875 176.98645Q324.90625 177.61145 324.90625 178.65833Q324.90625 179.90833 323.29688 181.65833L321.01562 184.12708L325.29688 184.12708L325.29688 185.0177ZM330.96875 176.48645L330.96875 177.3927L330.76562 177.3927Q329.5 177.42395 328.75 178.15833Q328.0 178.87708 327.875 180.18958Q328.5625 179.42395 329.71875 179.42395Q330.82812 179.42395 331.5 180.2052Q332.17188 180.98645 332.17188 182.23645Q332.17188 183.54895 331.45312 184.34583Q330.73438 185.1427 329.51562 185.1427Q328.29688 185.1427 327.53125 184.2052Q326.78125 183.25208 326.78125 181.7677L326.78125 181.36145Q326.78125 179.00208 327.78125 177.75208Q328.78125 176.50208 330.76562 176.48645L330.96875 176.48645ZM329.54688 180.3302Q328.98438 180.3302 328.51562 180.65833Q328.04688 180.98645 327.85938 181.50208L327.85938 181.8927Q327.85938 182.9552 328.32812 183.59583Q328.8125 184.23645 329.51562 184.23645Q330.25 184.23645 330.67188 183.7052Q331.09375 183.15833 331.09375 182.28333Q331.09375 181.40833 330.67188 180.87708Q330.25 180.3302 329.54688 180.3302Z" fill-rule="nonzero"/><path stroke="#666666" stroke-width="3.0" stroke-linejoin="round" stroke-linecap="round" d="M395.29688 222.40846L389.70312 222.40846L389.70312 221.62721L392.65625 218.34596Q393.3125 217.59596 393.5625 217.14284Q393.8125 216.67409 393.8125 216.17409Q393.8125 215.50221 393.40625 215.08034Q393.01562 214.64284 392.32812 214.64284Q391.53125 214.64284 391.07812 215.11159Q390.625 215.56471 390.625 216.39284L389.54688 216.39284Q389.54688 215.20534 390.29688 214.48659Q391.0625 213.75221 392.32812 213.75221Q393.53125 213.75221 394.21875 214.37721Q394.90625 215.00221 394.90625 216.04909Q394.90625 217.29909 393.29688 219.04909L391.01562 221.51784L395.29688 221.51784L395.29688 222.40846ZM402.29688 222.40846L396.70312 222.40846L396.70312 221.62721L399.65625 218.34596Q400.3125 217.59596 400.5625 217.14284Q400.8125 216.67409 400.8125 216.17409Q400.8125 215.50221 400.40625 215.08034Q400.01562 214.64284 399.32812 214.64284Q398.53125 214.64284 398.07812 215.11159Q397.625 215.56471 397.625 216.39284L396.54688 216.39284Q396.54688 215.20534 397.29688 214.48659Q398.0625 213.75221 399.32812 213.75221Q400.53125 213.75221 401.21875 214.37721Q401.90625 215.00221 401.90625 216.04909Q401.90625 217.29909 400.29688 219.04909L398.01562 221.51784L402.29688 221.51784L402.29688 222.40846Z" fill-rule="nonzero"/><path fill="#ffffff" d="M395.29688 222.40846L389.70312 222.40846L389.70312 221.62721L392.65625 218.34596Q393.3125 217.59596 393.5625 217.14284Q393.8125 216.67409 393.8125 216.17409Q393.8125 215.50221 393.40625 215.08034Q393.01562 214.64284 392.32812 214.64284Q391.53125 214.64284 391.07812 215.11159Q390.625 215.56471 390.625 216.39284L389.54688 216.39284Q389.54688 215.20534 390.29688 214.48659Q391.0625 213.75221 392.32812 213.75221Q393.53125 213.75221 394.21875 214.37721Q394.90625 215.00221 394.90625 216.04909Q394.90625 217.29909 393.29688 219.04909L391.01562 221.51784L395.29688 221.51784L395.29688 222.40846ZM402.29688 222.40846L396.70312 222.40846L396.70312 221.62721L399.65625 218.34596Q400.3125 217.59596 400.5625 217.14284Q400.8125 216.67409 400.8125 216.17409Q400.8125 215.50221 400.40625 215.08034Q400.01562 214.64284 399.32812 214.64284Q398.53125 214.64284 398.07812 215.11159Q397.625 215.56471 397.625 216.39284L396.54688 216.39284Q396.54688 215.20534 397.29688 214.48659Q398.0625 213.75221 399.32812 213.75221Q400.53125 213.75221 401.21875 214.37721Q401.90625 215.00221 401.90625 216.04909Q401.90625 217.29909 400.29688 219.04909L398.01562 221.51784L402.29688 221.51784L402.29688 222.40846Z" fill-rule="nonzero"/><path stroke="#666666" stroke-width="3.0" stroke-linejoin="round" stroke-linecap="round" d="M464.26562 287.84232L463.1875 287.84232L463.1875 280.62357L461.0 281.42044L461.0 280.43607L464.10938 279.2642L464.26562 279.2642L464.26562 287.84232ZM468.20312 283.56107L468.64062 279.31107L473.01562 279.31107L473.01562 280.31107L469.5625 280.31107L469.29688 282.6392Q469.9375 282.2642 470.73438 282.2642Q471.89062 282.2642 472.57812 283.04544Q473.26562 283.81107 473.26562 285.12357Q473.26562 286.43607 472.54688 287.2017Q471.84375 287.96732 470.5625 287.96732Q469.4375 287.96732 468.71875 287.34232Q468.0 286.7017 467.90625 285.59232L468.92188 285.59232Q469.03125 286.3267 469.45312 286.7017Q469.875 287.0767 470.5625 287.0767Q471.3125 287.0767 471.75 286.56107Q472.1875 286.04544 472.1875 285.1392Q472.1875 284.27982 471.71875 283.7642Q471.25 283.24857 470.46875 283.24857Q469.76562 283.24857 469.35938 283.54544L469.07812 283.77982L468.20312 283.56107Z" fill-rule="nonzero"/><path fill="#ffffff" d="M464.26562 287.84232L463.1875 287.84232L463.1875 280.62357L461.0 281.42044L461.0 280.43607L464.10938 279.2642L464.26562 279.2642L464.26562 287.84232ZM468.20312 283.56107L468.64062 279.31107L473.01562 279.31107L473.01562 280.31107L469.5625 280.31107L469.29688 282.6392Q469.9375 282.2642 470.73438 282.2642Q471.89062 282.2642 472.57812 283.04544Q473.26562 283.81107 473.26562 285.12357Q473.26562 286.43607 472.54688 287.2017Q471.84375 287.96732 470.5625 287.96732Q469.4375 287.96732 468.71875 287.34232Q468.0 286.7017 467.90625 285.59232L468.92188 285.59232Q469.03125 286.3267 469.45312 286.7017Q469.875 287.0767 470.5625 287.0767Q471.3125 287.0767 471.75 286.56107Q472.1875 286.04544 472.1875 285.1392Q472.1875 284.27982 471.71875 283.7642Q471.25 283.24857 470.46875 283.24857Q469.76562 283.24857 469.35938 283.54544L469.07812 283.77982L468.20312 283.56107Z" fill-rule="nonzero"/><path stroke="#666666" stroke-width="3.0" stroke-linejoin="round" stroke-linecap="round" d="M534.2656 297.19L533.1875 297.19L533.1875 289.97125L531.0 290.76813L531.0 289.78375L534.1094 288.61188L534.2656 288.61188L534.2656 297.19ZM542.28125 294.33063L543.46875 294.33063L543.46875 295.20563L542.28125 295.20563L542.28125 297.19L541.2031 297.19L541.2031 295.20563L537.3125 295.20563L537.3125 294.565L541.125 288.65875L542.28125 288.65875L542.28125 294.33063ZM538.5469 294.33063L541.2031 294.33063L541.2031 290.14313L541.0625 290.3775L538.5469 294.33063Z" fill-rule="nonzero"/><path fill="#ffffff" d="M534.2656 297.19L533.1875 297.19L533.1875 289.97125L531.0 290.76813L531.0 289.78375L534.1094 288.61188L534.2656 288.61188L534.2656 297.19ZM542.28125 294.33063L543.46875 294.33063L543.46875 295.20563L542.28125 295.20563L542.28125 297.19L541.2031 297.19L541.2031 295.20563L537.3125 295.20563L537.3125 294.565L541.125 288.65875L542.28125 288.65875L542.28125 294.33063ZM538.5469 294.33063L541.2031 294.33063L541.2031 290.14313L541.0625 290.3775L538.5469 294.33063Z" fill-rule="nonzero"/><path stroke="#666666" stroke-width="3.0" stroke-linejoin="round" stroke-linecap="round" d="M604.2656 325.2331L603.1875 325.2331L603.1875 318.01434L601.0 318.81122L601.0 317.82684L604.1094 316.65497L604.2656 316.65497L604.2656 325.2331ZM611.2656 325.2331L610.1875 325.2331L610.1875 318.01434L608.0 318.81122L608.0 317.82684L611.1094 316.65497L611.2656 316.65497L611.2656 325.2331Z" fill-rule="nonzero"/><path fill="#ffffff" d="M604.2656 325.2331L603.1875 325.2331L603.1875 318.01434L601.0 318.81122L601.0 317.82684L604.1094 316.65497L604.2656 316.65497L604.2656 325.2331ZM611.2656 325.2331L610.1875 325.2331L610.1875 318.01434L608.0 318.81122L608.0 317.82684L611.1094 316.65497L611.2656 316.65497L611.2656 325.2331Z" fill-rule="nonzero"/><path stroke="#666666" stroke-width="3.0" stroke-linejoin="round" stroke-linecap="round" d="M678.3594 340.17847Q678.03125 340.58472 677.5469 340.83472Q677.0781 341.0691 676.5156 341.0691Q675.78125 341.0691 675.2344 340.70972Q674.6875 340.35034 674.3906 339.6941Q674.09375 339.02222 674.09375 338.22534Q674.09375 337.3816 674.40625 336.6941Q674.7344 336.0066 675.3281 335.64722Q675.9375 335.27222 676.7344 335.27222Q678.0 335.27222 678.71875 336.22534Q679.4531 337.17847 679.4531 338.80347L679.4531 339.11597Q679.4531 341.61597 678.46875 342.7566Q677.4844 343.89722 675.5 343.92847L675.28125 343.92847L675.28125 343.02222L675.5156 343.02222Q676.8594 342.99097 677.5781 342.3191Q678.2969 341.64722 678.3594 340.17847ZM676.6875 340.17847Q677.2344 340.17847 677.6875 339.85034Q678.15625 339.5066 678.375 339.02222L678.375 338.58472Q678.375 337.52222 677.90625 336.85034Q677.4375 336.17847 676.7344 336.17847Q676.0156 336.17847 675.5781 336.72534Q675.15625 337.27222 675.15625 338.17847Q675.15625 339.05347 675.5625 339.61597Q675.9844 340.17847 676.6875 340.17847Z" fill-rule="nonzero"/><path fill="#ffffff" d="M678.3594 340.17847Q678.03125 340.58472 677.5469 340.83472Q677.0781 341.0691 676.5156 341.0691Q675.78125 341.0691 675.2344 340.70972Q674.6875 340.35034 674.3906 339.6941Q674.09375 339.02222 674.09375 338.22534Q674.09375 337.3816 674.40625 336.6941Q674.7344 336.0066 675.3281 335.64722Q675.9375 335.27222 676.7344 335.27222Q678.0 335.27222 678.71875 336.22534Q679.4531 337.17847 679.4531 338.80347L679.4531 339.11597Q679.4531 341.61597 678.46875 342.7566Q677.4844 343.89722 675.5 343.92847L675.28125 343.92847L675.28125 343.02222L675.5156 343.02222Q676.8594 342.99097 677.5781 342.3191Q678.2969 341.64722 678.3594 340.17847ZM676.6875 340.17847Q677.2344 340.17847 677.6875 339.85034Q678.15625 339.5066 678.375 339.02222L678.375 338.58472Q678.375 337.52222 677.90625 336.85034Q677.4375 336.17847 676.7344 336.17847Q676.0156 336.17847 675.5781 336.72534Q675.15625 337.27222 675.15625 338.17847Q675.15625 339.05347 675.5625 339.61597Q675.9844 340.17847 676.6875 340.17847Z" fill-rule="nonzero"/><path stroke="#666666" stroke-width="3.0" stroke-linejoin="round" stroke-linecap="round" d="M748.3594 340.17847Q748.03125 340.58472 747.5469 340.83472Q747.0781 341.0691 746.5156 341.0691Q745.78125 341.0691 745.2344 340.70972Q744.6875 340.35034 744.3906 339.6941Q744.09375 339.02222 744.09375 338.22534Q744.09375 337.3816 744.40625 336.6941Q744.7344 336.0066 745.3281 335.64722Q745.9375 335.27222 746.7344 335.27222Q748.0 335.27222 748.71875 336.22534Q749.4531 337.17847 749.4531 338.80347L749.4531 339.11597Q749.4531 341.61597 748.46875 342.7566Q747.4844 343.89722 745.5 343.92847L745.28125 343.92847L745.28125 343.02222L745.5156 343.02222Q746.8594 342.99097 747.5781 342.3191Q748.2969 341.64722 748.3594 340.17847ZM746.6875 340.17847Q747.2344 340.17847 747.6875 339.85034Q748.15625 339.5066 748.375 339.02222L748.375 338.58472Q748.375 337.52222 747.90625 336.85034Q747.4375 336.17847 746.7344 336.17847Q746.0156 336.17847 745.5781 336.72534Q745.15625 337.27222 745.15625 338.17847Q745.15625 339.05347 745.5625 339.61597Q745.9844 340.17847 746.6875 340.17847Z" fill-rule="nonzero"/><path fill="#ffffff" d="M748.3594 340.17847Q748.03125 340.58472 747.5469 340.83472Q747.0781 341.0691 746.5156 341.0691Q745.78125 341.0691 745.2344 340.70972Q744.6875 340.35034 744.3906 339.6941Q744.09375 339.02222 744.09375 338.22534Q744.09375 337.3816 744.40625 336.6941Q744.7344 336.0066 745.3281 335.64722Q745.9375 335.27222 746.7344 335.27222Q748.0 335.27222 748.71875 336.22534Q749.4531 337.17847 749.4531 338.80347L749.4531 339.11597Q749.4531 341.61597 748.46875 342.7566Q747.4844 343.89722 745.5 343.92847L745.28125 343.92847L745.28125 343.02222L745.5156 343.02222Q746.8594 342.99097 747.5781 342.3191Q748.2969 341.64722 748.3594 340.17847ZM746.6875 340.17847Q747.2344 340.17847 747.6875 339.85034Q748.15625 339.5066 748.375 339.02222L748.375 338.58472Q748.375 337.52222 747.90625 336.85034Q747.4375 336.17847 746.7344 336.17847Q746.0156 336.17847 745.5781 336.72534Q745.15625 337.27222 745.15625 338.17847Q745.15625 339.05347 745.5625 339.61597Q745.9844 340.17847 746.6875 340.17847Z" fill-rule="nonzero"/><path fill="#000000" d="M48.178123 411.1952Q48.178123 408.66394 48.69375 407.11707Q49.225 405.55457 50.25625 404.72644Q51.2875 403.8827 52.85 403.8827Q54.00625 403.8827 54.865623 404.35144Q55.740623 404.80457 56.303123 405.67957Q56.865623 406.55457 57.19375 407.8202Q57.521873 409.0702 57.521873 411.1952Q57.521873 413.71082 56.990623 415.2577Q56.475 416.80457 55.44375 417.66394Q54.428123 418.5077 52.85 418.5077Q50.771873 418.5077 49.6 417.02332Q48.178123 415.22644 48.178123 411.1952ZM49.990623 411.1952Q49.990623 414.72644 50.803123 415.89832Q51.63125 417.05457 52.85 417.05457Q54.053123 417.05457 54.88125 415.8827Q55.709373 414.71082 55.709373 411.1952Q55.709373 407.66394 54.88125 406.5077Q54.053123 405.33582 52.834373 405.33582Q51.615623 405.33582 50.896873 406.36707Q49.990623 407.66394 49.990623 411.1952Z" fill-rule="nonzero"/><path fill="#000000" d="M43.803123 324.78076L42.0375 324.78076L42.0375 313.57764Q41.4125 314.187 40.38125 314.7964Q39.35 315.39014 38.521873 315.70264L38.521873 313.9995Q40.00625 313.312 41.1 312.32764Q42.209373 311.32764 42.6625 310.40576L43.803123 310.40576L43.803123 324.78076ZM48.178123 317.71826Q48.178123 315.187 48.69375 313.64014Q49.225 312.07764 50.25625 311.2495Q51.2875 310.40576 52.85 310.40576Q54.00625 310.40576 54.865623 310.8745Q55.740623 311.32764 56.303123 312.20264Q56.865623 313.07764 57.19375 314.34326Q57.521873 315.59326 57.521873 317.71826Q57.521873 320.2339 56.990623 321.78076Q56.475 323.32764 55.44375 324.187Q54.428123 325.03076 52.85 325.03076Q50.771873 325.03076 49.6 323.5464Q48.178123 321.7495 48.178123 317.71826ZM49.990623 317.71826Q49.990623 321.2495 50.803123 322.4214Q51.63125 323.57764 52.85 323.57764Q54.053123 323.57764 54.88125 322.40576Q55.709373 321.2339 55.709373 317.71826Q55.709373 314.187 54.88125 313.03076Q54.053123 311.8589 52.834373 311.8589Q51.615623 311.8589 50.896873 312.89014Q49.990623 314.187 49.990623 317.71826Z" fill-rule="nonzero"/><path fill="#000000" d="M46.4125 229.61635L46.4125 231.30385L36.959373 231.30385Q36.94375 230.66322 37.1625 230.0851Q37.521873 229.11635 38.31875 228.17885Q39.115623 227.24135 40.615623 226.00697Q42.959373 224.10072 43.771873 222.99135Q44.6 221.86635 44.6 220.86635Q44.6 219.81947 43.85 219.10072Q43.1 218.38197 41.896873 218.38197Q40.63125 218.38197 39.865623 219.1476Q39.1 219.91322 39.1 221.25697L37.2875 221.06947Q37.475 219.05385 38.678123 217.99135Q39.896873 216.92885 41.94375 216.92885Q43.990623 216.92885 45.19375 218.06947Q46.396873 219.2101 46.396873 220.8976Q46.396873 221.75697 46.0375 222.60072Q45.69375 223.42885 44.88125 224.35072Q44.06875 225.25697 42.178123 226.86635Q40.584373 228.19447 40.13125 228.66322Q39.69375 229.13197 39.396873 229.61635L46.4125 229.61635ZM48.178123 224.24135Q48.178123 221.7101 48.69375 220.16322Q49.225 218.60072 50.25625 217.7726Q51.2875 216.92885 52.85 216.92885Q54.00625 216.92885 54.865623 217.3976Q55.740623 217.85072 56.303123 218.72572Q56.865623 219.60072 57.19375 220.86635Q57.521873 222.11635 57.521873 224.24135Q57.521873 226.75697 56.990623 228.30385Q56.475 229.85072 55.44375 230.7101Q54.428123 231.55385 52.85 231.55385Q50.771873 231.55385 49.6 230.06947Q48.178123 228.2726 48.178123 224.24135ZM49.990623 224.24135Q49.990623 227.7726 50.803123 228.94447Q51.63125 230.10072 52.85 230.10072Q54.053123 230.10072 54.88125 228.92885Q55.709373 227.75697 55.709373 224.24135Q55.709373 220.7101 54.88125 219.55385Q54.053123 218.38197 52.834373 218.38197Q51.615623 218.38197 50.896873 219.41322Q49.990623 220.7101 49.990623 224.24135Z" fill-rule="nonzero"/><path fill="#000000" d="M37.19375 134.04567L38.94375 133.8113Q39.25625 135.3113 39.975 135.96754Q40.709373 136.6238 41.75625 136.6238Q42.990623 136.6238 43.834373 135.76442Q44.69375 134.90504 44.69375 133.63942Q44.69375 132.42067 43.896873 131.63942Q43.115623 130.85817 41.896873 130.85817Q41.396873 130.85817 40.6625 131.04567L40.85 129.4988Q41.021873 129.53004 41.13125 129.53004Q42.25625 129.53004 43.146873 128.95192Q44.053123 128.35817 44.053123 127.13942Q44.053123 126.17067 43.396873 125.530045Q42.740623 124.88942 41.709373 124.88942Q40.69375 124.88942 40.00625 125.54567Q39.31875 126.186295 39.13125 127.467545L37.365623 127.155045Q37.69375 125.38942 38.834373 124.42067Q39.975 123.45192 41.678123 123.45192Q42.85 123.45192 43.834373 123.95192Q44.81875 124.45192 45.334373 125.32692Q45.865623 126.20192 45.865623 127.17067Q45.865623 128.09254 45.365623 128.85817Q44.865623 129.6238 43.896873 130.07692Q45.1625 130.35817 45.865623 131.29567Q46.56875 132.21754 46.56875 133.59254Q46.56875 135.46754 45.19375 136.78004Q43.834373 138.07692 41.740623 138.07692Q39.85 138.07692 38.6 136.95192Q37.365623 135.82692 37.19375 134.04567ZM48.178123 130.76442Q48.178123 128.23317 48.69375 126.686295Q49.225 125.123795 50.25625 124.29567Q51.2875 123.45192 52.85 123.45192Q54.00625 123.45192 54.865623 123.92067Q55.740623 124.373795 56.303123 125.248795Q56.865623 126.123795 57.19375 127.38942Q57.521873 128.63942 57.521873 130.76442Q57.521873 133.28004 56.990623 134.82692Q56.475 136.3738 55.44375 137.23317Q54.428123 138.07692 52.85 138.07692Q50.771873 138.07692 49.6 136.59254Q48.178123 134.79567 48.178123 130.76442ZM49.990623 130.76442Q49.990623 134.29567 50.803123 135.46754Q51.63125 136.6238 52.85 136.6238Q54.053123 136.6238 54.88125 135.45192Q55.709373 134.28004 55.709373 130.76442Q55.709373 127.23317 54.88125 126.07692Q54.053123 124.905045 52.834373 124.905045Q51.615623 124.905045 50.896873 125.936295Q49.990623 127.23317 49.990623 130.76442Z" fill-rule="nonzero"/><path fill="#000000" d="M42.81875 44.35L42.81875 40.928123L36.6 40.928123L36.6 39.303123L43.13125 30.037498L44.56875 30.037498L44.56875 39.303123L46.50625 39.303123L46.50625 40.928123L44.56875 40.928123L44.56875 44.35L42.81875 44.35ZM42.81875 39.303123L42.81875 32.85L38.334373 39.303123L42.81875 39.303123ZM48.178123 37.2875Q48.178123 34.75625 48.69375 33.209373Q49.225 31.646873 50.25625 30.818748Q51.2875 29.974998 52.85 29.974998Q54.00625 29.974998 54.865623 30.443748Q55.740623 30.896873 56.303123 31.771873Q56.865623 32.646873 57.19375 33.9125Q57.521873 35.1625 57.521873 37.2875Q57.521873 39.803123 56.990623 41.35Q56.475 42.896873 55.44375 43.75625Q54.428123 44.6 52.85 44.6Q50.771873 44.6 49.6 43.115623Q48.178123 41.31875 48.178123 37.2875ZM49.990623 37.2875Q49.990623 40.81875 50.803123 41.990623Q51.63125 43.146873 52.85 43.146873Q54.053123 43.146873 54.88125 41.975Q55.709373 40.803123 55.709373 37.2875Q55.709373 33.75625 54.88125 32.6Q54.053123 31.428123 52.834373 31.428123Q51.615623 31.428123 50.896873 32.459373Q49.990623 33.75625 49.990623 37.2875Z" fill-rule="nonzero"/><path fill="#000000" d="M91.38278 459.78247L84.22653 447.38748L85.87739 446.43436L93.03364 458.82935L91.38278 459.78247ZM102.650185 447.4857L104.52189 446.94632Q105.17956 449.27295 104.457115 451.1154Q103.72686 452.9443 101.7783 454.0693Q99.77562 455.22556 98.04842 455.1402Q96.32695 455.03354 94.77328 453.87372Q93.22532 452.6926 92.20188 450.91995Q91.084694 448.98492 90.987274 447.1287Q90.89558 445.25113 91.83259 443.7178Q92.76179 442.171 94.39912 441.22568Q96.26648 440.14755 98.0718 440.3682Q99.89065 440.58102 101.38351 442.0105L99.99199 443.31906Q98.777725 442.2159 97.60074 442.08353Q96.42946 441.92984 95.18455 442.6486Q93.7502 443.4767 93.18789 444.7215Q92.61777 445.9528 92.897224 447.34305Q93.182396 448.712 93.88552 449.92984Q94.79958 451.51306 95.94716 452.4382Q97.08692 453.34985 98.39714 453.3692Q99.70736 453.38855 100.83048 452.7401Q102.21071 451.94324 102.71052 450.5902Q103.21033 449.23715 102.650185 447.4857ZM105.580986 446.28073L107.04546 445.2548Q107.68497 446.11243 108.421135 446.48126Q109.17084 446.8423 110.228546 446.7368Q111.29198 446.60995 112.36098 445.99277Q113.29466 445.4537 113.85559 444.769Q114.40871 444.0708 114.47928 443.38052Q114.54985 442.69028 114.21391 442.1084Q113.877975 441.52655 113.28969 441.28885Q112.70139 441.05115 111.75822 441.19876Q111.14036 441.28485 109.18746 441.8711Q107.2481 442.44952 106.36058 442.4748Q105.201866 442.53033 104.370415 442.0902Q103.53896 441.65012 103.046776 440.7976Q102.4999 439.8504 102.55888 438.7338Q102.617874 437.61722 103.40409 436.604Q104.182495 435.57724 105.42741 434.8585Q106.80763 434.0616 108.12092 433.89877Q109.4342 433.73593 110.48899 434.28165Q111.54951 434.80603 112.222916 435.87866L110.72356 436.90668Q109.92209 435.79974 108.847626 435.62622Q107.76536 435.43918 106.331 436.2673Q104.84252 437.12668 104.47272 438.07993Q104.108635 439.0118 104.546135 439.76956Q104.93676 440.44617 105.673904 440.59793Q106.39751 440.7575 108.658005 440.0478Q110.9185 439.33807 111.858055 439.24667Q113.229645 439.12234 114.18916 439.5968Q115.14087 440.05768 115.718994 441.05902Q116.28931 442.04684 116.22879 443.25452Q116.168274 444.4622 115.38052 445.56653Q114.6063 446.66306 113.2802 447.42868Q111.60228 448.39743 110.184364 448.56653Q108.758644 448.7221 107.53882 448.10928Q106.318985 447.4965 105.580986 446.28073ZM119.71805 443.4231L112.5618 431.0281L121.53328 425.84842L122.37703 427.30984L115.05641 431.5364L117.24391 435.32526L124.09093 431.37213L124.93468 432.83356L118.08766 436.78668L120.52516 441.00854L128.12994 436.61792L128.9737 438.07935L119.71805 443.4231Z" fill-rule="nonzero"/><path fill="#000000" d="M162.42273 459.28247L155.26648 446.88748L156.91734 445.93436L164.0736 458.32935L162.42273 459.28247ZM173.69012 446.9857L175.56183 446.44632Q176.21951 448.77295 175.49706 450.6154Q174.7668 452.44427 172.81824 453.56927Q170.81557 454.72552 169.08836 454.6402Q167.3669 454.5335 165.81322 453.37372Q164.26526 452.1926 163.24182 450.41995Q162.12463 448.48492 162.02722 446.6287Q161.93552 444.7511 162.87253 443.2178Q163.80173 441.67096 165.43906 440.72565Q167.30643 439.64752 169.11174 439.8682Q170.93059 440.08102 172.42345 441.5105L171.03194 442.81906Q169.81767 441.71588 168.64069 441.58353Q167.4694 441.42984 166.22449 442.1486Q164.79015 442.9767 164.22783 444.2215Q163.65771 445.4528 163.93716 446.84305Q164.22234 448.212 164.92546 449.42984Q165.83952 451.01306 166.9871 451.9382Q168.12688 452.84982 169.43709 452.8692Q170.7473 452.88855 171.87042 452.2401Q173.25066 451.44324 173.75047 450.09018Q174.25027 448.73715 173.69012 446.9857ZM176.62093 445.78073L178.0854 444.7548Q178.72491 445.61243 179.46107 445.98126Q180.21078 446.3423 181.2685 446.2368Q182.33192 446.10995 183.40092 445.49277Q184.33461 444.9537 184.89554 444.269Q185.44865 443.5708 185.51923 442.88052Q185.5898 442.19028 185.25386 441.6084Q184.91792 441.02655 184.32964 440.78885Q183.74133 440.55115 182.79816 440.69876Q182.1803 440.78485 180.2274 441.3711Q178.28804 441.9495 177.40053 441.9748Q176.2418 442.03033 175.41035 441.5902Q174.5789 441.1501 174.08672 440.2976Q173.53984 439.3504 173.59883 438.2338Q173.65782 437.11722 174.44403 436.10397Q175.22244 435.0772 176.46735 434.35846Q177.84758 433.56158 179.16086 433.39877Q180.47414 433.23593 181.52893 433.78165Q182.58945 434.30603 183.26286 435.37863L181.7635 436.40668Q180.96204 435.29974 179.88757 435.12622Q178.8053 434.93918 177.37094 435.7673Q175.88246 436.62668 175.51266 437.5799Q175.14857 438.5118 175.58607 439.26956Q175.9767 439.94617 176.71385 440.09793Q177.43745 440.25748 179.69795 439.5478Q181.95845 438.83807 182.898 438.74667Q184.26959 438.62234 185.22911 439.09677Q186.18082 439.55768 186.75894 440.55902Q187.32925 441.54684 187.26874 442.75452Q187.20822 443.9622 186.42047 445.06653Q185.64624 446.16302 184.32014 446.92865Q182.64223 447.8974 181.22432 448.06653Q179.79858 448.2221 178.57877 447.60928Q177.35893 446.9965 176.62093 445.78073ZM193.8838 441.1184L187.5713 430.18484L183.48474 432.54422L182.64099 431.0828L192.46497 425.41092L193.30872 426.87234L189.20863 429.23953L195.52113 440.1731L193.8838 441.1184Z" fill-rule="nonzero"/><path fill="#000000" d="M236.15546 457.22778L233.76234 442.0828L235.53497 441.05936L247.7656 450.52466L245.89822 451.60278L242.27846 448.67694L237.09586 451.66913L237.90103 456.21997L236.15546 457.22778ZM236.80383 450.06958L240.99864 447.6477L237.72876 444.95285Q236.22711 443.72693 235.36484 442.88965Q235.80876 444.22107 236.05544 445.64832L236.80383 450.06958ZM245.92879 446.28073L247.39328 445.2548Q248.03278 446.11246 248.76895 446.4813Q249.51865 446.8423 250.57635 446.73682Q251.63979 446.61 252.70879 445.9928Q253.64247 445.45374 254.2034 444.76904Q254.75652 444.0708 254.82709 443.38055Q254.89766 442.69028 254.56172 442.10843Q254.22578 441.52655 253.6375 441.28885Q253.04921 441.05115 252.10603 441.19876Q251.48817 441.28485 249.53528 441.8711Q247.59592 442.44952 246.70839 442.4748Q245.54968 442.53033 244.71823 442.09024Q243.88678 441.65012 243.39459 440.7976Q242.84772 439.8504 242.9067 438.73383Q242.96568 437.61722 243.7519 436.604Q244.5303 435.57724 245.77522 434.8585Q247.15544 434.0616 248.46872 433.89877Q249.78201 433.73596 250.8368 434.28168Q251.89732 434.80603 252.57072 435.87866L251.07137 436.9067Q250.2699 435.79974 249.19543 435.62622Q248.11317 435.43918 246.67882 436.2673Q245.19034 437.12668 244.82053 438.07993Q244.45645 439.0118 244.89395 439.7696Q245.28458 440.44617 246.02171 440.59793Q246.74532 440.7575 249.00581 440.0478Q251.26631 439.3381 252.20587 439.2467Q253.57745 439.12238 254.53697 439.5968Q255.48868 440.05768 256.0668 441.05902Q256.63712 442.04684 256.5766 443.25452Q256.51608 444.46222 255.72833 445.56653Q254.95412 446.66306 253.628 447.42868Q251.95009 448.39743 250.53218 448.56653Q249.10646 448.7221 247.88663 448.1093Q246.6668 447.4965 245.92879 446.28073ZM260.06586 443.4231L252.9096 431.0281L261.8811 425.84842L262.72485 427.30984L255.40422 431.5364L257.59174 435.3253L264.43872 431.37216L265.28247 432.83356L258.4355 436.78668L260.873 441.00858L268.47775 436.61795L269.3215 438.07935L260.06586 443.4231Z" fill-rule="nonzero"/><path fill="#000000" d="M292.37823 465.28247L285.222 452.88748L286.87283 451.93436L294.02908 464.32935L292.37823 465.28247ZM294.4521 458.78073L295.91656 457.7548Q296.55606 458.61246 297.29224 458.98126Q298.04193 459.3423 299.09964 459.23682Q300.1631 459.11 301.2321 458.4928Q302.16577 457.95374 302.72668 457.269Q303.2798 456.5708 303.35037 455.88052Q303.42096 455.19028 303.08502 454.6084Q302.74908 454.02655 302.16077 453.78885Q301.57248 453.55115 300.6293 453.69876Q300.01144 453.78485 298.05856 454.3711Q296.1192 454.94952 295.2317 454.9748Q294.07297 455.03033 293.24152 454.5902Q292.41006 454.15012 291.91788 453.2976Q291.371 452.3504 291.43 451.23383Q291.48895 450.11722 292.27518 449.104Q293.0536 448.07724 294.2985 447.3585Q295.67874 446.5616 296.992 446.39877Q298.3053 446.23596 299.36008 446.78165Q300.4206 447.30603 301.09402 448.37866L299.59467 449.40668Q298.79318 448.29974 297.71872 448.12622Q296.63644 447.93918 295.2021 448.7673Q293.71362 449.62668 293.3438 450.57993Q292.97974 451.5118 293.41724 452.2696Q293.80786 452.94617 294.54498 453.09793Q295.26862 453.2575 297.5291 452.5478Q299.78958 451.8381 300.72916 451.7467Q302.10074 451.62238 303.06027 452.0968Q304.01196 452.55768 304.5901 453.55902Q305.1604 454.54684 305.09988 455.75452Q305.03937 456.96222 304.25162 458.06653Q303.4774 459.16306 302.1513 459.92868Q300.47336 460.89743 299.05545 461.06653Q297.62973 461.2221 296.4099 460.6093Q295.19006 459.9965 294.4521 458.78073ZM305.71042 452.28073L307.1749 451.2548Q307.8144 452.11246 308.55057 452.48126Q309.30026 452.8423 310.35797 452.73682Q311.42142 452.61 312.49042 451.9928Q313.4241 451.45374 313.98502 450.769Q314.53812 450.0708 314.6087 449.38052Q314.6793 448.69028 314.34335 448.1084Q314.00742 447.52655 313.4191 447.28885Q312.8308 447.05115 311.88763 447.19876Q311.26978 447.28485 309.3169 447.8711Q307.37753 448.44952 306.49 448.4748Q305.3313 448.53033 304.49985 448.0902Q303.6684 447.65012 303.1762 446.7976Q302.62933 445.8504 302.68832 444.73383Q302.74728 443.61722 303.5335 442.604Q304.31192 441.57724 305.55682 440.8585Q306.93707 440.0616 308.25034 439.89877Q309.56363 439.73596 310.6184 440.28165Q311.67892 440.80603 312.35236 441.87866L310.853 442.90668Q310.0515 441.79974 308.97705 441.62622Q307.89478 441.43918 306.46042 442.2673Q304.97195 443.12668 304.60214 444.07993Q304.23807 445.0118 304.67557 445.7696Q305.0662 446.44617 305.8033 446.59793Q306.52695 446.7575 308.78745 446.0478Q311.0479 445.3381 311.9875 445.2467Q313.35907 445.12238 314.3186 445.5968Q315.2703 446.05768 315.84842 447.05902Q316.41873 448.04684 316.35822 449.25452Q316.2977 450.46222 315.50995 451.56653Q314.73572 452.66306 313.40964 453.42868Q311.7317 454.39743 310.31378 454.56653Q308.88806 454.7221 307.66824 454.1093Q306.4484 453.4965 305.71042 452.28073ZM322.9733 447.6184L316.6608 436.68484L312.57422 439.04422L311.73047 437.5828L321.55444 431.91092L322.3982 433.37234L318.29813 435.73953L324.61063 446.6731L322.9733 447.6184ZM328.846 444.22778L326.4529 429.0828L328.22556 428.05936L340.45618 437.52466L338.5888 438.60278L334.96906 435.67694L329.78644 438.66913L330.5916 443.21997L328.846 444.22778ZM329.49442 437.06958L333.6892 434.6477L330.41934 431.95285Q328.9177 430.72693 328.0554 429.88965Q328.49933 431.22107 328.746 432.64832L329.49442 437.06958Z" fill-rule="nonzero"/><path fill="#000000" d="M327.66757 485.4231L320.51132 473.0281L329.4828 467.84842L330.32654 469.30984L323.00592 473.5364L325.19342 477.32526L332.04044 473.37213L332.8842 474.83356L326.03717 478.78668L328.47467 483.00854L336.07947 478.61792L336.92322 480.07935L327.66757 485.4231ZM336.04715 475.28073L337.51163 474.2548Q338.15115 475.11246 338.8873 475.48126Q339.63702 475.8423 340.69473 475.73682Q341.75815 475.60995 342.82715 474.99277Q343.76083 474.4537 344.32178 473.769Q344.87488 473.0708 344.94547 472.38052Q345.01602 471.69028 344.68008 471.1084Q344.34415 470.52655 343.75586 470.28885Q343.16757 470.05115 342.2244 470.19876Q341.60654 470.28485 339.65363 470.8711Q337.71426 471.44952 336.82675 471.4748Q335.66803 471.53033 334.83658 471.0902Q334.00513 470.65012 333.51294 469.7976Q332.96606 468.8504 333.02505 467.7338Q333.08405 466.61722 333.87027 465.604Q334.64868 464.57724 335.8936 463.8585Q337.2738 463.0616 338.5871 462.89877Q339.90036 462.73593 340.95517 463.28165Q342.0157 463.80603 342.6891 464.87866L341.18973 465.90668Q340.38828 464.79974 339.3138 464.62622Q338.23154 464.43918 336.79718 465.2673Q335.3087 466.12668 334.9389 467.07993Q334.5748 468.0118 335.0123 468.76956Q335.40292 469.44617 336.14008 469.59793Q336.86368 469.7575 339.12418 469.0478Q341.38467 468.33807 342.32422 468.2467Q343.69583 468.12238 344.65533 468.5968Q345.60706 469.05768 346.18518 470.05902Q346.7555 471.04684 346.69498 472.25452Q346.63446 473.4622 345.8467 474.56653Q345.07248 475.66306 343.74637 476.42868Q342.06845 477.39743 340.65054 477.56653Q339.22482 477.7221 338.005 477.10928Q336.78516 476.4965 336.04715 475.28073ZM350.18423 472.4231L343.02798 460.0281L351.99945 454.84842L352.8432 456.30984L345.52258 460.5364L347.71008 464.32526L354.5571 460.37213L355.40085 461.83356L348.55383 465.78668L350.99133 470.00854L358.59613 465.61792L359.43988 467.07935L350.18423 472.4231ZM367.7574 456.4857L369.6291 455.94632Q370.28674 458.27295 369.5643 460.1154Q368.83405 461.9443 366.8855 463.0693Q364.8828 464.22556 363.1556 464.1402Q361.43414 464.03354 359.88046 462.87372Q358.33252 461.6926 357.30908 459.91995Q356.1919 457.98492 356.09448 456.1287Q356.00278 454.25113 356.9398 452.7178Q357.869 451.171 359.50632 450.22568Q361.3737 449.14755 363.179 449.3682Q364.99783 449.58102 366.4907 451.0105L365.09918 452.31906Q363.88492 451.2159 362.70792 451.08353Q361.53665 450.92984 360.29175 451.6486Q358.8574 452.4767 358.29507 453.7215Q357.72495 454.9528 358.00443 456.34308Q358.28958 457.712 358.9927 458.92984Q359.90677 460.51306 361.05435 461.4382Q362.19412 462.34985 363.50433 462.3692Q364.81454 462.38855 365.93768 461.7401Q367.3179 460.94324 367.81772 459.5902Q368.31754 458.23715 367.7574 456.4857ZM372.32523 459.92868L368.51837 445.02255L369.73624 444.31943L373.55658 459.21774L372.32523 459.92868ZM378.8172 455.89185L371.66095 443.49686L380.0235 438.66873L380.86725 440.13016L374.14203 444.01297L376.36078 447.85596L382.17938 444.49658L383.02313 445.958L377.20453 449.31738L380.45453 454.94653L378.8172 455.89185ZM386.27664 446.28073L387.74112 445.2548Q388.3806 446.11246 389.1168 446.48126Q389.8665 446.8423 390.9242 446.73682Q391.98764 446.60995 393.05664 445.99277Q393.99033 445.4537 394.55124 444.769Q395.10434 444.0708 395.17493 443.38052Q395.2455 442.69028 394.90958 442.1084Q394.57364 441.52655 393.98532 441.28885Q393.39703 441.05115 392.45386 441.19876Q391.836 441.28485 389.88312 441.8711Q387.94376 442.44952 387.0562 442.4748Q385.89752 442.53033 385.06607 442.0902Q384.23462 441.65012 383.74243 440.7976Q383.19556 439.8504 383.25455 438.7338Q383.3135 437.61722 384.09973 436.604Q384.87814 435.57724 386.12305 434.8585Q387.5033 434.0616 388.81656 433.89877Q390.12985 433.73593 391.18463 434.28165Q392.24515 434.80603 392.91858 435.87866L391.41922 436.90668Q390.61774 435.79974 389.54327 435.62622Q388.461 435.43918 387.02664 436.2673Q385.53818 437.12668 385.16837 438.07993Q384.8043 439.0118 385.2418 439.76956Q385.63242 440.44617 386.36954 440.59793Q387.09317 440.7575 389.35367 440.0478Q391.61414 439.33807 392.5537 439.2467Q393.9253 439.12238 394.88483 439.5968Q395.83652 440.05768 396.41464 441.05902Q396.98495 442.04684 396.92444 443.25452Q396.86392 444.4622 396.07617 445.56653Q395.30194 446.66306 393.97586 447.42868Q392.2979 448.39743 390.88 448.56653Q389.45428 448.7221 388.23447 448.10928Q387.01462 447.4965 386.27664 446.28073ZM400.4137 443.4231L393.25745 431.0281L402.22894 425.84842L403.0727 427.30984L395.75204 431.5364L397.93954 435.32526L404.78656 431.37213L405.6303 432.83356L398.7833 436.78668L401.2208 441.00854L408.8256 436.61792L409.66934 438.07935L400.4137 443.4231Z" fill-rule="nonzero"/><path fill="#000000" d="M430.99402 466.28247L423.83777 453.88748L425.48862 452.93436L432.64487 465.32935L430.99402 466.28247ZM433.06787 459.78073L434.53235 458.7548Q435.17184 459.61243 435.90802 459.98126Q436.6577 460.3423 437.71542 460.2368Q438.77887 460.10995 439.84787 459.49277Q440.78156 458.9537 441.34247 458.269Q441.8956 457.5708 441.96616 456.88052Q442.03674 456.19028 441.7008 455.6084Q441.36487 455.02655 440.77658 454.78885Q440.18826 454.55115 439.2451 454.69876Q438.62723 454.78485 436.67435 455.3711Q434.735 455.94952 433.84747 455.9748Q432.68875 456.03033 431.8573 455.5902Q431.02585 455.15012 430.53366 454.2976Q429.9868 453.3504 430.04578 452.2338Q430.10477 451.11722 430.89096 450.104Q431.66937 449.07724 432.91428 448.3585Q434.29453 447.5616 435.6078 447.39877Q436.92108 447.23593 437.97586 447.78165Q439.03638 448.30603 439.7098 449.37866L438.21045 450.40668Q437.40897 449.29974 436.3345 449.12622Q435.25223 448.93918 433.81787 449.7673Q432.3294 450.62668 431.9596 451.57993Q431.59552 452.5118 432.03302 453.26956Q432.42365 453.94617 433.1608 454.09793Q433.8844 454.2575 436.1449 453.5478Q438.4054 452.83807 439.34494 452.74667Q440.71652 452.62234 441.67606 453.09677Q442.62775 453.55768 443.20587 454.55902Q443.77618 455.54684 443.71567 456.75452Q443.65515 457.9622 442.8674 459.06653Q442.09317 460.16306 440.7671 460.92868Q439.08917 461.89743 437.67126 462.06653Q436.2455 462.2221 435.0257 461.60928Q433.80588 460.9965 433.06787 459.78073ZM444.3262 453.28073L445.79068 452.2548Q446.43018 453.11243 447.16635 453.48126Q447.91605 453.8423 448.97375 453.7368Q450.0372 453.60995 451.1062 452.99277Q452.0399 452.4537 452.6008 451.769Q453.15393 451.0708 453.2245 450.38052Q453.29507 449.69028 452.95914 449.1084Q452.6232 448.52655 452.03488 448.28885Q451.4466 448.05115 450.50342 448.19876Q449.88556 448.28485 447.93268 448.8711Q445.99332 449.44952 445.1058 449.4748Q443.94708 449.53033 443.11563 449.0902Q442.28418 448.65012 441.792 447.7976Q441.24512 446.8504 441.3041 445.7338Q441.3631 444.61722 442.1493 443.604Q442.9277 442.57724 444.1726 441.8585Q445.55286 441.0616 446.86612 440.89877Q448.1794 440.73593 449.2342 441.28165Q450.2947 441.80603 450.96814 442.87866L449.46878 443.90668Q448.6673 442.79974 447.59283 442.62622Q446.51056 442.43918 445.0762 443.2673Q443.58774 444.12668 443.21793 445.07993Q442.85385 446.0118 443.29135 446.76956Q443.68198 447.44617 444.4191 447.59793Q445.14273 447.7575 447.40323 447.0478Q449.66373 446.33807 450.60327 446.24667Q451.97485 446.12234 452.9344 446.59677Q453.88608 447.05768 454.4642 448.05902Q455.03452 449.04684 454.974 450.25452Q454.91348 451.4622 454.12573 452.56653Q453.3515 453.66306 452.02542 454.42868Q450.34747 455.39743 448.92957 455.56653Q447.50385 455.7221 446.28403 455.10928Q445.0642 454.4965 444.3262 453.28073ZM458.46326 450.4231L451.307 438.0281L456.80087 434.85623Q458.45172 433.9031 459.51306 433.7414Q460.5666 433.56616 461.57297 434.12177Q462.57156 434.66388 463.1653 435.69226Q463.92313 437.00485 463.59406 438.40366Q463.265 439.80246 461.61945 441.07727Q462.44867 441.0135 462.96664 441.12943Q464.0588 441.36487 465.28647 441.9912L469.3833 444.1184L467.32648 445.3059L464.18344 443.6745Q462.82565 442.97894 462.02182 442.6492Q461.218 442.31943 460.7063 442.30814Q460.20032 442.2755 459.76672 442.39954Q459.45132 442.50946 458.82886 442.86884L456.9209 443.9704L460.1006 449.47778L458.46326 450.4231ZM456.1006 442.5496L459.63235 440.51053Q460.75546 439.8621 461.24512 439.27267Q461.7483 438.67545 461.77618 437.97375Q461.8176 437.26422 461.47385 436.66882Q460.96603 435.78928 460.00192 435.58813Q459.0378 435.387 457.6576 436.18387L453.7334 438.4495L456.1006 442.5496ZM470.58762 443.4231L463.43137 431.0281L472.40286 425.84842L473.2466 427.30984L465.92596 431.5364L468.11346 435.32526L474.96048 431.37213L475.80423 432.83356L468.9572 436.78668L471.3947 441.00854L478.9995 436.61792L479.84326 438.07935L470.58762 443.4231Z" fill-rule="nonzero"/><path fill="#000000" d="M508.96216 461.78247L501.8059 449.38748L503.4568 448.43436L510.61304 460.82935L508.96216 461.78247ZM520.22955 449.4857L522.10126 448.94632Q522.759 451.27295 522.0365 453.1154Q521.3062 454.94427 519.35767 456.06927Q517.355 457.22552 515.6278 457.1402Q513.9063 457.0335 512.35266 455.87372Q510.8047 454.6926 509.78125 452.91995Q508.66406 450.98492 508.56665 449.1287Q508.47498 447.2511 509.412 445.7178Q510.34116 444.17096 511.9785 443.22565Q513.8459 442.14752 515.6512 442.3682Q517.47003 442.58102 518.9629 444.0105L517.57135 445.31906Q516.3571 444.21588 515.1801 444.08353Q514.00885 443.92984 512.7639 444.6486Q511.3296 445.4767 510.76727 446.7215Q510.19714 447.95276 510.4766 449.34305Q510.76178 450.712 511.4649 451.92984Q512.37897 453.51306 513.52655 454.4382Q514.6663 455.34982 515.9765 455.3692Q517.28674 455.38855 518.40985 454.7401Q519.7901 453.94324 520.2899 452.59018Q520.78973 451.23712 520.22955 449.4857ZM523.16034 448.28073L524.6249 447.2548Q525.26434 448.11243 526.00055 448.48126Q526.75024 448.8423 527.8079 448.7368Q528.87134 448.60995 529.94037 447.99277Q530.874 447.4537 531.435 446.769Q531.9881 446.0708 532.05865 445.38052Q532.1292 444.69025 531.7933 444.1084Q531.45734 443.52655 530.8691 443.28885Q530.28076 443.05115 529.3376 443.19876Q528.7197 443.28485 526.76685 443.8711Q524.8275 444.4495 523.93994 444.4748Q522.78125 444.53033 521.9498 444.0902Q521.11835 443.6501 520.62616 442.7976Q520.0793 441.8504 520.13824 440.7338Q520.19727 439.61722 520.98346 438.60397Q521.7619 437.5772 523.0068 436.85846Q524.387 436.06158 525.7003 435.89877Q527.0136 435.73593 528.06836 436.28165Q529.1289 436.80603 529.8023 437.87863L528.3029 438.90668Q527.50146 437.79974 526.427 437.62622Q525.3447 437.43918 523.9104 438.2673Q522.4219 439.12668 522.0521 440.0799Q521.68805 441.0118 522.12555 441.76956Q522.5162 442.44617 523.2533 442.5979Q523.97687 442.75748 526.23737 442.0478Q528.49786 441.33807 529.43744 441.24667Q530.809 441.12234 531.76855 441.59677Q532.7203 442.05768 533.2984 443.05902Q533.8687 444.04684 533.80817 445.25452Q533.7477 446.4622 532.9599 447.56653Q532.18567 448.66302 530.85956 449.42865Q529.18164 450.3974 527.76373 450.56653Q526.338 450.7221 525.1182 450.10928Q523.8984 449.4965 523.16034 448.28073ZM537.21625 445.46997L530.06 433.07498L532.53625 431.6453L540.5216 438.7263Q541.6385 439.7233 542.1795 440.22284Q542.0054 439.42126 541.69415 437.8509L539.68097 427.5203L541.88666 426.24686L549.0429 438.64185L547.4732 439.5481L541.481 429.1693L543.8603 441.63403L542.3853 442.4856L532.7057 434.00122L538.79944 444.5559L537.21625 445.46997Z" fill-rule="nonzero"/><path fill="#000000" d="M541.90607 477.4857L543.7778 476.94632Q544.4354 479.27295 543.71295 481.1154Q542.9827 482.9443 541.0342 484.0693Q539.0315 485.22556 537.30426 485.1402Q535.5828 485.03354 534.0291 483.87375Q532.4812 482.6926 531.45776 480.91995Q530.3406 478.98492 530.2431 477.1287Q530.1514 475.25113 531.08844 473.71783Q532.01764 472.171 533.65497 471.22568Q535.52234 470.14755 537.32764 470.3682Q539.1465 470.58105 540.63934 472.0105L539.24786 473.31906Q538.03357 472.2159 536.85657 472.08356Q535.6853 471.92984 534.4404 472.6486Q533.00604 473.4767 532.4437 474.72153Q531.8736 475.9528 532.1531 477.34308Q532.43823 478.712 533.14136 479.92987Q534.0554 481.51306 535.203 482.43823Q536.3428 483.34985 537.653 483.3692Q538.9632 483.38858 540.08636 482.74014Q541.46655 481.94327 541.9664 480.5902Q542.4662 479.23715 541.90607 477.4857ZM543.7035 474.1927Q541.92224 471.10745 542.56525 468.40875Q543.21405 465.6887 545.8392 464.17307Q547.5577 463.18088 549.40094 463.21725Q551.25775 463.24582 552.8265 464.3067Q554.40094 465.34625 555.47125 467.20007Q556.5572 469.081 556.6588 471.00696Q556.7604 472.93295 555.7984 474.51675Q554.85 476.09274 553.2397 477.02243Q551.49414 478.03024 549.6295 477.98816Q547.7571 477.93253 546.19617 476.88516Q544.641 475.81647 543.7035 474.1927ZM545.4105 473.24316Q546.6996 475.4759 548.65393 476.07962Q550.6004 476.66983 552.4137 475.62296Q554.2675 474.55264 554.7083 472.5661Q555.1548 470.55823 553.772 468.16312Q552.9048 466.6611 551.7421 465.83484Q550.5852 464.98724 549.23804 464.93512Q547.89087 464.88297 546.6595 465.5939Q544.9274 466.5939 544.3643 468.52478Q543.79333 470.44214 545.4105 473.24316ZM561.4908 471.96997L554.33453 459.57498L556.81085 458.1453L564.79614 465.22632Q565.913 466.22333 566.45404 466.72287Q566.27997 465.9213 565.9687 464.3509L563.95557 454.0203L566.1612 452.74686L573.31744 465.14185L571.7478 466.0481L565.7556 455.66934L568.1348 468.13403L566.65985 468.9856L556.9802 460.50122L563.074 471.0559L561.4908 471.96997ZM576.26733 463.43872L569.1111 451.04373L573.77954 448.34842Q575.0244 447.62967 575.73645 447.36295Q576.7368 447.00186 577.60925 447.0755Q578.47394 447.13562 579.2846 447.69598Q580.10876 448.24854 580.64 449.1687Q581.5541 450.7519 581.17206 452.4339Q580.7957 454.09454 578.17053 455.61017L574.9906 457.4461L577.90466 462.4934L576.26733 463.43872ZM574.14685 455.9847L577.3539 454.13315Q578.9371 453.2191 579.26416 452.2544Q579.597 451.26837 578.972 450.18585Q578.5267 449.41455 577.81396 449.0863Q577.10126 448.7581 576.3637 448.94934Q575.8817 449.08328 574.7586 449.73172L571.59216 451.55984L574.14685 455.9847ZM584.674 453.28073L586.1385 452.2548Q586.778 453.11246 587.51416 453.4813Q588.26385 453.8423 589.3216 453.73682Q590.385 453.61 591.454 452.9928Q592.3877 452.45374 592.9486 451.76904Q593.5017 451.0708 593.5723 450.38052Q593.6429 449.69028 593.30695 449.1084Q592.971 448.52655 592.3827 448.28885Q591.79443 448.05115 590.85126 448.19876Q590.2334 448.28485 588.28046 448.8711Q586.3411 449.44952 585.4536 449.4748Q584.29486 449.53033 583.46344 449.0902Q582.632 448.65012 582.13983 447.7976Q581.59296 446.8504 581.6519 445.73383Q581.7109 444.61722 582.49713 443.604Q583.2755 442.57724 584.52045 441.8585Q585.90063 441.0616 587.2139 440.89877Q588.5272 440.73596 589.58203 441.28165Q590.6425 441.80603 591.3159 442.87866L589.8166 443.90668Q589.01514 442.79974 587.9407 442.62622Q586.8584 442.43918 585.424 443.2673Q583.93555 444.12668 583.56573 445.07993Q583.20166 446.0118 583.63916 446.7696Q584.0298 447.44617 584.7669 447.59793Q585.49054 447.7575 587.75104 447.0478Q590.01154 446.3381 590.95105 446.2467Q592.3227 446.12238 593.28217 446.5968Q594.2339 447.05768 594.812 448.05902Q595.3823 449.04684 595.32184 450.25452Q595.2613 451.46222 594.4736 452.56653Q593.69934 453.66306 592.3732 454.42868Q590.6953 455.39743 589.2774 455.56653Q587.8517 455.7221 586.63184 455.1093Q585.412 454.4965 584.674 453.28073ZM597.4173 451.22778L595.02423 436.0828L596.7969 435.05936L609.02747 444.52466L607.1601 445.60278L603.54034 442.67694L598.3577 445.66913L599.1629 450.21997L597.4173 451.22778ZM598.0657 444.06958L602.2605 441.6477L598.9906 438.95285Q597.489 437.72693 596.6267 436.88965Q597.0706 438.22107 597.3173 439.64832L598.0657 444.06958ZM616.3842 434.4857L618.2559 433.94632Q618.9136 436.27295 618.19116 438.1154Q617.4609 439.9443 615.5123 441.0693Q613.50964 442.22556 611.7825 442.1402Q610.061 442.03354 608.5073 440.87375Q606.95935 439.6926 605.9359 437.91995Q604.8187 435.98492 604.7213 434.1287Q604.62964 432.25113 605.56665 430.71783Q606.49585 429.171 608.1332 428.22568Q610.00055 427.14755 611.80585 427.3682Q613.6247 427.58105 615.11755 429.0105L613.726 430.31906Q612.5118 429.2159 611.3348 429.08356Q610.1635 428.92984 608.9186 429.6486Q607.48425 430.4767 606.92194 431.72153Q606.3518 432.9528 606.6313 434.34308Q606.91644 435.712 607.61957 436.92987Q608.5336 438.51306 609.6812 439.43823Q610.821 440.34985 612.13116 440.3692Q613.4414 440.38858 614.5645 439.74014Q615.94476 438.94327 616.4446 437.5902Q616.9444 436.23715 616.3842 434.4857Z" fill-rule="nonzero"/><path fill="#000000" d="M644.4556 459.28073L645.9201 458.2548Q646.55963 459.11243 647.2958 459.48126Q648.0455 459.8423 649.1032 459.7368Q650.1666 459.60995 651.23566 458.99277Q652.1693 458.4537 652.7302 457.769Q653.2834 457.07077 653.35394 456.38052Q653.4245 455.69025 653.08856 455.1084Q652.7526 454.52652 652.16437 454.28882Q651.57605 454.05115 650.6329 454.19876Q650.015 454.28485 648.06213 454.87106Q646.12274 455.4495 645.2352 455.47476Q644.07654 455.53033 643.24506 455.0902Q642.41364 454.6501 641.92145 453.7976Q641.3746 452.85037 641.43353 451.7338Q641.49255 450.61722 642.27875 449.60397Q643.0571 448.5772 644.30206 447.85846Q645.6823 447.06158 646.9956 446.89877Q648.30884 446.73593 649.36365 447.28165Q650.4242 447.806 651.0976 448.87863L649.5982 449.90668Q648.79675 448.79974 647.7223 448.62622Q646.64 448.43918 645.2057 449.2673Q643.71716 450.12668 643.3474 451.0799Q642.9833 452.01178 643.4208 452.76956Q643.8114 453.44614 644.5486 453.5979Q645.27216 453.75748 647.53265 453.0478Q649.79315 452.33807 650.7327 452.24667Q652.1043 452.12234 653.06384 452.59677Q654.0155 453.05768 654.5936 454.05902Q655.16394 455.0468 655.10345 456.25452Q655.0429 457.4622 654.2552 458.56653Q653.48096 459.66302 652.15485 460.42865Q650.4769 461.3974 649.059 461.56653Q647.6333 461.7221 646.41345 461.10928Q645.19366 460.49646 644.4556 459.28073ZM658.5927 456.4231L651.43646 444.0281L660.40796 438.84842L661.2517 440.3098L653.9311 444.53638L656.1186 448.32526L662.9656 444.37213L663.8093 445.83356L656.96234 449.78668L659.39984 454.00854L667.00464 449.61792L667.8484 451.07935L658.5927 456.4231ZM669.75635 449.97778L662.6001 437.5828L664.2374 436.63748L667.7843 442.78085L670.3943 433.0828L672.61346 431.80154L670.3158 439.82178L679.99976 444.06372L677.8347 445.31372L669.7984 441.5819L668.9093 444.7294L671.3937 449.03247L669.75635 449.97778ZM681.1094 443.4231L673.9531 431.0281L682.9246 425.84842L683.7684 427.3098L676.44775 431.53638L678.63525 435.32526L685.48224 431.37213L686.326 432.83356L679.479 436.78668L681.9165 441.00854L689.52124 436.61792L690.365 438.07935L681.1094 443.4231Z" fill-rule="nonzero"/><path fill="#000000" d="M733.90076 451.69073Q735.5041 451.81152 736.6758 451.6222L736.8449 453.0401Q735.2318 453.33994 733.30414 453.0636Q732.36926 454.6318 730.70483 455.59274Q729.0269 456.5615 727.1779 456.54645Q725.34247 456.52362 723.7467 455.47836Q722.1644 454.4253 721.1019 452.585Q720.0394 450.7447 719.9165 448.813Q719.7935 446.8813 720.7071 445.30737Q721.6264 443.71213 723.33136 442.72775Q725.0499 441.73557 726.8931 441.77194Q728.7421 441.78696 730.31085 442.84784Q731.8853 443.8874 732.9478 445.7277Q733.8306 447.25677 734.0815 448.75378Q734.3246 450.23724 733.90076 451.69073ZM729.0769 451.6793Q730.7243 451.25137 732.09753 451.50497Q732.7876 449.35648 731.25635 446.70425Q730.38916 445.20224 729.22656 444.376Q728.07745 443.54193 726.7303 443.48978Q725.38306 443.43765 724.1517 444.1486Q722.3249 445.20328 721.8336 447.16483Q721.3481 449.10507 722.7934 451.60843Q724.19183 454.03058 726.1326 454.64212Q728.0791 455.2323 729.9329 454.162Q730.8125 453.65417 731.40204 452.86276Q730.3495 452.82095 729.37195 453.09662L729.0769 451.6793ZM739.15894 450.4231L732.0027 438.0281L737.4965 434.85623Q739.14734 433.9031 740.2087 433.7414Q741.2622 433.56616 742.2686 434.12177Q743.2672 434.66388 743.86096 435.69226Q744.6188 437.00485 744.28973 438.40366Q743.96063 439.80246 742.3151 441.07727Q743.1443 441.01352 743.6623 441.12943Q744.75446 441.36487 745.9821 441.9912L750.0789 444.1184L748.02216 445.3059L744.8791 443.6745Q743.5213 442.97897 742.71747 442.6492Q741.91364 442.31943 741.4019 442.30814Q740.89594 442.2755 740.4624 442.39954Q740.147 442.50946 739.52454 442.86884L737.6166 443.9704L740.79626 449.47778L739.15894 450.4231ZM736.79626 442.5496L740.328 440.51053Q741.4511 439.8621 741.9408 439.27267Q742.444 438.67545 742.4718 437.97375Q742.51324 437.26422 742.1695 436.66882Q741.6617 435.78928 740.6976 435.58813Q739.73346 435.387 738.3532 436.18387L734.4291 438.4495L736.79626 442.5496ZM748.40454 439.78073L749.869 438.7548Q750.50854 439.61246 751.2447 439.98126Q751.9944 440.3423 753.0521 440.2368Q754.11554 440.10995 755.1845 439.49277Q756.1182 438.9537 756.67914 438.269Q757.23224 437.5708 757.3028 436.88052Q757.3734 436.19028 757.0375 435.6084Q756.70154 435.02655 756.1132 434.78885Q755.52496 434.55115 754.5818 434.69876Q753.9639 434.78485 752.011 435.3711Q750.07166 435.94952 749.18414 435.9748Q748.0254 436.03033 747.194 435.5902Q746.3625 435.15012 745.8703 434.2976Q745.3234 433.3504 745.38245 432.2338Q745.4414 431.11722 746.22766 430.104Q747.00604 429.07724 748.251 428.3585Q749.63116 427.5616 750.94446 427.39877Q752.25775 427.23593 753.31256 427.78165Q754.37305 428.30603 755.04645 429.37866L753.5471 430.40668Q752.7456 429.29974 751.6712 429.12622Q750.5889 428.93918 749.15454 429.7673Q747.6661 430.62668 747.29626 431.57993Q746.9322 432.5118 747.3697 433.26956Q747.7603 433.94617 748.49744 434.09793Q749.22107 434.2575 751.48157 433.5478Q753.74207 432.83807 754.6816 432.74667Q756.0532 432.62234 757.0127 433.0968Q757.9644 433.55768 758.54254 434.55902Q759.11285 435.54684 759.0523 436.75452Q758.9918 437.9622 758.20404 439.06653Q757.4299 440.16306 756.10376 440.92868Q754.42584 441.89743 753.00793 442.06653Q751.5822 442.2221 750.36237 441.60928Q749.1425 440.9965 748.40454 439.78073Z" fill-rule="nonzero"/></svg>